<?xml version="1.0" encoding="utf-8"?>
<!-- Generator: Adobe Illustrator 25.1.0, SVG Export Plug-In . SVG Version: 6.00 Build 0)  -->
<svg version="1.1" id="Layer_1" xmlns="http://www.w3.org/2000/svg" xmlns:xlink="http://www.w3.org/1999/xlink" x="0px" y="0px"
	 viewBox="0 0 128 128" style="enable-background:new 0 0 128 128;" xml:space="preserve">
<style type="text/css">
	.st0{fill:#5C9EE3;}
	.st1{fill:#222220;stroke:#222220;stroke-width:3;}
	.st2{fill:none;stroke:#5C9EE3;}
</style>
<path class="st0" d="M112.1,128H15.9C7.1,128,0,120.9,0,112.1V15.9C0,7.1,7.1,0,15.9,0h96.2c8.7,0,15.9,7.1,15.9,15.9v96.2
	C128,120.9,120.9,128,112.1,128z"/>
<g>
	<path class="st1" d="M40.6,29.4c5.1-0.8,11.2-1.4,17.9-1.4c12.1,0,20.7,2.8,26.4,8.1c5.8,5.3,9.2,12.9,9.2,23.4
		c0,10.7-3.3,19.4-9.4,25.4c-6.1,6.1-16.2,9.4-28.9,9.4c-6,0-11-0.3-15.3-0.8V29.4z M49,87.1c2.1,0.4,5.2,0.5,8.5,0.5
		c18,0,27.8-10.1,27.8-27.7c0.1-15.4-8.6-25.2-26.4-25.2c-4.4,0-7.7,0.4-9.9,0.9C49,35.6,49,87.1,49,87.1z"/>
</g>
<path class="st2" d="M111.7,127.1H16.4c-8.7,0-15.7-7-15.7-15.7V16.8c0-8.7,7-15.7,15.7-15.7h95.2c8.6,0,15.7,7,15.7,15.7v94.7
	C127.4,120.1,120.4,127.1,111.7,127.1z"/>
</svg>
