<?xml version="1.0" encoding="utf-8"?>
<!-- Generator: Adobe Illustrator 25.1.0, SVG Export Plug-In . SVG Version: 6.00 Build 0)  -->
<svg version="1.1" id="Layer_1" xmlns="http://www.w3.org/2000/svg" xmlns:xlink="http://www.w3.org/1999/xlink" x="0px" y="0px"
	 viewBox="0 0 346.7 308.5" style="enable-background:new 0 0 346.7 308.5;" xml:space="preserve">
<style type="text/css">
	.st0{fill:#3C76A3;}
	.st1{fill:#619ED5;}
	.st2{enable-background:new    ;}
	.st3{fill:#242424;}
	.st4{fill:none;stroke:#242424;stroke-width:4;stroke-miterlimit:10;}
	.st5{fill:none;stroke:#242424;stroke-miterlimit:10;}
</style>
<path class="st0" d="M277.1,218.5h-197c-14.4,0-26.1-11.8-26.1-26.1v-52.9c0-14.4,11.8-26.1,26.1-26.1h197
	c14.4,0,26.1,11.8,26.1,26.1v52.9C303.2,206.8,291.5,218.5,277.1,218.5z"/>
<path class="st1" d="M277.1,200.7h-197c-14.4,0-26.1-11.8-26.1-26.1v-52.9c0-14.4,11.8-26.1,26.1-26.1h197
	c14.4,0,26.1,11.8,26.1,26.1v52.9C303.2,188.9,291.5,200.7,277.1,200.7z"/>
<g>
	<g class="st2">
		<path class="st3" d="M214,169h-21.4v-3.2H214V169z"/>
		<path class="st3" d="M235.3,169h-21.4v-3.2h21.4V169z"/>
		<path class="st3" d="M256.5,169h-21.4v-3.2h21.4V169z"/>
	</g>
	<g class="st2">
		<path class="st4" d="M214,169h-21.4v-3.2H214V169z"/>
		<path class="st4" d="M235.3,169h-21.4v-3.2h21.4V169z"/>
		<path class="st4" d="M256.5,169h-21.4v-3.2h21.4V169z"/>
	</g>
</g>
<g>
	<g class="st2">
		<path class="st3" d="M100.2,135c4.6,0,8,0.9,10.1,2.8c2.1,1.9,3.2,4.5,3.2,7.9c0,1.5-0.2,3-0.7,4.4c-0.5,1.4-1.3,2.6-2.4,3.7
			c-1.1,1.1-2.5,1.9-4.3,2.5c-1.8,0.6-4,0.9-6.6,0.9h-3.8v13.4h-5.9V135H100.2z M99.8,139.9h-4.1v12.6h3.2c1.8,0,3.4-0.2,4.7-0.6
			c1.3-0.4,2.3-1.1,2.9-2.1c0.7-0.9,1-2.2,1-3.7c0-2.1-0.6-3.6-1.9-4.6C104.3,140.4,102.4,139.9,99.8,139.9z"/>
		<path class="st3" d="M130.5,143.2c3.4,0,6,0.8,7.8,2.3c1.7,1.5,2.6,3.9,2.6,7.1v18.2h-4.1l-1.1-3.8h-0.2c-0.8,1-1.6,1.8-2.4,2.4
			c-0.8,0.6-1.8,1.1-2.8,1.4c-1.1,0.3-2.4,0.5-3.9,0.5c-1.6,0-3.1-0.3-4.3-0.9c-1.3-0.6-2.3-1.5-3-2.7s-1.1-2.8-1.1-4.6
			c0-2.8,1-4.9,3.1-6.3c2.1-1.4,5.2-2.2,9.4-2.3l4.7-0.2v-1.4c0-1.9-0.4-3.2-1.3-4c-0.9-0.8-2.1-1.2-3.7-1.2c-1.4,0-2.7,0.2-3.9,0.6
			s-2.5,0.9-3.7,1.4l-1.9-4.1c1.3-0.7,2.8-1.3,4.5-1.7S128.7,143.2,130.5,143.2z M135.2,157.8l-3.5,0.1c-2.9,0.1-4.9,0.6-6,1.5
			c-1.2,0.9-1.7,2.1-1.7,3.6c0,1.3,0.4,2.3,1.2,2.9c0.8,0.6,1.8,0.9,3.1,0.9c2,0,3.6-0.6,4.9-1.7c1.3-1.1,2-2.8,2-5V157.8z"/>
		<path class="st3" d="M154.7,170.7h-5.8v-38h5.8V170.7z"/>
		<path class="st3" d="M173.5,143.2c3.4,0,6,0.8,7.8,2.3c1.7,1.5,2.6,3.9,2.6,7.1v18.2h-4.1l-1.1-3.8h-0.2c-0.8,1-1.6,1.8-2.4,2.4
			s-1.8,1.1-2.8,1.4c-1.1,0.3-2.4,0.5-3.9,0.5c-1.6,0-3.1-0.3-4.3-0.9c-1.3-0.6-2.3-1.5-3-2.7s-1.1-2.8-1.1-4.6c0-2.8,1-4.9,3.1-6.3
			c2.1-1.4,5.2-2.2,9.4-2.3l4.7-0.2v-1.4c0-1.9-0.4-3.2-1.3-4c-0.9-0.8-2.1-1.2-3.7-1.2c-1.4,0-2.7,0.2-3.9,0.6s-2.5,0.9-3.7,1.4
			l-1.9-4.1c1.3-0.7,2.8-1.3,4.5-1.7S171.7,143.2,173.5,143.2z M178.2,157.8l-3.5,0.1c-2.9,0.1-4.9,0.6-6,1.5
			c-1.2,0.9-1.7,2.1-1.7,3.6c0,1.3,0.4,2.3,1.2,2.9c0.8,0.6,1.8,0.9,3.1,0.9c2,0,3.6-0.6,4.9-1.7c1.3-1.1,2-2.8,2-5V157.8z"/>
	</g>
	<g class="st2">
		<path class="st5" d="M100.2,135c4.6,0,8,0.9,10.1,2.8c2.1,1.9,3.2,4.5,3.2,7.9c0,1.5-0.2,3-0.7,4.4c-0.5,1.4-1.3,2.6-2.4,3.7
			c-1.1,1.1-2.5,1.9-4.3,2.5c-1.8,0.6-4,0.9-6.6,0.9h-3.8v13.4h-5.9V135H100.2z M99.8,139.9h-4.1v12.6h3.2c1.8,0,3.4-0.2,4.7-0.6
			c1.3-0.4,2.3-1.1,2.9-2.1c0.7-0.9,1-2.2,1-3.7c0-2.1-0.6-3.6-1.9-4.6C104.3,140.4,102.4,139.9,99.8,139.9z"/>
		<path class="st5" d="M130.5,143.2c3.4,0,6,0.8,7.8,2.3c1.7,1.5,2.6,3.9,2.6,7.1v18.2h-4.1l-1.1-3.8h-0.2c-0.8,1-1.6,1.8-2.4,2.4
			c-0.8,0.6-1.8,1.1-2.8,1.4c-1.1,0.3-2.4,0.5-3.9,0.5c-1.6,0-3.1-0.3-4.3-0.9c-1.3-0.6-2.3-1.5-3-2.7s-1.1-2.8-1.1-4.6
			c0-2.8,1-4.9,3.1-6.3c2.1-1.4,5.2-2.2,9.4-2.3l4.7-0.2v-1.4c0-1.9-0.4-3.2-1.3-4c-0.9-0.8-2.1-1.2-3.7-1.2c-1.4,0-2.7,0.2-3.9,0.6
			s-2.5,0.9-3.7,1.4l-1.9-4.1c1.3-0.7,2.8-1.3,4.5-1.7S128.7,143.2,130.5,143.2z M135.2,157.8l-3.5,0.1c-2.9,0.1-4.9,0.6-6,1.5
			c-1.2,0.9-1.7,2.1-1.7,3.6c0,1.3,0.4,2.3,1.2,2.9c0.8,0.6,1.8,0.9,3.1,0.9c2,0,3.6-0.6,4.9-1.7c1.3-1.1,2-2.8,2-5V157.8z"/>
		<path class="st5" d="M154.7,170.7h-5.8v-38h5.8V170.7z"/>
		<path class="st5" d="M173.5,143.2c3.4,0,6,0.8,7.8,2.3c1.7,1.5,2.6,3.9,2.6,7.1v18.2h-4.1l-1.1-3.8h-0.2c-0.8,1-1.6,1.8-2.4,2.4
			s-1.8,1.1-2.8,1.4c-1.1,0.3-2.4,0.5-3.9,0.5c-1.6,0-3.1-0.3-4.3-0.9c-1.3-0.6-2.3-1.5-3-2.7s-1.1-2.8-1.1-4.6c0-2.8,1-4.9,3.1-6.3
			c2.1-1.4,5.2-2.2,9.4-2.3l4.7-0.2v-1.4c0-1.9-0.4-3.2-1.3-4c-0.9-0.8-2.1-1.2-3.7-1.2c-1.4,0-2.7,0.2-3.9,0.6s-2.5,0.9-3.7,1.4
			l-1.9-4.1c1.3-0.7,2.8-1.3,4.5-1.7S171.7,143.2,173.5,143.2z M178.2,157.8l-3.5,0.1c-2.9,0.1-4.9,0.6-6,1.5
			c-1.2,0.9-1.7,2.1-1.7,3.6c0,1.3,0.4,2.3,1.2,2.9c0.8,0.6,1.8,0.9,3.1,0.9c2,0,3.6-0.6,4.9-1.7c1.3-1.1,2-2.8,2-5V157.8z"/>
	</g>
</g>
</svg>
