<?xml version="1.0" encoding="utf-8"?>
<!-- Generator: Adobe Illustrator 25.1.0, SVG Export Plug-In . SVG Version: 6.00 Build 0)  -->
<svg version="1.1" id="Layer_1" xmlns="http://www.w3.org/2000/svg" xmlns:xlink="http://www.w3.org/1999/xlink" x="0px" y="0px"
	 viewBox="0 0 346.7 308.5" style="enable-background:new 0 0 346.7 308.5;" xml:space="preserve">
<style type="text/css">
	.st0{fill:#3C76A3;}
	.st1{fill:#619ED5;}
	.st2{fill:#27915D;}
	.st3{fill:#43B57C;}
	.st4{fill:#242424;}
	.st5{fill:#242424;stroke:#242424;stroke-width:0.5;stroke-miterlimit:10;}
</style>
<g>
	<path class="st0" d="M187.1,192.7h-109c-6.4,0-11.7-5.2-11.7-11.7v-27.7c0-6.4,5.2-11.7,11.7-11.7H187c6.4,0,11.7,5.2,11.7,11.7
		V181C198.7,187.4,193.5,192.7,187.1,192.7z"/>
	<path class="st1" d="M187.1,184h-109c-6.4,0-11.7-5.2-11.7-11.7v-27.7c0-6.4,5.2-11.7,11.7-11.7H187c6.4,0,11.7,5.2,11.7,11.7v27.7
		C198.7,178.7,193.5,184,187.1,184z"/>
</g>
<g>
	<path class="st2" d="M267.2,192.8H235c-7.1,0-13-5.8-13-13v-30.3c0-7.1,5.8-13,13-13h32.2c7.1,0,13,5.8,13,13v30.3
		C280.2,187,274.4,192.8,267.2,192.8z"/>
	<path class="st3" d="M268.8,185.7h-35.3c-6.3,0-11.4-5.1-11.4-11.4v-29.9c0-6.3,5.1-11.4,11.4-11.4h35.3c6.3,0,11.4,5.1,11.4,11.4
		v29.9C280.2,180.6,275.1,185.7,268.8,185.7z"/>
</g>
<g>
	<g>
		<path class="st4" d="M249.3,149.2l-6.1,4.9c-0.6,0.5-1.3,0.7-2,0.7h-5.6c-1,0-1.7,0.8-1.7,1.7v7.2c0,1,0.8,1.7,1.7,1.7h5.8
			c0.8,0,1.5,0.3,2.1,0.8l5.6,4.8c1.2,1,2.9,0.1,2.9-1.5c0.1-6.3,0.1-12.5,0.2-18.8C252.2,149.2,250.5,148.2,249.3,149.2z"/>
		<path class="st4" d="M258.2,154.2L258.2,154.2L258.2,154.2c-0.8,0-1.4,0.6-1.4,1.4s0.6,1.4,1.4,1.4l0,0l0,0c0.3,0,1.3,0,2.1,0.7
			c1.2,1,1.1,2.4,1.1,2.6c0,1.1-0.7,1.9-0.9,2.1c-0.9,1-2.2,1.1-2.4,1.1c-0.8,0-1.4,0.6-1.4,1.4c0,0.8,0.6,1.4,1.4,1.4l0,0l0,0
			c3.3,0,6-2.7,6-6C264.1,156.9,261.5,154.2,258.2,154.2z"/>
		<path class="st4" d="M258.1,147.4L258.1,147.4L258.1,147.4L258.1,147.4L258.1,147.4c-0.8,0-1.4,0.6-1.4,1.3s0.6,1.3,1.3,1.3l0,0
			c5.7,0,10.3,4.6,10.3,10.3c0,4.1-2.8,7-3,7.3c-3,2.9-6.6,2.9-7.3,2.8c-0.7,0-1.3,0.6-1.3,1.3s0.6,1.3,1.3,1.3
			c7.1,0,12.9-5.8,12.9-12.9C270.9,153.2,265.2,147.4,258.1,147.4z"/>
	</g>
</g>
<g>
	<path class="st0" d="M187.1,117.5h-109c-6.4,0-11.7-5.2-11.7-11.7V78.1c0-6.4,5.2-11.7,11.7-11.7H187c6.4,0,11.7,5.2,11.7,11.7
		v27.7C198.7,112.2,193.5,117.5,187.1,117.5z"/>
	<path class="st1" d="M187.1,108.8h-109c-6.4,0-11.7-5.2-11.7-11.7V69.4c0-6.4,5.2-11.7,11.7-11.7H187c6.4,0,11.7,5.2,11.7,11.7
		v27.7C198.7,103.5,193.5,108.8,187.1,108.8z"/>
</g>
<g>
	<path class="st2" d="M267.2,117.6H235c-7.1,0-13-5.8-13-13V74.4c0-7.1,5.8-13,13-13h32.2c7.1,0,13,5.8,13,13v30.3
		C280.2,111.8,274.4,117.6,267.2,117.6z"/>
	<path class="st3" d="M268.8,110.6h-35.3c-6.3,0-11.4-5.1-11.4-11.4v-30c0-6.3,5.1-11.4,11.4-11.4h35.3c6.3,0,11.4,5.1,11.4,11.4
		v29.9C280.2,105.4,275.1,110.6,268.8,110.6z"/>
</g>
<g>
	<g>
		<path class="st4" d="M249.3,74l-6.1,4.9c-0.6,0.5-1.3,0.7-2,0.7h-5.6c-1,0-1.7,0.8-1.7,1.7v7.2c0,1,0.8,1.7,1.7,1.7h5.8
			c0.8,0,1.5,0.3,2.1,0.8l5.6,4.8c1.2,1,2.9,0.1,2.9-1.5c0.1-6.3,0.1-12.5,0.2-18.8C252.2,74,250.5,73.1,249.3,74z"/>
		<path class="st4" d="M258.2,79L258.2,79L258.2,79c-0.8,0-1.4,0.6-1.4,1.4s0.6,1.4,1.4,1.4l0,0l0,0c0.3,0,1.3,0,2.1,0.7
			c1.2,1,1.1,2.4,1.1,2.6c0,1.1-0.7,1.9-0.9,2.1c-0.9,1-2.2,1.1-2.4,1.1c-0.8,0-1.4,0.6-1.4,1.4s0.6,1.4,1.4,1.4l0,0l0,0
			c3.3,0,6-2.7,6-6C264.1,81.7,261.5,79,258.2,79z"/>
		<path class="st4" d="M258.1,72.2L258.1,72.2L258.1,72.2L258.1,72.2L258.1,72.2c-0.8,0-1.4,0.6-1.4,1.3c0,0.7,0.6,1.3,1.3,1.3l0,0
			c5.7,0,10.3,4.6,10.3,10.3c0,4.1-2.8,7-3,7.3c-3,2.9-6.6,2.9-7.3,2.8c-0.7,0-1.3,0.6-1.3,1.3s0.6,1.3,1.3,1.3
			c7.1,0,12.9-5.8,12.9-12.9C270.9,78,265.2,72.2,258.1,72.2z"/>
	</g>
</g>
<g>
	<path class="st0" d="M185.2,267.9H76.3c-6.4,0-11.7-5.2-11.7-11.7v-27.7c0-6.4,5.2-11.7,11.7-11.7h108.9c6.4,0,11.7,5.2,11.7,11.7
		v27.7C196.9,262.6,191.7,267.9,185.2,267.9z"/>
	<path class="st1" d="M185.2,259.2H76.3c-6.4,0-11.7-5.2-11.7-11.7v-27.7c0-6.4,5.2-11.7,11.7-11.7h108.9c6.4,0,11.7,5.2,11.7,11.7
		v27.7C196.9,253.9,191.7,259.2,185.2,259.2z"/>
</g>
<g>
	<path class="st2" d="M265.4,268h-32.2c-7.1,0-13-5.8-13-13v-30.3c0-7.1,5.8-13,13-13h32.2c7.1,0,13,5.8,13,13V255
		C278.4,262.2,272.6,268,265.4,268z"/>
	<path class="st3" d="M267,260.9h-35.3c-6.3,0-11.4-5.1-11.4-11.4v-29.9c0-6.3,5.1-11.4,11.4-11.4H267c6.3,0,11.4,5.1,11.4,11.4
		v29.9C278.4,255.8,273.3,260.9,267,260.9z"/>
</g>
<g>
	<g>
		<path class="st4" d="M247.5,224.4l-6.1,4.9c-0.6,0.5-1.3,0.7-2,0.7h-5.6c-1,0-1.7,0.8-1.7,1.7v7.2c0,1,0.8,1.7,1.7,1.7h5.8
			c0.8,0,1.5,0.3,2.1,0.8l5.6,4.8c1.2,1,2.9,0.1,2.9-1.5c0.1-6.3,0.1-12.5,0.2-18.8C250.4,224.3,248.7,223.4,247.5,224.4z"/>
		<path class="st4" d="M256.3,229.4L256.3,229.4L256.3,229.4c-0.8,0-1.4,0.6-1.4,1.4s0.6,1.4,1.4,1.4l0,0l0,0c0.3,0,1.3,0,2.1,0.7
			c1.2,1,1.1,2.4,1.1,2.6c0,1.1-0.7,1.9-0.9,2.1c-0.9,1-2.2,1.1-2.4,1.1c-0.8,0-1.4,0.6-1.4,1.4c0,0.8,0.6,1.4,1.4,1.4l0,0l0,0
			c3.3,0,6-2.7,6-6C262.3,232.1,259.6,229.4,256.3,229.4z"/>
		<path class="st4" d="M256.3,222.6L256.3,222.6L256.3,222.6L256.3,222.6L256.3,222.6c-0.8,0-1.4,0.6-1.4,1.3s0.6,1.3,1.3,1.3l0,0
			c5.7,0,10.3,4.6,10.3,10.3c0,4.1-2.8,7-3,7.3c-3,2.9-6.6,2.9-7.3,2.8c-0.7,0-1.3,0.6-1.3,1.3s0.6,1.3,1.3,1.3
			c7.1,0,12.9-5.8,12.9-12.9C269.1,228.4,263.4,222.6,256.3,222.6z"/>
	</g>
</g>
<g>
	<path class="st5" d="M85,168.3v-20.2h3.3v20.2H85z"/>
	<path class="st5" d="M101.3,152.7c1.7,0,3.1,0.4,4,1.3c1,0.9,1.4,2.3,1.4,4.3v10h-3.3v-9.4c0-1.2-0.2-2.1-0.7-2.7
		c-0.5-0.6-1.2-0.9-2.3-0.9c-1.5,0-2.5,0.5-3.1,1.4c-0.6,0.9-0.9,2.2-0.9,4v7.6h-3.3V153h2.5l0.5,2.1h0.2c0.3-0.5,0.7-1,1.2-1.3
		c0.5-0.3,1-0.6,1.7-0.8C100,152.8,100.6,152.7,101.3,152.7z"/>
	<path class="st5" d="M117,165.9c0.4,0,0.8,0,1.3-0.1c0.4-0.1,0.8-0.2,1.1-0.3v2.5c-0.4,0.2-0.8,0.3-1.4,0.4
		c-0.6,0.1-1.2,0.2-1.8,0.2c-0.9,0-1.6-0.1-2.3-0.4s-1.2-0.8-1.6-1.5c-0.4-0.7-0.6-1.7-0.6-2.9v-8.2h-2.1V154l2.2-1.1l1.1-3.3h2v3.4
		h4.4v2.5h-4.4v8.2c0,0.8,0.2,1.4,0.6,1.7C115.9,165.7,116.4,165.9,117,165.9z"/>
	<path class="st5" d="M130.3,152.7c0.3,0,0.5,0,0.8,0c0.3,0,0.6,0.1,0.8,0.1l-0.3,3c-0.2-0.1-0.4-0.1-0.7-0.1c-0.3,0-0.5,0-0.8,0
		c-0.6,0-1.1,0.1-1.7,0.3c-0.5,0.2-1,0.5-1.4,0.9c-0.4,0.4-0.7,0.9-1,1.4c-0.2,0.6-0.3,1.2-0.3,2v8h-3.3V153h2.5l0.4,2.7h0.2
		c0.3-0.5,0.7-1,1.1-1.5s1-0.8,1.6-1.1C128.9,152.8,129.6,152.7,130.3,152.7z"/>
	<path class="st5" d="M148.1,153v15.3h-2.6l-0.4-2.1h-0.2c-0.3,0.5-0.7,1-1.2,1.3c-0.5,0.3-1.1,0.6-1.7,0.8
		c-0.6,0.2-1.3,0.3-1.9,0.3c-1.2,0-2.1-0.2-3-0.6c-0.8-0.4-1.4-1-1.9-1.8c-0.4-0.8-0.7-1.9-0.7-3.2v-10h3.3v9.4
		c0,1.2,0.2,2.1,0.7,2.7c0.5,0.6,1.2,0.9,2.3,0.9c1,0,1.8-0.2,2.4-0.6c0.6-0.4,1-1,1.2-1.8s0.4-1.8,0.4-2.9V153H148.1z"/>
	<path class="st5" d="M163.1,163.9c0,1-0.2,1.9-0.7,2.5s-1.2,1.2-2.1,1.6c-0.9,0.4-2.1,0.5-3.4,0.5c-1.1,0-2-0.1-2.8-0.2
		s-1.5-0.4-2.2-0.7v-2.8c0.7,0.3,1.5,0.6,2.5,0.9c0.9,0.2,1.8,0.4,2.6,0.4c1.1,0,1.8-0.2,2.3-0.5s0.7-0.8,0.7-1.4
		c0-0.3-0.1-0.6-0.3-0.9c-0.2-0.3-0.5-0.5-1.1-0.8c-0.5-0.3-1.3-0.6-2.2-1c-1-0.4-1.8-0.8-2.5-1.2s-1.2-0.9-1.5-1.4
		c-0.3-0.5-0.5-1.3-0.5-2.1c0-1.4,0.5-2.4,1.6-3.1s2.5-1.1,4.3-1.1c0.9,0,1.8,0.1,2.7,0.3c0.8,0.2,1.7,0.5,2.5,0.8l-1,2.5
		c-0.7-0.3-1.4-0.6-2.1-0.8s-1.4-0.3-2.1-0.3c-0.8,0-1.5,0.1-1.9,0.4s-0.7,0.6-0.7,1.1c0,0.4,0.1,0.7,0.3,0.9
		c0.2,0.2,0.6,0.5,1.1,0.7c0.5,0.2,1.2,0.6,2.2,0.9c0.9,0.4,1.7,0.7,2.4,1.1c0.7,0.4,1.2,0.9,1.5,1.4S163.1,163,163.1,163.9z"/>
	<path class="st5" d="M180.1,160.6c0,1.3-0.2,2.4-0.5,3.4c-0.3,1-0.8,1.8-1.5,2.5s-1.4,1.2-2.3,1.6c-0.9,0.4-1.9,0.5-3,0.5
		c-1.1,0-2-0.2-2.9-0.5c-0.9-0.4-1.6-0.9-2.3-1.6c-0.6-0.7-1.1-1.5-1.5-2.5c-0.4-1-0.5-2.1-0.5-3.4c0-1.7,0.3-3.1,0.9-4.3
		c0.6-1.2,1.4-2.1,2.5-2.7c1.1-0.6,2.4-0.9,3.9-0.9c1.4,0,2.7,0.3,3.7,0.9c1.1,0.6,1.9,1.5,2.5,2.7
		C179.8,157.5,180.1,158.9,180.1,160.6z M169,160.6c0,1.1,0.1,2.1,0.4,2.9c0.3,0.8,0.7,1.4,1.3,1.8s1.3,0.6,2.2,0.6
		c0.9,0,1.6-0.2,2.2-0.6s1-1,1.3-1.8c0.3-0.8,0.4-1.7,0.4-2.9c0-1.1-0.1-2.1-0.4-2.8c-0.3-0.8-0.7-1.4-1.3-1.8
		c-0.6-0.4-1.3-0.6-2.2-0.6c-1.3,0-2.3,0.5-2.9,1.4C169.3,157.6,169,158.9,169,160.6z"/>
</g>
</svg>
