<?xml version="1.0" encoding="utf-8"?>
<!-- Generator: Adobe Illustrator 25.1.0, SVG Export Plug-In . SVG Version: 6.00 Build 0)  -->
<svg version="1.1" id="Layer_1" xmlns="http://www.w3.org/2000/svg" xmlns:xlink="http://www.w3.org/1999/xlink" x="0px" y="0px"
	 viewBox="0 0 546 409" style="enable-background:new 0 0 546 409;" xml:space="preserve">
<style type="text/css">
	.st0{fill:#D7D7D7;}
	.st1{fill:#3A3837;}
	.st2{fill:#56423A;}
	.st3{fill:#F59394;}
	.st4{fill:#E2797E;}
	.st5{fill:#EAE4E4;fill-opacity:0;}
	.st6{fill:#FFFFFF;}
	.st7{fill:none;}
	.st8{fill:#231F20;}
	.st9{fill:#F7A4AB;}
	.st10{fill:#8B394B;}
</style>
<path class="st0" d="M234.1,361.2c-9,0.2-17.9,0.5-27,0.7c-2.8-7-5.5-15.4-7.7-25.3c-2.9-12.6-4.1-24-4.5-33.2
	c16.3-0.5,32.8-1.1,49.2-1.6C242.4,322.4,239.8,342.6,234.1,361.2z"/>
<path class="st0" d="M466,275.5c-1.9-9.9-4.3-17.8-6.2-23c-5.6-15.7-11.8-33.4-27.8-41.9c-3.8-2-7.3-3-9.3-3.5
	c-1.7-0.4-4.2-1.1-6.8-2.7c-4.1-2.5-9.2-7.4-8.2-9.3c1.5-2.9,16.4-0.3,28.1,6.9c4.9,3,11.1,7.9,22.3,25.1
	c6.1,9.3,13.7,22.4,20.9,39.1c-1,1.4-2.5,3.4-4.8,5.1C471.1,273.8,468,275,466,275.5z"/>
<path class="st1" d="M84.7,78.2C86.3,76.1,88,74,90,72c-1-1.1-2-2-3.1-3c-3.3-2.7-7.2-5.3-11.9-7.1c-2.7-1-5.2-1.5-7.8-2
	c-0.5,0-1-0.1-1.5-0.1s-1.2-0.1-1.9-0.1c-1.2-0.1-2.4,0-3.8,0c-0.7,0-1.2,0.1-1.9,0.1C50,60.4,42.6,62.6,36.8,66
	c-7,3.8-11.6,9.2-11.8,14.8c-0.2,5,2.9,9.4,8.4,12.2c0.2,0,0.2,0.2,0.3,0.2c5.5,2.8,13.3,4.3,21.8,3.6h0.2c0.2,0,0.3,0,0.5,0
	c2.9-0.2,5.8-0.7,8.4-1.4c0.2,0,0.2,0,0.3-0.1c2.6-0.5,6-1,10-2c0.7-1.2,1.4-2.6,2.2-4.1c1.3-1.8,2.5-3.7,3.8-5.5
	C82.3,81.7,83.5,79.9,84.7,78.2z"/>
<path class="st1" d="M195.5,85.1c-1.4-2.2-2.9-4.5-4.7-6.8c1.1-0.9,2.2-1.7,3.4-2.7c3.6-2.3,7.8-4.4,12.7-5.6c2.8-0.7,5.4-0.9,8-1.1
	c0.5,0,1,0.1,1.5,0.1s1.2,0.1,1.9,0.1c1.2,0.1,2.4,0.3,3.8,0.4c0.7,0,1.2,0.2,1.9,0.3c8,1.5,15.3,4.5,20.8,8.5
	c6.7,4.6,10.7,10.5,10.4,16c-0.2,5-3.9,9-9.7,11.2c-0.2,0-0.2,0.2-0.4,0.1c-5.8,2.2-13.8,2.7-22.3,1.1h-0.2c-0.2,0-0.3,0-0.5,0
	c-2.9-0.5-5.8-1.3-8.3-2.3c-0.2,0-0.2,0-0.3-0.2c-2.5-0.8-6-1.7-9.9-3.1c-0.5-1.3-1.1-2.8-1.8-4.3c-1.1-2-2.2-3.9-3.3-5.9
	C197.5,89,196.5,87,195.5,85.1z"/>
<path class="st2" d="M189.2,67.8c-9.8-10.9-20.5-17.5-30.1-21.5c0.4-0.4,0.9-0.7,1.5-0.9L189.5,32c7.1-3.4,15.1,2.8,13.4,10.4
	l-6.2,30.9c-0.3,1-0.6,1.7-1,2.7C193.7,73.2,191.6,70.4,189.2,67.8z"/>
<path class="st2" d="M95.8,62.1c11.2-9.4,22.7-14.5,32.8-17.1c-0.4-0.4-0.8-0.8-1.3-1.1l-26.7-17.3c-6.5-4.3-15.3,0.7-14.7,8.4
	l1.8,31.5c0.1,1,0.3,1.8,0.7,2.8C90.6,66.7,93.1,64.3,95.8,62.1z"/>
<path class="st1" d="M210.2,153.6c-0.2,0.1-0.4,0.1-0.6,0.2v-0.1C209.8,153.7,210,153.6,210.2,153.6c0.1-0.1,0.3-0.2,0.5-0.2v0.1
	C210.6,153.5,210.4,153.6,210.2,153.6z"/>
<path class="st1" d="M258.6,195.2c0,7-7.6,13.1-18.2,16.2c-3.2,4.7-8.2,9-14.9,12.3c-3.9,1.9-7.9,3.3-12,4.1c-0.1,0-0.2,0-0.2,0.1
	l0,0c-1.2,0.2-2.3,0.4-3.5,0.6c-3,0.4-6.1,0.5-9,0.4h-0.1c-2.2-0.1-4.3-0.4-6.3-0.8c-2.1-0.4-4.2-1-6.1-1.8
	c-1.3-0.5-2.5-1.1-3.7-1.7c0,0-0.1,0-0.1-0.1l0,0c-0.3-0.2-0.6-0.3-0.9-0.5c-0.4-0.2-0.7-0.4-1-0.6c-0.2-0.1-0.4-0.3-0.6-0.4
	c-0.2-0.1-0.4-0.3-0.5-0.4c0,0-0.1,0-0.1-0.1c-0.1-0.1-0.2-0.1-0.2-0.2c-1.2-0.9-2.3-2-3.3-3.2c-0.4-0.5-0.8-1-1.2-1.5
	c-2-3-3-6.2-3-9.5l0,0c0-0.9,0.1-1.7,0.2-2.6l0,0l0,0l0,0c0.3-2.1,1-4.3,2.1-6.4c0.3-0.6,0.6-1.1,0.9-1.6c1.9-3.1,4.6-6.1,8.1-8.7
	c0.6-0.5,1.3-1,2-1.5c1.6-1.1,3.4-2.1,5.4-3c0.7-0.3,1.6-0.7,2.3-1c-0.4-1.8-0.6-3.5-0.6-5.4c0-4.1,0.8-7.9,2.4-11.2
	c0.5-1.2,1.2-2.4,1.9-3.5c0.1-0.2,0.2-0.4,0.4-0.5c0.1-0.2,0.2-0.4,0.4-0.5l0.4-0.5c0-0.1,0.1-0.1,0.1-0.2c0.1-0.2,0.3-0.4,0.4-0.5
	c2.3-2.8,5.2-5,8.4-6.3c0.1,0,0.1,0,0.2-0.1c0,0,0,0,0,0.1c-0.1,0-0.1,0.1-0.2,0.1c0.1,0.9,0.2,1.9,0.2,2.8c0.1,0.9,0.1,1.8,0.1,2.6
	c0.2-0.1,0.4-0.2,0.5-0.2c0.5-0.2,0.9-0.4,1.4-0.6c1.6-0.7,3.1-1.4,4.7-2.1c2.4-1,4.9-2,7.4-2.9c1.1,0.4,2.1,0.9,3.1,1.4
	c0.9,0.5,1.7,1,2.5,1.6c0.9,0.7,1.8,1.5,2.7,2.4c4.3,4.5,7,11,7,18.1v0.9C250.1,181.2,258.6,187.8,258.6,195.2z"/>
<path class="st3" d="M45.5,163.8"/>
<path class="st4" d="M105.9,247.4"/>
<path class="st4" d="M76.8,252.8"/>
<path class="st5" d="M173.2,235.6c-1.5,0.4-2.8,1-4.2,1.5c-10.5,3.2-20.3,3.9-28.9,3.5c2,10.2,7,26.8,20,43.2
	c25.1,31.6,61.1,37.6,70.3,38.9c-8.6-4.4-21.4-12.5-33-26.4C177.5,272.2,174,246.1,173.2,235.6z"/>
<path class="st3" d="M50.4,136.7"/>
<path class="st4" d="M110.8,220.3"/>
<path class="st4" d="M81.8,225.7"/>
<path class="st6" d="M188.6,196.4c1-0.6,1.9-1,2.8-1.6l0,0c0,0.1-0.1,0.4-0.1,0.6c-0.7,2.8-1.9,5.4-3.4,7.9
	c-0.1,0.1-0.3,0.3-0.3,0.6c-0.7,1.2-1.6,2.2-2.3,3.2c-0.3,0.3-0.6,0.7-0.9,1c-0.4,0.4-0.9,1-1.3,1.5c-1.8,1.9-3.2,2.5-3.1,2.9
	c0.1,0.3,0.7,0.1,1.2,0.7c0.4,0.4,0.3,1.2,0.1,1.9l0,0c0,0-0.9,0.4-2.5,1.2c-18.2,8-34.4,8.2-38.5,8.2c0.1-6.1,0.1-12.4,0.3-18.5
	c5,0.4,12,0.6,20.1-0.4c4.4-0.6,9.2-1.5,14-3.1C179.1,200.9,183.7,199,188.6,196.4z"/>
<path class="st0" d="M376.6,364c-9,0.2-17.9,0.5-27,0.7c-2.8-6.8-5.5-15-7.7-24.6c-2.9-12.3-4.1-23.4-4.5-32.3
	c16.3-0.5,32.8-1.1,49.2-1.6C384.9,326.2,382.2,345.8,376.6,364z"/>
<path class="st1" d="M521,300.7c-0.4,4.6-8.8,9.4-16.2,11.3c-2.5,0.7-10.6,2.4-19.8-0.5c-1.3-0.4-5.5-1.7-10.1-4.9
	c-4.3-2.8-7.1-5.9-9-8.2c-1.3-1.8-5-7.9-4.3-16.2c0.7-7.9,5-13,6.9-14.8c3.7-3.8,7.8-5.5,10.2-6.3c2.5,0,8.8,0.2,15.1,4.1
	c4.9,3.1,7.4,7.2,8.5,8.9c1.9,3.2,3,6.2,3.4,8.3c1.8,7.3,4.4,9.7,6.5,10.4c0.5,0.2,1.4,0.4,2.9,0.9c2.4,1,4.6,2,5.5,3.8
	C520.5,297.9,521.1,299.1,521,300.7z"/>
<ellipse transform="matrix(0.2768 -0.9609 0.9609 0.2768 -18.6871 539.519)" class="st3" cx="349.1" cy="282.2" rx="15.8" ry="6.3"/>
<path class="st6" d="M432.7,252.7c-1.3,8.4-3.6,14.3-5.4,18c-1.4,3-3,5.4-4.9,7.7l0,0c-0.1,0.1-0.1,0.1-0.1,0.2
	c-6.4,7.6-16.5,13.4-36.2,31.6c-3.5,3.2-3.9,3.7-4.7,4.4c0,0-0.3,0.3-0.7,0.6c-19.8,16.7-79.1,20.9-79.1,20.9
	c-1.7,0.1-2.8,0.2-4.4,0.3c-18.5,1.1-44.9,2.6-69.1-6.1c-7-2.5-15.6-8.3-32.8-19.7c-23.9-15.9-30.2-23.6-34.2-30.3
	c-4.8-8-7.8-16-8.2-17.1c-2.3-6.7-3.2-11.9-4.2-18.7c-1.9-12.2-1-14.4-2.8-26.8c-1.1-7.5-3.4-19.4-4.6-19.3
	c-1.6,0.2-1.1,20.2-0.9,20.2c0,0,0-0.8,0.2-2.1c0.5-4.5,1.7-11.3,4.9-19.2c0.9-2.3,2-4.6,3.3-7c0.6-1.2,1.3-2.3,2-3.5
	c1.3-2.1,2.7-4.3,4.4-6.4c2.7-3.6,5.9-7.1,9.6-10.6c14.3-13.1,30.8-19,42.6-21.7c0.1,0,0.1,0,0.2,0l0,0c0.2,1.1,0.3,2.2,0.5,3.3
	s0.4,2.1,0.5,3c0,0,0,0,0,0.1c-0.1,0-0.1,0.1-0.2,0.1c0.1,0.9,0.2,1.9,0.2,2.8c0.1,0.9,0.1,1.8,0.1,2.6c0.2-0.1,0.4-0.2,0.5-0.2
	c0.5-0.2,0.9-0.4,1.4-0.6c0.2,0.6,0.4,1.2,0.6,1.8c1.3,3.3,3.2,4.9,3.9,8.8c0.7,4.6-0.6,8.4-1.5,10.4c-0.5,1.3-1.3,3.1-2.6,5.3l0,0
	c-0.8,1.3-1.7,2.8-2.9,4.3c-0.8,1.1-1.7,2.2-2.7,3.3c-0.7,0.8-1.5,1.7-2.3,2.5c-0.7,0.7-1.4,1.4-2.2,2.2c-0.3,0.2-0.6,0.5-0.8,0.8
	l0,0c-2.5,2.2-5.4,4.4-8.8,6.5c0,0.2-0.1,0.5-0.1,0.6c-0.7,2.6-1.6,5-2.9,7.4c-0.2,0.3-0.3,0.6-0.5,0.8c-0.1,0.1-0.3,0.3-0.3,0.6
	c-0.7,1.2-1.6,2.3-2.3,3.4c-0.3,0.3-0.6,0.8-0.9,1.1c-0.4,0.5-0.9,1.1-1.3,1.5c-0.6,0.6-1.2,1.4-1.9,2l-0.1,0.1l-0.1,0.1
	c-0.4,0.4-0.8,0.7-1,1.1c-0.3,0.3-0.7,0.6-1,0.9c-0.4,0.5-1,0.9-1.5,1.2c0.4,0.6,0.7,1.2,1.3,1.8c1.9-0.9,3.8-1.8,5.7-2.8l0,0
	c1.3-0.7,2.5-1.4,3.8-2.2c3.3-2,6.6-4.3,9.9-7c0.5-0.4,1.1-0.9,1.6-1.3c2.5-2.1,4.8-4.4,7.2-6.9c0.7-0.7,1.4-1.5,2-2.2
	c0.7-0.8,1.3-1.5,2-2.3c0.2-0.3,0.5-0.6,0.7-0.8l0,0c4.5-5.6,8-11.3,10.8-16.9c0.6-1.3,1.2-2.5,1.8-3.7l0.2-0.5
	c3.4-7.7,5.4-14.9,6.6-21c0.3-1.5,0.5-2.9,0.8-4.2l0,0c0.2-1.6,0.5-3.1,0.6-4.4c12.5-3.7,26-6.2,40-7.2c2.9-0.2,5.7-0.4,8.7-0.4
	c-0.3-0.1-0.6-0.1-0.8-0.2c2.3,0,4.4,0.1,6.5,0.1l0,0c0.4,0,0.7,0,1.1,0c2.3,0.1,4.3,0.1,6.2,0.2c2.5,0.1,5.9,0.2,10,0.6
	c0.4,0,0.8,0.1,1.2,0.1c8.9,0.7,20.6,2.1,32.9,5.1c16.3,4,32.5,7.9,49.6,20.6c2.6,1.9,9.4,7.1,16.9,15.7l0,0
	c8.5,9.7,18.1,23.8,23.6,42.4c1.9,6,2.9,11.5,3.6,16.3C432.3,247.3,432.5,250.2,432.7,252.7z"/>
<path class="st1" d="M402.5,210.2c-2-15.2-12.5-27-26-28c-15.9-1.2-29.8,13.4-31.1,32.2c-0.6,7.6,1,14.7,4.1,20.6
	c1.3,3.1,3.5,6,6.4,8.6c2.3,2.2,5,3.9,7.9,5.3c5,2.5,10.9,4.2,17.4,5c20.1,2,38.1-6.7,40.1-19.7
	C422.8,224.4,414.9,215.2,402.5,210.2z"/>
<path class="st1" d="M352.6,270.3c0-7.4-8.5-14-20.7-16.8c0-0.3,0-0.6,0-0.9c0-13.7-9.9-24.8-22-24.8c-12.3,0-22,11.1-22,24.8
	c0,1.9,0.1,3.6,0.6,5.4c-0.7,0.3-1.6,0.7-2.3,1c-17.2,8.3-23.6,24.1-14.4,35s30.6,13.1,47.8,4.7c6.7-3.2,11.7-7.6,14.9-12.3
	C345.2,283.4,352.6,277.5,352.6,270.3z"/>
<path class="st1" d="M281.9,196.2c0-7.4-8.5-14-20.7-16.8c0-0.3,0-0.6,0-0.9c0-13.7-9.9-24.8-22-24.8c-12.3,0-22,11.1-22,24.8
	c0,1.9,0.1,3.6,0.6,5.4c-0.7,0.3-1.6,0.7-2.3,1c-17.2,8.3-23.6,24.1-14.4,35c9.2,10.9,30.6,13.1,47.8,4.7
	c6.7-3.2,11.7-7.6,14.9-12.3C274.3,209.3,281.9,203.2,281.9,196.2z"/>
<path class="st1" d="M210.2,153.6L210.2,153.6c0.1-0.1,0.3-0.2,0.5-0.2v0.1C210.6,153.5,210.4,153.6,210.2,153.6z"/>
<path class="st1" d="M317.6,171.4c0.3,9.3-8.8,17.6-17.5,24.6c-7.9,6.3-17.6,11.7-28.3,15.9c-0.7,14.6-16.2,26.3-35.2,26.3
	c-9.2,0-17.5-2.6-23.8-7.1c-0.3-0.2-0.6-0.5-0.9-0.7c-0.8-0.6-1.6-1.3-2.4-2c-0.1-0.1-0.2-0.1-0.2-0.2c-2.9,0.4-5.7,0.5-8.5,0.4
	c-0.1,0-0.1,0-0.1,0c-2.2-0.1-4.3-0.3-6.4-0.7c-2.2-0.4-4.2-1-6.2-1.7c-1.3-0.5-2.5-1-3.7-1.7c0,0-0.1,0-0.1-0.1l0,0
	c-0.3-0.2-0.6-0.3-0.9-0.5c-0.4-0.2-0.7-0.4-1-0.6c-0.2-0.1-0.4-0.3-0.6-0.4c-0.2-0.1-0.4-0.3-0.6-0.4l-0.1-0.1l0,0
	c2.3-1,4.7-2.2,7-3.5c2.2-1.2,4.4-2.6,6.5-4.1c0,0,0.1,0,0.1-0.1c0.5-0.3,0.9-0.7,1.4-1c0.1-0.1,0.1-0.1,0.2-0.2
	c0.3-0.2,0.6-0.4,0.9-0.6c0.6-0.5,1.2-0.9,1.8-1.4l0.1-0.1c0,0,0.1-0.1,0.2-0.1c0.1-0.1,0.3-0.2,0.4-0.3c0,0,0.1,0,0.1-0.1
	c0.3-0.3,0.7-0.5,1-0.8l0,0c2.3-1.9,4.6-4.1,6.9-6.4c0.1-0.1,0.3-0.2,0.4-0.4c0.6-0.6,1.2-1.3,1.7-1.9c0.6-0.6,1.1-1.2,1.6-1.8
	c6.9-8.1,11.5-16.6,14.6-24.4c1.6-4,2.9-7.8,3.8-11.4c-0.9-0.4-1.9-0.8-2.7-1.2c-1.3-0.5-2.4-1.1-3.5-1.5c-3.5-1.6-6.2-2.9-8.4-4.2
	c2.4-1,4.9-2,7.4-2.9c0.8-0.3,1.6-0.6,2.3-0.8c2.4-0.8,4.8-1.6,7.3-2.3c12.5-3.7,26-6.2,40-7.2c2.9-0.2,5.7-0.4,8.7-0.4
	c0.2,0,0.4,0.1,0.6,0.1C302.9,147.9,317.6,159.9,317.6,171.4z"/>
<path class="st6" d="M431.7,289.4c-0.3,8.3-1,17.1-2.3,26.1c-1.6,11.4-3.6,21.9-6.1,31.5c-2.3,9.5-5.1,17.9-7.9,25.5
	c-7.9,0.4-15.8,0.7-23.8,1.2c-0.9-2.2-5.1-13.1-6-15.3c-5.3-13.4-11.5-29.9-16.8-43.3c10.1-9.9,20.7-21.1,31.4-34
	c11.4-13.6,21-26.7,29.3-39.1C431.3,255.1,432.4,271.2,431.7,289.4z"/>
<path class="st1" d="M431.7,289.4c-0.3,8.3-1,17.1-2.3,26.1c-1.6,11.4-3.6,21.9-6.1,31.5c-0.3,0-0.6,0-0.9,0.1
	c-8.8,0.7-16.3-5.7-17.1-14.4c-0.1-1.3,0-2.5,0.1-3.8c-7-3.6-12.1-10.6-12.8-19.1c-1.2-13.1,8.6-24.8,21.7-25.8
	C420.9,283.4,427,285.6,431.7,289.4z"/>
<path class="st6" d="M434.8,288.8c-0.1,2.9-0.6,13-2.3,26.1c-1.6,11.4-3.6,21.9-6.1,31.5c-2.3,9.5-5.1,17.9-7.9,25.5
	c-7.9,0.4-15.8,0.7-23.8,1.2c-2-5.1-3.8-10.2-6-15.3c-4.7-11.4-9.6-24.8-14.6-38.4c9.8-12.7,19.5-25.7,29.3-39.1
	c9.8-13.3,19.3-26.4,28.4-39.4C434.9,260.4,435.2,276.9,434.8,288.8z"/>
<path class="st1" d="M418.4,374.7c-2.9,1-6.9,2-11.8,2.3c-6.4,0.3-11.7-0.9-15-1.9c-0.4-1.6-0.9-3.4-1.5-5.1
	c-1.2-3.5-2.3-6.6-3.6-9.3c4.8,1.2,12,2.2,20.3,1.6c6.9-0.4,12.5-1.9,16.8-3.4c-0.3,2-0.7,4.4-1.5,7
	C421,369.5,419.7,372.4,418.4,374.7z"/>
<path class="st6" d="M369,315.1"/>
<g>
	<path class="st6" d="M222.2,145.6c0,0-0.3,0.1-0.7,0.1C222,145.6,222.2,145.6,222.2,145.6z"/>
	<path class="st1" d="M211.9,147.1c-0.2,0.1-0.4,0.1-0.6,0.2v-0.1C211.5,147.2,211.7,147.2,211.9,147.1z"/>
	<path class="st1" d="M227.2,165.8c0,3.3-0.4,6.4-1.2,9.3c-0.5,1.8-1.1,3.6-1.8,5.3l-0.2,0.5c-0.5,1.3-1.1,2.5-1.8,3.7
		c-3.1,5.9-7.2,11-10.9,15l0,0c-0.5,0.6-1,1.1-1.5,1.7c-0.6,0.7-1.2,1.3-1.8,2c-0.1,0.1-0.2,0.2-0.3,0.3c-1.4,1.5-3.7,3.8-6.9,6.4
		c-0.1,0-0.1,0-0.1,0.1c0,0-0.1,0.1-0.2,0.1c-0.2,0.2-0.5,0.4-0.8,0.6c0,0-0.1,0-0.1,0.1c-0.1,0.1-0.3,0.2-0.4,0.3
		c-0.1,0-0.1,0.1-0.2,0.1l-0.1,0.1c-0.5,0.4-1.1,0.7-1.5,1.1c-0.1,0.1-0.2,0.2-0.4,0.3c-0.1,0.1-0.2,0.1-0.2,0.2
		c-0.2,0.2-0.4,0.4-0.6,0.5c-0.1,0-0.1,0.1-0.2,0.2c-0.5,0.4-1,0.7-1.4,1c0,0-0.1,0-0.1,0.1l-0.1,0.1c-1.2,0.7-2.2,1.5-2.9,1.9
		c-1.2,0.8-2.3,1.5-3.5,2.1c-2.3,1.3-4.6,2.4-6.9,3.5l0,0c0,0-0.1,0-0.1,0.1l-0.1-0.1l-0.1-0.1c-1.3-1-2.4-2.1-3.4-3.2
		c-0.4-0.5-0.8-1-1.1-1.5c-1.9-2.8-2.9-5.9-3.1-9c-0.1-1.3,0-2.6,0.3-3.9l0,0c0.4-2,1-3.9,2-5.8c0.3-0.5,0.6-1.1,0.9-1.6
		c1.9-3.2,4.6-6.1,8.1-8.8c0.6-0.5,1.3-1,2-1.5c1.6-1.1,3.4-2.1,5.3-3c0.7-0.3,1.6-0.7,2.3-1c-0.4-1.8-0.6-3.5-0.6-5.4
		c0-4,0.9-7.8,2.4-11.2c0.6-1.2,1.2-2.4,2-3.5c0.1-0.2,0.2-0.4,0.4-0.5c0-0.1,0.1-0.1,0.1-0.2c0.1-0.1,0.2-0.2,0.3-0.4l0.4-0.5
		c0-0.1,0.1-0.1,0.1-0.2c0.1-0.2,0.3-0.4,0.4-0.5c2.3-2.7,5.2-4.9,8.4-6.2c0.1,0.9,0.2,1.9,0.2,2.8c0.1,0.9,0.1,1.8,0.1,2.6
		c0.2-0.1,0.4-0.2,0.5-0.2c0.5-0.2,0.9-0.4,1.4-0.6c1.6-0.7,3.1-1.4,4.7-2.1c2.4-1,4.9-2,7.4-2.9c0.8-0.3,1.6-0.6,2.3-0.8
		c0.3,0.8,0.6,1.5,0.8,2.3c0.3,1,0.6,2,0.7,2.9c0.4,1.6,0.6,3,0.7,4.3c0,0.5,0.1,1,0.1,1.4C227.2,164.6,227.2,165.2,227.2,165.8z"/>
</g>
<path class="st6" d="M202.4,156.8c-0.1,0.5-0.2,0.9-0.3,1.3c-0.3,1.3-0.7,2.5-1,3.8c-0.3,1.2-0.7,2.4-1,3.5
	c-1.1,3.7-2.3,7.2-3.5,10.4l0,0v0.1c-0.5,1.3-0.9,2.6-1.4,3.8c-0.4,1-0.7,1.9-1.1,2.8c-1.8,4.6-3.6,8.5-5,11.4c0,0,0,0.1-0.1,0.1
	c-1.3,2.7-2.3,4.6-2.8,5.5c-16-0.8-31.9-1.5-47.9-2.3c-1.5-0.1-3.1-0.1-4.6-0.2c-1.3-0.1-2.6-0.1-3.9-0.2
	c-14.7-0.7-29.4-1.4-44.1-2.1C79,182.4,74.4,169.5,72,156.1c-0.1-0.4-0.2-0.8-0.2-1.2c-2-11.9-2.4-24.3-1-37l0,0
	c0.2-1.8,0.4-3.6,0.7-5.4c2-40.3,31.1-71.4,65.2-69.4l10.3,0.6c2.4,0.2,6.2,0.8,10.7,2.1c8,2.3,18.4,7.1,27.9,17.2
	c0.4,0.4,0.7,0.8,1,1.1c1.2,1.4,2.3,2.7,3.4,4.1c5.3,7,8.5,14,10.5,19.1c0.8,2.1,1.4,3.8,1.9,5.2c0.1,0.2,0.2,0.5,0.2,0.7
	c2,6.1,3.2,12.3,3.8,18.6l0,0c0.1,1.1,0.2,2.3,0.3,3.4s0.1,2.2,0.1,3.3c0,0,0,0,0,0.1c0,1,0.1,2,0.1,2.9s0,1.8,0,2.7
	C206.8,135.5,205,146.7,202.4,156.8z"/>
<path class="st7" d="M198.1,79.8h0.1C198.2,80,198.1,80,198.1,79.8L198.1,79.8z"/>
<path class="st2" d="M190.6,67.4c0.5-0.9,0.9-1.7,1.1-2.7l3.6-23c0.9-5.7-4.9-10.1-9.9-7.4L165,44.7c-0.6,0.3-1,0.5-1.3,0.9
	c6.7,2.7,14.4,7.4,21.4,15C187.1,63,189,65.3,190.6,67.4z"/>
<path class="st2" d="M96.5,55.6c8-6.9,16.2-10.6,23.4-12.6c-0.3-0.3-0.5-0.6-1-0.8l-19-12.7C95.3,26.3,89,30,89.4,35.7l1.3,23.1
	c0.1,0.7,0.2,1.3,0.5,2.1C92.8,59,94.6,57.3,96.5,55.6z"/>
<path class="st6" d="M164.4,91.1c-1.3,0.8-1.7,2.5-0.9,3.9s2.5,1.7,3.8,0.9c1.3-0.8,1.7-2.5,0.9-3.9
	C167.3,90.8,165.6,90.3,164.4,91.1z"/>
<path class="st6" d="M104.7,88.1c-1.2,0.8-1.6,2.5-0.8,3.9c0.8,1.2,2.5,1.6,3.8,0.8c1.2-0.8,1.6-2.5,0.8-3.9
	C107.7,87.5,105.9,87.1,104.7,88.1z"/>
<g>
	<path class="st6" d="M35.9,145.3L35.9,145.3z"/>
	<path class="st6" d="M79.8,151c11.3-6.5,22.5-6.6,27.9-6.7c7.6-0.2,13.5,1.2,16.1,1.8c5.5,1.3,10,3.3,13.5,5L145,43.2
		c-2.6-0.1-7.1-0.3-12.9,0.4c0.3,2.6-1,5.5-3.6,7L110,60.3c-3.5,1.8-7.7,0.3-9.3-3c-1.3,1.1-2.7,2.2-4,3.4c1.8,2.1,3.1,4.3,4,5.8
		c-0.6,3-1.2,6.1-1.7,9c-2.6,0.4-6.6,1.1-11.5,1.8c-1.4,0.2-2.7,0.4-4,0.6c-3.3,6.4-5.5,13-7.7,19.9c-2.5,7.9-3.9,14.3-4.8,19.3
		c-1.9,10.1-4.4,25.5-6.4,46.1C69.1,157.3,76,153.3,79.8,151z M104.5,92.1c1.1-5.8,6.1-9.6,11-8.6c5,1,8,6.6,6.8,12.4
		c-1.1,5.8-6.1,9.6-11,8.6S103.3,97.8,104.5,92.1z"/>
	<path class="st6" d="M207.7,169.5c0-0.6,0-1.2,0.1-1.8l0,0c0-0.7,0-1.3,0.1-1.9l0,0c0-0.1,0-0.2,0-0.2c0.1-4.5,0.2-8.7,0.3-12.6
		c0-0.8,0-1.6,0-2.3l0,0c0.1-9.1-0.1-16.6-0.4-22.4c-0.1-1.4-0.1-2.8-0.2-4.3c-0.2,0.1-0.4,0.1-0.5,0.2c0-0.9,0-1.8,0-2.7
		c0-1,0-2-0.1-2.9c0.1,0,0.1-0.1,0.2-0.1c0,0,0,0,0-0.1c-0.1-1-0.2-2.1-0.3-3.2s-0.3-2.2-0.5-3.4c-0.2-1.1-0.4-2.3-0.6-3.5
		c-0.9-5.2-1.8-10.2-3.1-15.1c-0.5-1.9-1.1-3.8-1.7-5.8c-0.1,0-0.2-0.1-0.4-0.1c-1.2-0.3-2.3-0.8-3.6-1.1c-4.8-1.6-8.6-2.8-11.1-3.7
		c-0.1-3.1-0.3-6.2-0.5-9.2c1.2-1.4,2.7-3.1,4.7-5l0.1-0.1c-1.1-1.4-2.3-2.8-3.5-4l0,0c-2.2,2.9-6.5,4-9.6,1.5L160.3,53
		c-2.4-1.7-3.2-4.6-2.7-7.3v-0.1c-5.6-1.6-10.2-2.3-12.7-2.5v0.2v0.3l-5,70.1L138,141l-0.7,10.2c2.6-0.8,5.8-1.6,9.5-2.3
		c1.4-0.2,2.9-0.4,4.5-0.6c1.6-0.1,4.5-0.3,8.2-0.1c2.3,0.1,5,0.4,7.8,0.9h0.1c3.1,0.5,8.1,1.4,13.8,3.6h0.1
		c4.1,1.6,8.5,3.9,12.7,7.4c0.8,0.8,1.9,1.7,3,2.7c0.1,0.1,0.2,0.1,0.2,0.2c0.9,0.8,1.9,1.7,2.9,2.7c1.3,1.3,2.6,2.6,3.8,4.2
		l0.1,0.1c0.3,0.4,0.6,0.8,0.9,1.2c0.9,1.3,1.8,2.6,2.6,4C207.6,173,207.7,171.3,207.7,169.5z M168.5,87.7c2.1-0.1,4,0.6,5.6,2
		l0.1,0.1c2.2,1.9,3.7,4.8,3.8,8.1c0.1,2.1-0.3,4.1-1.1,5.8c-1.5,3.1-4.2,5.3-7.4,5.4c-0.8,0-1.5,0-2.3-0.2l0,0c-4-1-7.1-5-7.3-10
		c0-0.4,0-0.9,0-1.3l0,0c0-0.6,0.1-1.2,0.2-1.7c0.4-1.8,1.1-3.5,2.2-4.8c0.1-0.2,0.3-0.3,0.4-0.5c1.5-1.7,3.5-2.7,5.7-2.9H168.5z"/>
</g>
<ellipse transform="matrix(0.9953 -9.714688e-02 9.714688e-02 0.9953 -8.4301 16.2641)" class="st8" cx="162.8" cy="94.7" rx="4.1" ry="4.2"/>
<ellipse transform="matrix(0.9953 -9.714688e-02 9.714688e-02 0.9953 -8.2986 10.3661)" class="st8" cx="102.3" cy="90.4" rx="4.1" ry="4.2"/>
<g>
	<path class="st8" d="M109.2,83.1c-6.8-1-13.3,3.2-14.4,9.2s3.5,11.7,10.4,12.7c6.8,1,13.3-3.2,14.4-9.2
		C120.7,89.8,116.1,84.1,109.2,83.1z M104.5,92c-1.6,0.8-4,0.5-5.3-0.9c-1.1-1.3-0.8-3.1,1-4c1.6-0.8,4-0.5,5.3,0.9
		S106.3,91.2,104.5,92z"/>
	<path class="st8" d="M169.4,87.8c-6.5-1.1-12.8,2.6-14.2,8.4s2.6,11.4,9,12.5s12.8-2.6,14.2-8.4C180,94.5,175.8,88.9,169.4,87.8z
		 M164.5,96.3c-1.7,0.8-3.9,0.4-5-1c-1-1.4-0.6-3.1,1.1-3.9c1.7-0.8,3.9-0.4,5,1C166.5,93.8,166,95.5,164.5,96.3z"/>
	<ellipse transform="matrix(0.2406 -0.9706 0.9706 0.2406 -4.849 177.2848)" class="st6" cx="110.9" cy="91.7" rx="5.1" ry="5.2"/>
	<ellipse transform="matrix(0.2406 -0.9706 0.9706 0.2406 36.1231 236.2912)" class="st6" cx="169.1" cy="95.1" rx="5.1" ry="5.2"/>
</g>
<polygon class="st9" points="182.5,197.6 89.7,192.3 91.5,156.5 184.3,161.8 "/>
<path class="st9" d="M211.1,182.3c0-0.3,0-0.6,0-0.9c0-0.9-0.1-1.8-0.1-2.8c0-0.3-0.1-0.6-0.1-0.9c0-0.3-0.1-0.6-0.1-0.7
	c-0.1-0.4-0.2-0.8-0.3-1.2c0-0.1,0.1-0.1,0.1-0.2c-1.3-4.6-4.5-9.2-9.1-13.4c-4.9-4.5-11.6-8.6-19.6-11.8
	c-9.8-4.2-21.4-7.2-34.1-8.8c-3.5-0.5-7.1-0.8-10.8-1.1v0.1c-27.5-1.4-51.9,4.4-65.6,14.3c-5,3.5-8.5,7.7-10.3,12.3
	c5,10.7,10.1,18.3,13.5,21.5c1.8,1.7,4,3.6,4,3.6c1.8,1.6,3.7,3.1,5.6,4.4c14.1,9.7,29.8,12.2,42.2,12.9h0.6c0.4,0,1,0.1,1.4,0.1
	c0.1,0,0.2,0,0.2,0c-0.1,0-0.3,0-0.4,0c-0.4,0-1-0.1-1.4-0.1h-0.6c-12.4-0.7-28-3.2-42.2-12.9c-1.9-1.3-3.9-2.9-5.6-4.4
	c0,0-2.2-1.9-4-3.6c-3.3-3.1-8.3-10.9-13.5-21.5c-0.2,0.4-0.3,0.9-0.5,1.3c0,0.3-0.2,0.4-0.2,0.7c-0.2,0.3-0.2,0.6-0.2,0.9
	c-0.2,1-0.4,2-0.4,2.8c0,0.3,0,0.6,0,0.9c-0.4,2.2-0.4,3.2-0.4,3.2s0-0.1,0.2-0.6c-0.2,0.7-0.2,1.9-0.1,2.8c0,0.3,0.1,0.6,0.1,0.7
	c0.1,0.6,0.1,0.9,0.3,1.6c0,0.3,0.1,0.6,0.1,0.6c0.6,2.8,1.6,5.5,2.9,8.1c0.1,0.2,0.3,0.3,0.3,0.6c0.7,1.2,1.5,2.3,2.1,3.3
	c0.3,0.3,0.5,0.8,0.8,1.1c0.4,0.5,0.8,0.9,1.2,1.5c0.5,0.6,1.1,1.4,1.8,2c0.4,0.5,0.8,0.8,1.2,1.2c0.3,0.3,0.7,0.6,1,0.9
	c0.4,0.5,1,0.9,1.4,1.2c1.5,1.4,2.9,2.5,4,3.6c1.5,1.3,3,2.5,4.5,3.5c0.6,0.3,1.1,0.8,1.7,1.1c6.5,4.2,13.9,7.7,22.5,9.9
	c0.4,0.2,1,0.3,1.6,0.4c1.8,0.4,3.5,0.8,5.4,1c0.3,0,0.6,0.2,0.8,0.2c4.7,0.7,9.2,1.1,13.2,1.3c0-0.3,0.2-0.4,0.2-0.7
	c0,0.1,0,0.4,0,0.7c0.3,0,0.7,0,1.1,0.1c0.4,0,0.9,0,1.3,0.1c0.1,0,0.1,0,0.3,0c1.6,0.1,3,0,4.4,0.1v-0.1c1.3,0.1,2.6,0.3,4,0.4
	c0.1,0,0.1,0,0.3,0c0.4,0,0.9,0,1.3,0.1c0.4,0,0.9,0,1.1,0.1c0-0.3,0-0.4,0-0.7c0,0.3,0.1,0.4,0.1,0.7c4,0.2,8.6,0.5,13.3,0.2
	c0.3,0,0.6,0,0.9-0.1c1.7,0,3.6-0.2,5.5-0.4c0.6,0,1-0.1,1.6-0.2c8.9-1.2,16.5-3.9,23.4-7.3c0.6-0.3,1.2-0.5,1.8-0.9
	c1.6-0.9,3.2-1.9,4.9-2.9c1.2-0.8,2.7-1.9,4.3-3.1c0.4-0.4,0.9-0.7,1.5-1.1c0.3-0.3,0.7-0.5,1-0.8c0.4-0.3,0.9-0.7,1.3-1.1
	c0.6-0.6,1.3-1.1,1.9-1.8c0.4-0.4,0.9-0.8,1.4-1.4c0.3-0.3,0.6-0.6,0.9-1c0.9-1,1.7-2,2.4-3.1c0.1-0.1,0.3-0.3,0.3-0.6
	c1.5-2.4,3-4.8,3.7-7.7c0-0.1,0-0.3,0.2-0.6c0.2-0.7,0.3-1,0.5-1.6c0-0.1,0-0.4,0.2-0.7c0.2-1,0.2-2,0.1-2.8
	c0.1,0.4,0.1,0.6,0.1,0.6S211.3,184.4,211.1,182.3z M117.4,182.9c-2.5,5-9.4,4.3-15.2-1.5c-5.9-5.6-8.4-14.4-5.9-19.3
	c2.5-5,9.4-4.3,15.2,1.5C117.3,169.3,119.9,177.9,117.4,182.9z M59.7,175.3c0-0.1,0-0.1,0-0.3C59.7,175.2,59.7,175.3,59.7,175.3z
	 M130.6,210.1c1,0.1,2.1,0.1,3,0.2C132.7,210.2,131.6,210.1,130.6,210.1z M133.7,210.1c0.4,0,0.8,0,1.3,0.1
	C134.5,210.2,134.1,210.1,133.7,210.1z M139.3,210.4c-0.9-0.1-2-0.1-3.1-0.2C137.4,210.3,138.5,210.3,139.3,210.4
	c0.5,0,1.1,0.1,1.5,0.1h0.4h-0.6C140.3,210.5,139.7,210.5,139.3,210.4z M168.3,185.2c-6.3,5.1-13.3,4.9-15.3-0.3
	c-2.2-5.2,1.4-13.5,7.8-18.6c6.4-5,13.3-4.9,15.3,0.3C178.1,171.8,174.5,180.1,168.3,185.2z"/>
<path class="st10" d="M117.2,167.4c-0.2-0.3-0.5-0.6-0.7-0.9c-0.2-0.3-0.5-0.7-0.7-1c-3.9-4.6-10.3-6-14.4-3.3
	c-1.3,0.9-2.1,2-2.7,3.4c-2.3,3.8-1.6,9.4,1.9,14c4.3,5.7,11.6,7.6,16.3,4.2C121.5,180.5,121.6,173.1,117.2,167.4z"/>
<path class="st10" d="M171.5,166c-1.3-1.2-3-2-4.8-2.2c-3.7-0.7-8.2,0.6-11.5,3.7c-1.5,1.4-2.5,3.1-3.1,4.7
	c-2.2,4.5-1.9,9.5,1.4,12.5c4.4,3.9,11.8,2.9,16.7-2.3C175.1,177.2,175.7,169.9,171.5,166z"/>
<path class="st3" d="M62.8,165.6L62.8,165.6C62.8,165.6,62.8,165.7,62.8,165.6c0,0,0-0.1,0-0.3C62.8,165.4,62.8,165.6,62.8,165.6z"
	/>
<path class="st3" d="M217.6,165.4L217.6,165.4c0-0.1,0-0.1,0-0.3C217.6,165.4,217.6,165.4,217.6,165.4
	C217.6,165.6,217.6,165.6,217.6,165.4z"/>
<path class="st1" d="M234.9,366.9c-2.9,1.4-8.4,3.5-15.5,3.5c-6.2,0-11-1.6-13.9-2.8c-0.5-2.1-1-4.3-1.5-6.5
	c-1.2-5.1-2.2-10.1-3.1-14.9c2.7,2,10.6,7.4,21.7,7.2c7.2-0.1,12.7-2.4,15.7-4c-0.6,3.6-1.2,7.4-2,11.3
	C235.8,362.8,235.4,364.8,234.9,366.9z"/>
<path class="st6" d="M270.5,380.7c-9.6,0-19.2-0.1-28.7-0.1c-1.6-5.8-3.2-11.8-4.7-17.9c-2.7-10.9-5.1-21.5-7.1-31.9
	c7.6,2.1,16.7,4.1,27.2,5.2c9.4,1,17.8,1.1,25,0.8c-2.2,7.2-4.4,14.7-6.5,22.5C273.7,366.7,272,373.9,270.5,380.7z"/>
<path class="st6" d="M273.9,370.7c-10.2,0.1-20.3,0.3-30.5,0.4c-2.2-7.1-4.2-14.9-6-23c-2.3-10.1-4-19.5-5.2-28.4
	c17.6,0.6,35.3,1,52.9,1.6c-1.1,7.3-2.3,15.2-4.2,23.3C278.7,353.9,276.4,362.6,273.9,370.7z"/>
<path class="st1" d="M434.8,288.8c-0.3,8.3-1,17.1-2.3,26.1c-1.6,11.4-3.6,21.9-6.1,31.5c-0.3,0-0.6,0-0.9,0.1
	c-8.8,0.7-16.3-5.7-17.1-14.4c-0.1-1.3,0-2.5,0.1-3.8c-7-3.6-12.1-10.6-12.8-19.1c-1.2-13.1,8.6-24.8,21.7-25.8
	C424,282.9,430.1,284.9,434.8,288.8z"/>
<ellipse transform="matrix(0.2406 -0.9706 0.9706 0.2406 -8.8956 175.6315)" class="st8" cx="107.8" cy="93.5" rx="5.5" ry="5.6"/>
<g>
	<path class="st8" d="M172,85.9c-7.6-1.4-15,3.4-16.7,10.8s3,14.6,10.5,16c7.6,1.4,15-3.4,16.7-10.8C184.4,94.5,179.6,87.3,172,85.9
		z M166.2,96.8c-2,1-4.6,0.5-5.8-1.3s-0.7-4,1.3-5s4.6-0.5,5.8,1.3C168.6,93.6,168,95.8,166.2,96.8z"/>
	
		<ellipse transform="matrix(3.285946e-03 -1 1 3.285946e-03 71.2667 262.0761)" class="st8" cx="167.1" cy="95.3" rx="5.4" ry="5.1"/>
	<ellipse transform="matrix(3.285946e-03 -1 1 3.285946e-03 77.62 267.7759)" class="st6" cx="173.1" cy="95" rx="5.4" ry="5.1"/>
</g>
<g>
	<path class="st8" d="M109.9,83.3c-7.6-1.4-15,3.4-16.7,10.8c-1.7,7.4,3,14.6,10.5,16c7.6,1.4,15-3.4,16.7-10.8
		C122.3,91.8,117.4,84.6,109.9,83.3z M104.1,94.2c-2,1-4.6,0.5-5.8-1.3c-1.2-1.8-0.7-4,1.3-5s4.6-0.5,5.8,1.3
		C106.4,90.9,105.9,93.1,104.1,94.2z"/>
	
		<ellipse transform="matrix(3.285946e-03 -1 1 3.285946e-03 11.9889 197.2057)" class="st8" cx="104.9" cy="92.6" rx="5.4" ry="5.1"/>
	<ellipse transform="matrix(3.285946e-03 -1 1 3.285946e-03 18.3422 202.9055)" class="st6" cx="111" cy="92.3" rx="5.4" ry="5.1"/>
</g>
<path class="st1" d="M377.2,364c-2.9,1.4-8.4,3.5-15.5,3.5c-6.2,0-11-1.6-13.9-2.8c-0.5-2.1-1-4.3-1.5-6.5
	c-1.2-5.1-2.2-10.1-3.1-14.9c2.7,2,10.6,7.4,21.7,7.2c7.2-0.1,12.7-2.4,15.7-4c-0.6,3.6-1.2,7.4-2,11.3
	C378.1,359.9,377.7,362,377.2,364z"/>
<path class="st1" d="M270.5,380.7c-2.5,1.3-7.9,3.8-15.3,3.6c-6.4-0.3-11.1-2.5-13.4-3.8c-0.9-2.7-1.8-5.6-2.6-8.8
	c-0.9-3.5-1.6-6.9-2-10c4.2,1.6,11.1,3.5,19.8,3.4c7.9-0.1,14.1-1.9,18.2-3.4c-0.7,3.4-1.4,6.8-2.3,10.4
	C272,375.3,271.3,378.1,270.5,380.7z"/>
<path class="st1" d="M418.2,378c-2.6,1.3-8.3,3.8-16.1,3.6c-6.7-0.3-11.6-2.5-14.1-3.8c-1-2.7-1.9-5.6-2.8-8.8
	c-0.9-3.5-1.6-6.9-2.1-10c4.4,1.6,11.7,3.5,20.8,3.4c8.3-0.1,14.9-1.9,19.1-3.4c-0.7,3.4-1.5,6.8-2.4,10.4
	C419.8,372.5,419,375.3,418.2,378z"/>
</svg>
