<?xml version="1.0" encoding="utf-8"?>
<!-- Generator: Adobe Illustrator 25.1.0, SVG Export Plug-In . SVG Version: 6.00 Build 0)  -->
<svg version="1.1" id="Layer_1" xmlns="http://www.w3.org/2000/svg" xmlns:xlink="http://www.w3.org/1999/xlink" x="0px" y="0px"
	 viewBox="0 0 359 297" style="enable-background:new 0 0 359 297;" xml:space="preserve">
<style type="text/css">
	.st0{fill:#3A3837;}
	.st1{fill:#E2797E;}
	.st2{fill:#EAE4E4;fill-opacity:0;}
	.st3{fill:#FFFFFF;}
	.st4{fill:#F59394;}
	.st5{fill:none;}
	.st6{fill:#56423A;}
	.st7{fill:#231F20;}
	.st8{fill:#8B394B;}
</style>
<path class="st0" d="M173.6,143.3c0-5.1-5.8-9.6-14.2-11.5c0-0.2,0-0.4,0-0.6c0-9.4-6.8-17-15.1-17c-8.4,0-15.1,7.6-15.1,17
	c0,1.3,0.1,2.5,0.4,3.7c-0.5,0.2-1.1,0.5-1.6,0.7c-11.8,5.7-16.2,16.5-9.9,24s21,9,32.8,3.2c4.6-2.2,8-5.2,10.2-8.4
	C168.4,152.3,173.6,148.1,173.6,143.3z"/>
<path class="st1" d="M68.9,179.1"/>
<path class="st1" d="M49,182.8"/>
<path class="st2" d="M115.1,171c-1,0.3-1.9,0.7-2.9,1c-7.2,2.2-13.9,2.7-19.8,2.4c1.4,7,4.8,18.4,13.7,29.6
	c17.2,21.7,41.9,25.8,48.2,26.7c-5.9-3-14.7-8.6-22.6-18.1C118,196.1,115.6,178.2,115.1,171z"/>
<path class="st3" d="M125.6,149.3c0.7-0.4,1.3-0.7,1.9-1.1l0,0c0,0.1-0.1,0.3-0.1,0.4c-0.5,1.9-1.3,3.7-2.3,5.4
	c-0.1,0.1-0.2,0.2-0.2,0.4c-0.5,0.8-1.1,1.5-1.6,2.2c-0.2,0.2-0.4,0.5-0.6,0.7c-0.3,0.3-0.6,0.7-0.9,1c-1.2,1.3-2.2,1.7-2.1,2
	c0.1,0.2,0.5,0.1,0.8,0.5c0.3,0.3,0.2,0.8,0.1,1.3l0,0c0,0-0.6,0.3-1.7,0.8c-12.5,5.5-23.6,5.6-26.4,5.6c0.1-4.2,0.1-8.5,0.2-12.7
	c3.4,0.3,8.2,0.4,13.8-0.3c3-0.4,6.3-1,9.6-2.1C119.1,152.3,122.3,151,125.6,149.3z"/>
<path class="st4" d="M30.9,103.2"/>
<path class="st1" d="M72.3,160.5"/>
<path class="st1" d="M52.4,164.2"/>
<path class="st3" d="M125.6,144.1c0.7-0.4,1.3-0.7,1.9-1.1l0,0c0,0.1-0.1,0.3-0.1,0.4c-0.5,1.9-1.3,3.7-2.3,5.4
	c-0.1,0.1-0.2,0.2-0.2,0.4c-0.5,0.8-1.1,1.5-1.6,2.2c-0.2,0.2-0.4,0.5-0.6,0.7c-0.3,0.3-0.6,0.7-0.9,1c-1.2,1.3-2.2,1.7-2.1,2
	c0.1,0.2,0.5,0.1,0.8,0.5c0.3,0.3,0.2,0.8,0.1,1.3l0,0c0,0-0.6,0.3-1.7,0.8c-12.5,5.5-23.6,5.6-26.4,5.6c0.1-4.2,0.1-8.5,0.2-12.7
	c3.4,0.3,8.2,0.4,13.8-0.3c3-0.4,6.3-1,9.6-2.1C119.1,147.2,122.3,145.9,125.6,144.1z"/>
<g>
	<path class="st3" d="M310.9,144.6c-1.1,2-2.9,4.6-5.7,6.8c-7.7,6.2-17,5.3-19.2,5c-7.6-9-10.8-14.2-9.8-15.3c0.5-0.6,2-0.2,4.6,1
		c1.3,0.7,7.4,3.7,14.8,1.6c5.4-1.6,8.6-5.1,9.8-6.6C307.2,139.7,309.1,142.1,310.9,144.6z"/>
	<path class="st3" d="M247.3,258.4c-6.2,0.1-12.3,0.4-18.5,0.5c-1.9-4.6-3.8-10.3-5.3-16.9c-2-8.4-2.8-16-3.1-22.1
		c11.2-0.4,22.5-0.7,33.7-1.1C253,232.5,251.2,245.9,247.3,258.4z"/>
	<path class="st0" d="M247.2,259.5c-2.5,0.5-5.5,0.9-8.9,1c-3.5,0.1-6.5-0.2-9-0.6c-2.7-3.5-4-8.1-5-12.8c9.4,2.3,18.3,2,26.7-0.9
		c-0.2,2-0.5,4.4-1.4,7.1C249,255.7,248.1,257.8,247.2,259.5z"/>
	<path class="st0" d="M345.6,135.6c1-3-3-8.3-7.1-11.5c-1.4-1.1-6-4.4-12.6-5.1c-0.9-0.1-3.9-0.4-7.7,0.3c-3.5,0.6-6.1,1.8-7.9,2.7
		c-1.3,0.8-5.3,3.6-7.1,9c-1.7,5.2-0.4,9.5,0.3,11.2c1.3,3.4,3.4,5.6,4.7,6.7c1.6,0.7,5.6,2.3,10.6,1.5c3.9-0.6,6.6-2.5,7.8-3.3
		c2.1-1.5,3.6-3.1,4.4-4.3c3.1-4.1,5.4-4.9,6.9-4.8c0.4,0,1,0.1,2.1,0.2c1.8,0,3.4,0,4.5-0.9C344.5,137.2,345.2,136.6,345.6,135.6z"
		/>
	
		<ellipse transform="matrix(0.2768 -0.9609 0.9609 0.2768 -24.6345 373.1816)" class="st4" cx="235.6" cy="203" rx="10.8" ry="4.3"/>
	<path class="st3" d="M293,179.5c-0.9,5.5-2.5,9.4-3.7,11.8c-4.3,8.6-10.7,10.3-28.3,25.9c-3,2.6-2.7,2.5-3.7,3.3
		c-9.9,7.9-20.7,9.4-28.5,10.3c-35.6,4-53.4,6-76.1-0.4c-15.2-4.3-30.4-8.7-43.4-23c-11-12.2-15.2-25.6-16.9-33.5v-15.3
		c0-0.6,0.1-1.6,0.2-2.9c0.4-3.8,1.7-10.2,5.6-17.2c2.5-4.4,6-9.1,11-13.5c10.7-9.4,23.2-13.1,31.3-14.7c-0.9,4.1-0.3,6.9,0.5,8.8
		c0.9,2.2,2.2,3.2,2.7,5.8c0.5,3-0.4,5.5-1,6.8c-1.1,2.9-5.1,10.2-15.3,16.3l0,0c0,0.1-0.1,0.3-0.1,0.4c-0.5,1.9-1.3,3.7-2.3,5.4
		c-0.1,0.1-0.2,0.2-0.2,0.4c-0.5,0.8-1.1,1.5-1.6,2.2c-0.2,0.2-0.4,0.5-0.6,0.7c-0.3,0.3-0.6,0.7-0.9,1c-0.4,0.4-0.8,0.9-1.3,1.3
		c-0.3,0.3-0.6,0.5-0.8,0.8c-0.2,0.2-0.5,0.4-0.7,0.6c-0.3,0.3-0.7,0.6-1,0.8c0.3,0.4,0.5,0.8,0.9,1.2c6.4-2.8,13.2-7,19.3-13.3
		c15.9-16.2,17.5-35.7,17.8-40.8c-0.4,0-0.8,0-1.2,0c5.3-0.4,10.9-0.8,16.8-1c1.2,0,2.6-0.1,4.3-0.1c8-0.2,16.6-0.1,22,0.1
		c5.5,0.2,17.4,0.8,30.3,3.8c11.2,2.6,22.3,5.2,34,13.5c3.8,2.7,20.6,15.2,27.8,38.2C292,169.7,292.7,175.4,293,179.5z"/>
	<path class="st0" d="M272.3,153.6c-1.4-10.4-8.6-18.5-17.8-19.2c-10.9-0.8-20.4,9.2-21.3,22.1c-0.4,5.2,0.7,10.1,2.8,14.1
		c0.9,2.1,2.4,4.1,4.4,5.9c1.6,1.5,3.4,2.7,5.4,3.6c3.4,1.7,7.5,2.9,11.9,3.4c13.8,1.4,26.1-4.6,27.5-13.5
		C286.2,163.3,280.8,157,272.3,153.6z"/>
	<path class="st0" d="M238.1,194.8c0-5.1-5.8-9.6-14.2-11.5c0-0.2,0-0.4,0-0.6c0-9.4-6.8-17-15.1-17c-8.4,0-15.1,7.6-15.1,17
		c0,1.3,0.1,2.5,0.4,3.7c-0.5,0.2-1.1,0.5-1.6,0.7c-11.8,5.7-16.2,16.5-9.9,24s21,9,32.8,3.2c4.6-2.2,8-5.2,10.2-8.4
		C233,203.8,238.1,199.7,238.1,194.8z"/>
	<path class="st0" d="M189.6,144c0-5.1-5.8-9.6-14.2-11.5c0-0.2,0-0.4,0-0.6c0-9.4-6.8-17-15.1-17c-8.4,0-15.1,7.6-15.1,17
		c0,1.3,0.1,2.5,0.4,3.7c-0.5,0.2-1.1,0.5-1.6,0.7c-11.8,5.7-16.2,16.5-9.9,24s21,9,32.8,3.2c4.6-2.2,8-5.2,10.2-8.4
		C184.4,153,189.6,148.8,189.6,144z"/>
	<g>
		<path class="st3" d="M191.7,265.7c-6.6,0.1-13.2,0.2-19.8,0.3c-1.4-4.9-2.7-10.2-3.9-15.8c-1.5-6.9-2.6-13.4-3.4-19.5
			c11.4,0.4,22.9,0.7,34.3,1.1c-0.7,5-1.5,10.4-2.7,16C194.8,254.2,193.3,260.2,191.7,265.7z"/>
		<path class="st0" d="M191.7,266.8c-1.7,0.9-5.4,2.6-10.5,2.5c-4.4-0.2-7.6-1.7-9.2-2.6c-0.6-1.9-1.2-3.9-1.8-6
			c-0.6-2.2-1-4.3-1.4-6.3c2.4,1.2,7.1,3.3,13.3,3.4c5.7,0.1,10.2-1.5,12.6-2.5C193.8,259.1,192.7,263,191.7,266.8z"/>
	</g>
	<path class="st0" d="M188.3,107.5c-7-0.1-12.6,0.1-16.5,0.2c-0.8,0-1.5,0.1-2.4,0.1c0,0-0.5,0-1,0c-15,0.7-28.9,1.4-29.6,4.4
		c-0.3,1.5,2.3,4.2,15.1,9.5c-2.1,7.9-6.3,18-14.9,27.1c-5.9,6.2-12.3,10.4-18.5,13.1c4.8,3.6,12.1,5,19.4,4c0.8,0.7,1.6,1.4,2.4,2
		c4.3,3.1,10,4.9,16.3,4.9c13,0,23.6-8,24.1-18c7.3-2.9,14-6.6,19.4-10.9c6-4.8,12.2-10.5,12-16.9
		C214.1,118.9,203.5,110.5,188.3,107.5z"/>
	<path class="st3" d="M292.3,207.9c-0.2,5.7-0.7,11.7-1.6,17.9c-1.1,7.8-2.5,15-4.2,21.6c-1.6,6.5-3.5,12.3-5.4,17.5
		c-5.4,0.3-10.8,0.5-16.3,0.8c-0.6-1.5-3.5-9-4.1-10.5c-3.6-9.2-7.9-20.5-11.5-29.7c6.9-6.8,14.2-14.5,21.5-23.3
		c7.8-9.3,14.4-18.3,20.1-26.8C292,184.4,292.8,195.4,292.3,207.9z"/>
	<path class="st0" d="M292.3,207.9c-0.2,5.7-0.7,11.7-1.6,17.9c-1.1,7.8-2.5,15-4.2,21.6c-0.2,0-0.4,0-0.6,0.1
		c-6,0.5-11.2-3.9-11.7-9.9c-0.1-0.9,0-1.7,0.1-2.6c-4.8-2.5-8.3-7.3-8.8-13.1c-0.8-9,5.9-17,14.9-17.7
		C284.9,203.8,289.1,205.3,292.3,207.9z"/>
	<path class="st3" d="M294.4,207.5c-0.1,2-0.4,8.9-1.6,17.9c-1.1,7.8-2.5,15-4.2,21.6c-1.6,6.5-3.5,12.3-5.4,17.5
		c-5.4,0.3-10.8,0.5-16.3,0.8c-1.4-3.5-2.6-7-4.1-10.5c-3.2-7.8-6.6-17-10-26.3c6.7-8.7,13.4-17.6,20.1-26.8
		c6.7-9.1,13.2-18.1,19.5-27C294.5,188,294.7,199.3,294.4,207.5z"/>
	<path class="st0" d="M283.2,266.4c-2,0.7-4.7,1.4-8.1,1.6c-4.4,0.2-8-0.6-10.3-1.3c-0.3-1.1-0.6-2.3-1-3.5
		c-0.8-2.4-1.6-4.5-2.5-6.4c3.3,0.8,8.2,1.5,13.9,1.1c4.7-0.3,8.6-1.3,11.5-2.3c-0.2,1.4-0.5,3-1,4.8
		C285,262.8,284.1,264.8,283.2,266.4z"/>
	<path class="st0" d="M294.4,207.5c-0.2,5.7-0.7,11.7-1.6,17.9c-1.1,7.8-2.5,15-4.2,21.6c-0.2,0-0.4,0-0.6,0.1
		c-6,0.5-11.2-3.9-11.7-9.9c-0.1-0.9,0-1.7,0.1-2.6c-4.8-2.5-8.3-7.3-8.8-13.1c-0.8-9,5.9-17,14.9-17.7
		C287,203.4,291.2,204.8,294.4,207.5z"/>
	<path class="st3" d="M249.3,225.5"/>
</g>
<g>
	<path class="st0" d="M148.2,109.4c0.3,0,0.5-0.1,0.5-0.1S148.5,109.3,148.2,109.4z"/>
	<path class="st0" d="M152.1,121.9c-0.1-2.7-0.8-7.2-4-12.5l0,0c-1,0.1-3.2,0.5-6.9,1c-0.3,1.6-0.4,3-0.4,4.3l0,0
		c-6.7,1.8-11.7,8.5-11.7,16.5c0,1.3,0.1,2.5,0.4,3.7c-0.5,0.2-1.1,0.5-1.6,0.7c-11.8,5.7-16.2,16.5-9.9,24c0.7,0.8,1.5,1.6,2.4,2.3
		l0,0l0.1,0.1l0,0c2.4-1.1,4.8-2.3,7.2-3.9c0.5-0.3,1.2-0.8,2-1.3l0.1-0.1c0.5-0.3,1-0.7,1.6-1.2c0.1-0.1,0.3-0.2,0.4-0.3
		c0.3-0.3,0.7-0.5,1.1-0.8c0.3-0.3,0.7-0.5,1-0.8c0.1,0,0.1-0.1,0.2-0.1c2.3-1.9,4-3.6,4.9-4.6l0,0
		C144.1,143.4,152.7,134.1,152.1,121.9z"/>
</g>
<g>
	<path class="st3" d="M128.7,134.7c-23.5,0.2-47,0.4-70.5,0.6C47.8,118.6,43.4,100,45.4,79.5c0-27.6,19.3-50,43.2-50h7.2
		c4.8,0.2,16.8,1.5,27.7,11.7c7.9,7.4,11.3,15.9,12.8,19.5C148.7,91.8,130.9,130,128.7,134.7z"/>
	<path class="st5" d="M132.9,52.3L132.9,52.3C133,52.4,132.9,52.4,132.9,52.3L132.9,52.3z"/>
	<path class="st0" d="M158.9,42.1L158.9,42.1c-3.3-2.1-7.6-3.7-12.3-4.4c-0.4-0.1-0.7-0.1-1.1-0.1c-0.7-0.1-1.5-0.1-2.2-0.1
		c-0.4,0-0.7,0-1.1,0c-0.3,0-0.6,0-0.9,0c-1.4,0.1-2.9,0.4-4.6,0.9c-2.8,0.9-5.3,2.3-7.2,3.8c-0.9,0.7-1.7,1.4-2.4,2.1
		c0.6,0.8,1.2,1.5,1.8,2.3c0.5,0.6,0.9,1.1,1.3,1.7c1.1-0.6,2.6-1.5,4.6-2.2c1.6-0.5,3.5-1,5.7-1.1c1.2-0.1,2.3-0.1,3.4,0
		c0.2,0,0.4,0,0.7,0.1c0.2,0,0.5,0.1,0.8,0.1c0.5,0.1,1,0.2,1.5,0.3c0.3,0,0.5,0.1,0.8,0.2c3.3,0.7,6.1,1.9,8.2,3.2l0,0
		c2.5,1.6,3.9,3.4,3.5,5c-0.4,1.4-2.1,2.4-4.7,2.9c-0.1,0-0.1,0-0.2,0c-2.6,0.4-5.9,0.3-9.4-0.5c0,0,0,0-0.1,0s-0.1,0-0.2,0
		c-1.2-0.3-2.3-0.6-3.4-1h-0.1c-1.5-0.4-3.5-1.1-6.2-1.9c-0.8-0.2-1.5-0.5-2.2-0.7c0.5,0.9,1,1.9,1.4,2.8c0.3,0.7,0.7,1.3,0.9,1.9
		c2.6,0.7,4.6,1.2,6.2,1.6c0.1,0,0.1,0.1,0.2,0.1c1.6,0.5,3.2,0.9,4.9,1.1c0.1,0,0.2,0,0.3,0h0.1c5,0.7,9.6,0.1,12.9-1.4
		c0.1,0,0.1-0.1,0.2-0.1c3.3-1.5,5.3-4,5.3-7C165.4,47.9,162.9,44.6,158.9,42.1z"/>
	<path class="st6" d="M127.2,44.1c0.3-0.6,0.6-1.2,0.7-1.9l1.7-15.9c0.4-3.9-3.8-6.7-7.2-4.7l-13.9,8c-0.4,0.2-0.7,0.4-0.9,0.7
		c4.8,1.6,10.3,4.5,15.5,9.4C124.6,41.2,126,42.7,127.2,44.1z"/>
	<path class="st0" d="M54.4,47.4c0.8-1.3,1.8-2.6,2.9-3.9c-0.6-0.6-1.2-1.1-1.9-1.7c-2-1.5-4.4-2.9-7.2-3.8
		c-1.6-0.5-3.1-0.7-4.6-0.9c-0.3,0-0.6,0-0.9,0s-0.7,0-1.1,0c-0.7,0-1.4,0.1-2.2,0.1c-0.4,0-0.7,0.1-1.1,0.1
		c-4.7,0.6-9,2.2-12.3,4.4c-4,2.5-6.5,5.9-6.5,9.2c0,3,2,5.5,5.3,7c0.1,0,0.1,0.1,0.2,0.1c3.3,1.5,7.9,2.1,12.9,1.4h0.1
		c0.1,0,0.2,0,0.3,0c1.7-0.2,3.4-0.6,4.9-1.1c0.1,0,0.1,0,0.2-0.1c1.5-0.4,3.5-0.8,5.8-1.5c0.3-0.8,0.7-1.6,1.2-2.5
		c0.7-1.1,1.4-2.3,2.1-3.4C53.1,49.6,53.7,48.5,54.4,47.4z"/>
	<path class="st6" d="M61,39.8c5.4-5.1,11.1-8,16.1-9.6c-0.2-0.2-0.4-0.4-0.7-0.5l-13.9-8c-3.4-2-7.7,0.8-7.2,4.7L57,42.3
		c0.1,0.5,0.2,0.9,0.4,1.4C58.5,42.3,59.7,41,61,39.8z"/>
	<path class="st0" d="M133,52.4c0.7,0.2,1.4,0.4,2.2,0.7c2.7,0.9,4.7,1.5,6.2,1.9h0.1c1.1,0.4,2.2,0.7,3.4,1c0.1,0,0.1,0,0.2,0
		c0,0,0,0,0.1,0c3.5,0.8,6.8,0.9,9.4,0.5c0.1,0,0.1,0,0.2,0c2.6-0.4,4.3-1.4,4.7-2.9c0.4-1.6-1-3.4-3.5-5l0,0
		c-2.1-1.3-4.9-2.5-8.2-3.2c-0.3-0.1-0.5-0.1-0.8-0.2c-0.5-0.1-1-0.2-1.5-0.3c-0.3,0-0.5-0.1-0.8-0.1c-0.2,0-0.4-0.1-0.7-0.1
		c-1-0.1-2.2-0.1-3.4,0c-2.1,0.2-4.1,0.6-5.7,1.1c-2,0.7-3.6,1.5-4.6,2.2c0.5,0.7,1,1.4,1.5,2.2C132.2,51,132.6,51.7,133,52.4z"/>
	<path class="st3" d="M109.7,61.3c-0.9,0.6-1.1,1.8-0.5,2.7c0.6,0.9,1.8,1.1,2.7,0.5s1.1-1.8,0.5-2.7
		C111.7,61,110.5,60.7,109.7,61.3z"/>
	<path class="st3" d="M67.8,61.6c-0.8,0.6-1,1.8-0.4,2.7c0.6,0.8,1.8,1,2.7,0.4c0.8-0.6,1-1.8,0.4-2.7S68.6,60.9,67.8,61.6z"/>
	<g>
		<path class="st3" d="M21.6,103.4"/>
		<path class="st3" d="M52.5,105.6c7.7-4.9,15.5-5.4,19.3-5.7c5.3-0.4,9.5,0.3,11.3,0.6c3.9,0.7,7.1,1.9,9.6,2.9l1.6-74.1
			c-1.8,0-5,0.1-9,0.8c0.3,1.8-0.5,3.8-2.3,4.9l-12.5,7.4c-2.4,1.4-5.4,0.5-6.6-1.7c-0.9,0.8-1.8,1.6-2.7,2.5c1.3,1.4,2.3,2.8,3,3.8
			c-0.3,2.1-0.6,4.2-0.9,6.2c-1.8,0.4-4.6,1-8,1.7c-1,0.2-1.9,0.4-2.8,0.6c-2.1,4.5-3.4,9.1-4.7,13.9c-1.5,5.5-2.2,9.9-2.7,13.4
			c-1,7-2.2,17.6-2.9,31.8C45.2,110.3,49.9,107.3,52.5,105.6z M67.7,64.3c0.6-4,3.9-6.8,7.4-6.3s5.8,4.2,5.2,8.2
			c-0.6,4-3.9,6.8-7.4,6.3S67.1,68.3,67.7,64.3z"/>
		<path class="st3" d="M142.7,116.9c-0.1-14.2-0.8-24.9-1.5-31.9c-0.3-3.6-0.8-8-2.1-13.6c-1.1-4.9-2.2-9.5-4.1-14.1
			c-0.9-0.2-1.8-0.5-2.8-0.7c-3.4-0.9-6.1-1.6-7.9-2.1c-0.2-2.1-0.4-4.2-0.7-6.3c0.8-1,1.8-2.3,3.2-3.7c-0.8-0.9-1.7-1.8-2.6-2.6
			c-1.4,2.1-4.4,3-6.7,1.4l-12.1-7.9c-1.8-1.1-2.4-3.1-2.1-5c-4-0.9-7.2-1.2-9-1.2l-1.6,74.1c2.5-0.9,5.7-1.9,9.7-2.5
			c1.8-0.2,6-0.7,11.3-0.1c3.8,0.4,11.6,1.3,19,6.5C135.2,109.2,139.8,112.4,142.7,116.9z M113.8,73.4c-3.5,0.4-6.7-2.6-7.1-6.6
			s2.1-7.6,5.6-8s6.7,2.6,7.1,6.6S117.3,73,113.8,73.4z"/>
	</g>
	<path class="st7" d="M70.8,58c-4.8-0.4-9.2,2.7-9.8,6.8c-0.6,4.1,2.9,7.9,7.7,8.3c4.8,0.4,9.2-2.7,9.8-6.8
		C79,62.1,75.6,58.4,70.8,58z M67.7,64.3c-1.1,0.6-2.8,0.5-3.7-0.4c-0.8-0.8-0.7-2.1,0.6-2.8c1.1-0.6,2.8-0.5,3.7,0.4
		S69,63.7,67.7,64.3z"/>
	<path class="st7" d="M113,58.9c-4.6-0.5-8.8,2.3-9.6,6.3c-0.8,4,2.2,7.7,6.8,8.2s8.8-2.3,9.6-6.3C120.7,63.1,117.6,59.4,113,58.9z
		 M109.9,64.9c-1.2,0.6-2.7,0.4-3.5-0.5c-0.8-0.9-0.5-2.1,0.7-2.7c1.2-0.6,2.7-0.4,3.5,0.5C111.2,63.1,110.9,64.3,109.9,64.9z"/>
	<circle class="st7" cx="108.7" cy="63.9" r="2.9"/>
	<circle class="st7" cx="66.2" cy="63.3" r="2.9"/>
	<ellipse class="st3" cx="72.3" cy="63.9" rx="3.7" ry="3.5"/>
	<ellipse class="st3" cx="113.1" cy="63.9" rx="3.7" ry="3.5"/>
	<path class="st0" d="M130.2,48c-0.8-1.3-1.8-2.6-2.9-3.9c0.6-0.6,1.2-1.1,1.9-1.7c2-1.5,4.4-2.9,7.2-3.8c1.6-0.5,3.1-0.7,4.6-0.9
		c0.3,0,0.6,0,0.9,0s0.7,0,1.1,0c0.7,0,1.4,0.1,2.2,0.1c0.4,0,0.7,0.1,1.1,0.1c4.7,0.6,9,2.2,12.3,4.4c4,2.5,6.5,5.9,6.5,9.2
		c0,3-2,5.5-5.3,7c-0.1,0-0.1,0.1-0.2,0.1c-3.3,1.5-7.9,2.1-12.9,1.4h-0.1c-0.1,0-0.2,0-0.3,0c-1.7-0.2-3.4-0.6-4.9-1.1
		c-0.1,0-0.1,0-0.2-0.1c-1.5-0.4-3.5-0.8-5.8-1.5c-0.3-0.8-0.7-1.6-1.2-2.5c-0.7-1.1-1.4-2.3-2.1-3.4
		C131.4,50.2,130.8,49.1,130.2,48z"/>
	<path class="st4" d="M99.9,96.6c-2.5-0.2-5-0.3-7.6-0.3v0.1c-19.3,0.1-36.2,5-45.4,12.3c-3.4,2.6-5.7,5.6-6.8,8.8
		c3.9,7.1,7.7,12.1,10.2,14.2c1.3,1.1,2.9,2.3,2.9,2.3c1.3,1,2.7,2,4.1,2.8c10.2,6.1,21.3,7.2,30,7.2h0.4c0.3,0,0.7,0,1,0
		c1.1,0,2.6,0,3.7,0v-0.1c1.1,0,2.9,0,4,0c0.3,0,0.7,0,1,0h0.4c8.7,0,19.7-1.1,30-7.2c1.4-0.8,2.8-1.8,4.1-2.8c0,0,1.6-1.2,2.9-2.3
		c2.4-2,6.2-7.1,10.2-14.2c-1.1-3.1-3.5-6.1-6.8-8.8c-3.6-2.9-8.4-5.4-14.1-7.3C117.1,98.8,108.9,97.2,99.9,96.6z M109.8,112.9
		c4.3-3.7,9.1-3.9,10.7-0.4c1.6,3.5-0.6,9.3-4.8,13s-9.1,3.9-10.7,0.4C103.3,122.4,105.5,116.6,109.8,112.9z M64.5,112.5
		c1.6-3.5,6.4-3.3,10.7,0.4s6.4,9.5,4.8,13c-1.6,3.5-6.4,3.3-10.7-0.4C65,121.9,62.9,116,64.5,112.5z"/>
	<rect x="60.9" y="108.9" class="st4" width="65.1" height="24.5"/>
	<path class="st8" d="M83.2,124.2c3.1-2.5,2.9-7.5-0.3-11.3c-3.4-3.7-8.5-4.7-11.6-2.2c-3.1,2.5-2.9,7.5,0.3,11.3
		C74.8,125.7,80,126.7,83.2,124.2z"/>
	<path class="st8" d="M113.2,121.4c3.2-3.8,3.4-8.8,0.3-11.3c-3.1-2.5-8.2-1.5-11.6,2.2c-3.2,3.8-3.4,8.8-0.3,11.3
		C104.8,126.2,109.9,125.2,113.2,121.4z"/>
	<path class="st8" d="M81.9,120.8c2.8-2.1,2.6-6.1-0.2-9.2c-2.9-3-7.4-3.7-10.2-1.7c-2.8,2.1-2.6,6.1,0.2,9.2
		C74.5,122.2,79,122.9,81.9,120.8z"/>
	<path class="st8" d="M112.9,119.8c3-3.2,3.1-7.6,0.2-9.8c-3-2.2-7.8-1.4-10.9,1.8c-3,3.2-3.1,7.6-0.2,9.8
		C105.1,123.9,109.9,123.1,112.9,119.8z"/>
	<path class="st4" d="M134.7,131.6c-1.3,1.1-2.9,2.3-2.9,2.3c-1.3,1-2.7,2-4.1,2.8c-10.2,6.1-21.3,7.2-30,7.2h-0.4c-0.3,0-0.7,0-1,0
		c-1.2,0-2.9,0-4,0v0.1c-1.1,0-2.6,0-3.7,0c-0.3,0-0.7,0-1,0h-0.4c-8.7,0-19.7-1.1-30-7.2c-1.4-0.8-2.8-1.8-4.1-2.8
		c0,0-1.6-1.2-2.9-2.3c-2.4-2-6.2-7.1-10.2-14.2c-0.1,0.3-0.2,0.6-0.3,0.9c0,0.2-0.1,0.3-0.1,0.5c-0.1,0.2-0.1,0.4-0.1,0.6
		c-0.1,0.7-0.2,1.4-0.2,1.9c0,0.2,0,0.4,0,0.6l0,0c-0.2,1.5-0.2,2.2-0.2,2.2s0-0.1,0.1-0.4c-0.1,0.5-0.1,1.3,0,1.9
		c0,0.2,0.1,0.4,0.1,0.5c0.1,0.4,0.1,0.6,0.3,1.1c0,0.2,0.1,0.4,0.1,0.4c0.5,1.9,1.3,3.7,2.3,5.4c0.1,0.1,0.2,0.2,0.2,0.4
		c0.5,0.8,1.1,1.5,1.6,2.2c0.2,0.2,0.4,0.5,0.6,0.7c0.3,0.3,0.6,0.6,0.9,1c0.4,0.4,0.8,0.9,1.3,1.3c0.3,0.3,0.6,0.5,0.9,0.8
		c0.2,0.2,0.5,0.4,0.7,0.6c0.3,0.3,0.7,0.6,1,0.8c1.1,0.9,2.1,1.6,2.9,2.3c1.1,0.8,2.2,1.6,3.3,2.2c0.4,0.2,0.8,0.5,1.2,0.7
		c4.7,2.6,10,4.7,16.1,5.9c0.3,0.1,0.7,0.2,1.1,0.2c1.3,0.2,2.5,0.4,3.8,0.5c0.2,0,0.4,0.1,0.6,0.1c3.3,0.3,6.5,0.4,9.3,0.4
		c0-0.2,0.1-0.3,0.1-0.5c0,0.1,0,0.3,0,0.5c0.2,0,0.5,0,0.8,0s0.6,0,0.9,0c0.1,0,0.1,0,0.2,0c1.1,0,2.1-0.1,3.1-0.1V153
		c0.9,0,1.8,0.1,2.8,0.1c0.1,0,0.1,0,0.2,0c0.3,0,0.6,0,0.9,0c0.3,0,0.6,0,0.8,0c0-0.2,0-0.3,0-0.5c0,0.2,0.1,0.3,0.1,0.5
		c2.8,0,6,0,9.3-0.4c0.2,0,0.4,0,0.6-0.1c1.2-0.1,2.5-0.3,3.8-0.5c0.4,0,0.7-0.1,1.1-0.2c6.2-1.2,11.4-3.3,16.1-5.9
		c0.4-0.2,0.8-0.4,1.2-0.7c1.1-0.7,2.2-1.4,3.3-2.2c0.8-0.6,1.8-1.4,2.9-2.3c0.3-0.3,0.6-0.5,1-0.8c0.2-0.2,0.5-0.4,0.7-0.6
		c0.3-0.2,0.6-0.5,0.9-0.8c0.4-0.4,0.9-0.8,1.3-1.3c0.3-0.3,0.6-0.6,0.9-1c0.2-0.2,0.4-0.4,0.6-0.7c0.6-0.7,1.1-1.4,1.6-2.2
		c0.1-0.1,0.2-0.2,0.2-0.4c1-1.7,1.9-3.4,2.3-5.4c0-0.1,0-0.2,0.1-0.4c0.1-0.5,0.2-0.7,0.3-1.1c0-0.1,0-0.3,0.1-0.5
		c0.1-0.7,0.1-1.4,0-1.9c0.1,0.3,0.1,0.4,0.1,0.4s0-0.8-0.2-2.2l0,0c0-0.2,0-0.4,0-0.6c0-0.6-0.1-1.2-0.2-1.9c0-0.2-0.1-0.4-0.1-0.6
		c0-0.2-0.1-0.4-0.1-0.5c-0.1-0.3-0.2-0.6-0.3-0.9C141,124.5,137.1,129.5,134.7,131.6z M39.4,123L39.4,123c0-0.1,0-0.1,0-0.2
		C39.4,122.9,39.4,123,39.4,123C39.4,123.1,39.4,123,39.4,123z M145.5,122.9L145.5,122.9C145.5,123,145.5,123,145.5,122.9
		c0,0,0-0.1,0-0.2C145.5,122.8,145.5,122.9,145.5,122.9z"/>
</g>
<path class="st4" d="M39.4,123L39.4,123C39.4,123,39.4,123.1,39.4,123c0,0,0-0.1,0-0.2C39.4,122.9,39.4,123,39.4,123z"/>
<path class="st4" d="M145.5,122.9L145.5,122.9c0-0.1,0-0.1,0-0.2C145.5,122.9,145.5,122.9,145.5,122.9
	C145.5,123,145.5,123,145.5,122.9z"/>
<path class="st3" d="M156.8,257.2c-6.2,0.1-12.3,0.4-18.5,0.5c-1.9-4.8-3.8-10.6-5.3-17.3c-2-8.7-2.8-16.5-3.1-22.7
	c11.2-0.4,22.5-0.8,33.7-1.1C162.5,230.5,160.7,244.4,156.8,257.2z"/>
<path class="st0" d="M157.3,261c-6.9,3.1-13.7,3.2-20.6,0.3c-0.9-3.1-1.7-6.2-2.6-9.4c2.3,0.5,4.8,0.9,7.5,1.2
	c6.9,0.7,12.9,0.2,17.7-0.7C158.6,255.3,157.9,258.2,157.3,261z"/>
</svg>
