<?xml version="1.0" encoding="utf-8"?>
<!-- Generator: Adobe Illustrator 25.1.0, SVG Export Plug-In . SVG Version: 6.00 Build 0)  -->
<svg version="1.1" id="Layer_1" xmlns="http://www.w3.org/2000/svg" xmlns:xlink="http://www.w3.org/1999/xlink" x="0px" y="0px"
	 viewBox="0 0 595.3 487.1" style="enable-background:new 0 0 595.3 487.1;" xml:space="preserve">
<style type="text/css">
	.st0{fill:#59595B;}
	.st1{fill:#4C4C4D;}
	.st2{fill:#6D6E71;}
	.st3{fill:#80B7B8;}
</style>
<path class="st0" d="M316.6,285.7c10.6-3.3,73.4-24.3,105.9-91.5c32.5-67.3,9.8-129.7,5.9-140c-75.3-12.2-151.9-13.1-230-1.1
	c-3.5,8.7-31.3,81,10.1,152.2C244.1,266.6,305.3,282.9,316.6,285.7z"/>
<path class="st1" d="M311.5,289.2c88.2,10,150-20.7,155.9-55.8c4.4-26.1-22.4-52.5-36-64.3c-25.3-10.3-67.9-23.6-121.6-21.7
	c-14.2,0.5-61,3.2-115.1,28.1c-34.3,15.8-69.4,32-68.9,49.5C126.3,241.4,157.8,264.4,311.5,289.2z"/>
<path class="st2" d="M333.5,434.8H293c-1.9,0-3.4-1.5-3.4-3.4V289.6c0-1.9,1.5-3.4,3.4-3.4h40.5c1.9,0,3.4,1.5,3.4,3.4v141.8
	C336.8,433.3,335.3,434.8,333.5,434.8z"/>
<path class="st2" d="M200,351.7c2.1,1.3,4.9,0.3,5.8-2c4-10.2,14.1-30,36.4-44.2c28.5-18.2,57.4-14.5,64.6-13.4
	c-93.5-55.4-133.6-133.4-108.4-238.9c-17.6,7.6-46.6,22.8-73.9,51.7c-22.9,24.3-35.9,49-43.3,66.3c-1.4,3.3-1.8,7-1.1,10.5
	c5,25.8,18,71.3,54.2,114.6C157.1,323.5,181.6,341,200,351.7z"/>
<path class="st2" d="M426.4,351.7c-2.2,1.3-4.9,0.3-5.8-2c-4.1-10.2-14.1-30-36.4-44.2c-28.5-18.2-57.4-14.5-64.6-13.4
	c14.3-6.8,69.3-34.7,98.7-100.7c28.5-63.9,14.4-121.5,10-137.2c8.9,3.5,20.5,8.8,33,16.8c19.6,12.4,32,24.8,40.6,33.9
	c23.1,24.4,36.1,49.4,43.4,66.7c1.3,3.1,1.6,6.5,1,9.7c-5,25.7-17.8,71.5-54.3,115C469.3,323.5,444.8,340.9,426.4,351.7z"/>
<circle class="st3" cx="313.2" cy="326.6" r="15.2"/>
<circle class="st3" cx="313.2" cy="385.1" r="15.2"/>
</svg>
