<?xml version="1.0" encoding="utf-8"?>
<!-- Generator: Adobe Illustrator 25.1.0, SVG Export Plug-In . SVG Version: 6.00 Build 0)  -->
<svg version="1.1" id="Layer_1" xmlns="http://www.w3.org/2000/svg" xmlns:xlink="http://www.w3.org/1999/xlink" x="0px" y="0px"
	 viewBox="0 0 396.8 232.3" style="enable-background:new 0 0 396.8 232.3;" xml:space="preserve">
<style type="text/css">
	.st0{fill:#3E896A;}
	.st1{fill:#48A987;}
	.st2{fill:none;stroke:#F4CE7D;stroke-width:15;stroke-miterlimit:10;}
	.st3{fill:#F4CE7D;}
</style>
<rect x="27.3" y="25.5" class="st0" width="341.4" height="180.3"/>
<rect x="38.2" y="38.6" class="st1" width="319.1" height="157.2"/>
<path class="st2" d="M225.1,83.8c-50.8,0.8-50.8,70.5,0,71.4C275.9,154.3,275.9,84.6,225.1,83.8z"/>
<rect x="225.1" y="68.3" class="st1" width="53.3" height="101.5"/>
<rect x="171.6" y="108.5" class="st3" width="50" height="7.1"/>
<path class="st0" d="M56,202.1c0,1.2-0.1,2.5-0.3,3.7H27.3v-26.1c1.8-0.4,3.6-0.7,5.5-0.7C45.6,179,56,189.4,56,202.1z"/>
<path class="st0" d="M31,54.2c-1.2,0-2.5-0.1-3.7-0.3V25.5h26.1c0.4,1.8,0.7,3.6,0.7,5.5C54.1,43.8,43.8,54.2,31,54.2z"/>
<path class="st0" d="M339.4,30.1c0-1.2,0.1-2.5,0.3-3.7l28.4,0v26.1c-1.8,0.4-3.6,0.7-5.5,0.7C349.7,53.3,339.4,42.9,339.4,30.1z"/>
<path class="st0" d="M363.4,174.3c1.2,0,2.5,0.1,3.7,0.3v28.4H341c-0.4-1.8-0.7-3.6-0.7-5.5C340.3,184.6,350.7,174.3,363.4,174.3z"
	/>
<rect x="171.6" y="122.9" class="st3" width="50" height="7.1"/>
<path class="st0" d="M70.5,200.3c0,1.9-0.2,3.7-0.4,5.5H27.3v-39.4c2.7-0.7,5.5-1,8.3-1C54.9,165.4,70.5,181,70.5,200.3z"/>
<path class="st0" d="M32.8,68.7c-1.9,0-3.7-0.2-5.5-0.4V25.5h39.4c0.7,2.7,1,5.5,1,8.3C67.7,53.1,52.1,68.7,32.8,68.7z"/>
<path class="st0" d="M325.5,32c0-1.9,0.2-3.7,0.4-5.5l42.8,0l0,39.4c-2.7,0.7-5.5,1-8.3,1C341.1,66.9,325.5,51.3,325.5,32z"/>
<path class="st0" d="M363.2,162.1c1.9,0,3.7,0.2,5.5,0.4l0,42.8l-39.4,0c-0.7-2.7-1-5.5-1-8.3C328.3,177.7,343.9,162.1,363.2,162.1z
	"/>
</svg>
