<?xml version="1.0" encoding="utf-8"?>
<!-- Generator: Adobe Illustrator 25.1.0, SVG Export Plug-In . SVG Version: 6.00 Build 0)  -->
<svg version="1.1" id="Layer_1" xmlns="http://www.w3.org/2000/svg" xmlns:xlink="http://www.w3.org/1999/xlink" x="0px" y="0px"
	 viewBox="0 0 346.7 308.5" style="enable-background:new 0 0 346.7 308.5;" xml:space="preserve">
<style type="text/css">
	.st0{fill:#8C8C8C;}
	.st1{fill:#FCF3E7;}
	.st2{fill:#242424;}
</style>
<g>
	<path class="st0" d="M247.4,265.9H104.8c-19.8,0-36-16.2-36-36V101.3c0-19.8,16.2-36,36-36h142.6c19.8,0,36,16.2,36,36v128.6
		C283.4,249.7,267.2,265.9,247.4,265.9z"/>
	<path class="st1" d="M247.4,252.7H104.8c-19.8,0-36-16.2-36-36V90c0-20.9,17.1-38,38-38h140.6c19.8,0,36,16.2,36,36v128.6
		C283.4,236.5,267.2,252.7,247.4,252.7z"/>
	<path class="st2" d="M214.8,171.2c-11,11.9-22.1,23.8-33.1,35.7c-4,4.3-0.9,11.3,5.1,11.3l66.3,0.3c6,0,9.2-7,5.1-11.3l-33.2-36
		C222.3,168.3,217.6,168.3,214.8,171.2z"/>
	<path class="st2" d="M156.8,149.2c-20.2,19.7-40.3,39.4-60.5,59.1c-4.4,4.3-1.2,11.7,5,11.6c37.9-0.5,75.7-1,113.6-1.5
		c5.9-0.1,9-7,5-11.3c-17.7-19.2-35.4-38.4-53.1-57.6C164.1,146.6,159.6,146.5,156.8,149.2z"/>
	<ellipse class="st2" cx="230.9" cy="96.8" rx="26.4" ry="26"/>
</g>
</svg>
