<?xml version="1.0" encoding="utf-8"?>
<!-- Generator: Adobe Illustrator 25.1.0, SVG Export Plug-In . SVG Version: 6.00 Build 0)  -->
<svg version="1.1" id="Layer_1" xmlns="http://www.w3.org/2000/svg" xmlns:xlink="http://www.w3.org/1999/xlink" x="0px" y="0px"
	 viewBox="0 0 346.7 308.5" style="enable-background:new 0 0 346.7 308.5;" xml:space="preserve">
<style type="text/css">
	.st0{fill:#8C8C8C;}
	.st1{fill:#FCF3E7;}
	.st2{fill:#242424;}
</style>
<path class="st0" d="M281.8,223.8h-72.2c-14.4,0-26.1-11.8-26.1-26.1v-65.9c0-14.4,11.8-26.1,26.1-26.1h72.2
	c14.4,0,26.1,11.8,26.1,26.1v65.9C307.9,212,296.2,223.8,281.8,223.8z"/>
<path class="st0" d="M137.1,223.8H64.9c-14.4,0-26.1-11.8-26.1-26.1v-65.9c0-14.4,11.8-26.1,26.1-26.1h72.2
	c14.4,0,26.1,11.8,26.1,26.1v65.9C163.2,212,151.4,223.8,137.1,223.8z"/>
<path class="st1" d="M137.1,213.3H64.9c-14.4,0-26.1-11.8-26.1-26.1v-65.9c0-14.4,11.8-26.1,26.1-26.1h72.2
	c14.4,0,26.1,11.8,26.1,26.1v65.9C163.2,201.6,151.4,213.3,137.1,213.3z"/>
<path class="st1" d="M281.8,213.9h-72.2c-14.4,0-26.1-11.8-26.1-26.1v-65.9c0-14.4,11.8-26.1,26.1-26.1h72.2
	c14.4,0,26.1,11.8,26.1,26.1v65.9C307.9,202.1,296.2,213.9,281.8,213.9z"/>
<path class="st2" d="M267.1,162.4c-6.1,6.7-12.2,13.3-18.3,20c-2.6,2.8-0.6,7.4,3.2,7.4l36.5,0.2c3.8,0,5.9-4.5,3.3-7.4l-18.3-20.1
	C271.9,160.4,268.8,160.4,267.1,162.4z"/>
<path class="st2" d="M233.5,149.4c-11.3,11.3-22.7,22.5-34,33.8c-2.8,2.8-0.8,7.6,3.2,7.5c21.3-0.3,42.6-0.6,63.8-0.9
	c3.8-0.1,5.8-4.6,3.2-7.4c-10-11-19.9-21.9-29.9-32.9C238.1,147.7,235.2,147.6,233.5,149.4z"/>
<circle class="st2" cx="277.7" cy="125.6" r="15.3"/>
<path class="st2" d="M122.5,162.8c-6.1,6.7-12.2,13.3-18.3,20c-2.6,2.8-0.6,7.4,3.2,7.4l36.5,0.2c3.8,0,5.9-4.5,3.3-7.4L129,162.8
	C127.3,160.9,124.2,160.9,122.5,162.8z"/>
<path class="st2" d="M88.8,149.8c-11.3,11.3-22.7,22.5-34,33.8c-2.8,2.8-0.8,7.6,3.2,7.5c21.3-0.3,42.6-0.6,63.8-0.9
	c3.8-0.1,5.8-4.6,3.2-7.4c-10-11-19.9-21.9-29.9-32.9C93.5,148.1,90.6,148,88.8,149.8z"/>
<circle class="st2" cx="133.1" cy="126.1" r="15.3"/>
</svg>
