<?xml version="1.0" encoding="utf-8"?>
<!-- Generator: Adobe Illustrator 25.1.0, SVG Export Plug-In . SVG Version: 6.00 Build 0)  -->
<svg version="1.1" id="Layer_1" xmlns="http://www.w3.org/2000/svg" xmlns:xlink="http://www.w3.org/1999/xlink" x="0px" y="0px"
	 viewBox="0 0 489.9 512.5" style="enable-background:new 0 0 489.9 512.5;" xml:space="preserve">
<style type="text/css">
	.st0{fill:#4C4C4D;}
	.st1{fill:#727373;}
	.st2{fill:#1C75BC;}
</style>
<path class="st0" d="M439.9,160.4c-4.3-3.9-8.7-7.9-13-11.8c-8.2-10.9-19.8-19.1-33.3-23.5c-4-34.5-32.5-61.2-67-61.2
	c-12.9,0-25,3.7-35.2,10.2c-10.3-14.7-27.7-24.4-47.5-24.4c-31.6,0-57.2,24.7-57.2,55.1c0,5.3,0.8,10.4,2.2,15.2
	c-20.9,11.6-34.7,31.7-34.7,54.5c0,7.3,1.4,14.3,4,20.9c-1.4-2.2-3-4.4-4.8-6.5c-1.4-1.6-3-3.2-4.6-4.7c-1.1-1-2.2-1.9-3.4-2.8
	c-2.6-1.9-5.3-3.6-8.1-5.1c-8.4-4.3-17.6-6.3-26.6-6v-4.5c-14.4,0.3-28.9,0.5-43.3,0.8c-0.1,13.1-0.2,26.2-0.3,39.3
	c-1.8,11.4,1.4,23.6,9.3,33.8c1.9,2.5,4.1,4.8,6.5,7c14.4,12.8,34.2,16.8,51.1,11.9c8.2,19.8,32.9,34.2,62.2,34.2
	c21,0,39.7-7.4,51.6-18.9c12.3,9,27.8,14.3,44.8,14.3c28.6,0,53.2-15.2,64.8-37.2c4.9,1.1,10,1.7,15.3,1.7
	c36.7,0,66.5-28.4,67.4-63.7h0C440,179.4,439.9,169.9,439.9,160.4z"/>
<g>
	<ellipse class="st1" cx="299.2" cy="184.9" rx="64.5" ry="65.3"/>
	<path class="st1" d="M440,157.6c0,0.9,0,1.9-0.1,2.8c0,0,0,0,0,0c-0.1,1.1-0.2,2.3-0.3,3.4c-1.5,13.2-7.8,25.1-17.4,34.7
		c-13.5,13.5-33.6,22-56.1,22c-2.6,0-5.1-0.1-7.6-0.3c-0.3,0-0.7-0.1-1-0.1c-7.2-0.7-14.2-2.3-20.6-4.7c-5.2-1.9-10.1-4.3-14.6-7.2
		c-3.1-1.9-6-4.1-8.7-6.4c-3.7-3.2-7-6.7-9.8-10.5c-1.7-2.3-3.2-4.6-4.6-7.1c-0.3-0.6-0.7-1.2-1-1.9c-0.5-0.9-0.9-1.8-1.3-2.7
		c0,0,0,0,0,0c-2-4.5-3.4-9.3-4.1-14.2c-0.1-0.8-0.2-1.6-0.3-2.4c-0.1-0.9-0.2-1.7-0.2-2.6c0,0,0,0,0,0c-0.1-0.9-0.1-1.9-0.1-2.8
		c0-0.5,0-0.9,0-1.4c0-2.1,0.2-4.1,0.5-6.2c0-0.3,0.1-0.7,0.2-1c0.1-0.8,0.3-1.7,0.5-2.5c0.4-2,1-4,1.6-5.9
		c1.6-4.8,3.8-9.3,6.5-13.5c1.1-1.7,2.3-3.4,3.6-5c0.3-0.4,0.6-0.7,0.9-1.1c0.8-1,1.7-1.9,2.5-2.8c6.7-7.1,15.2-12.9,24.9-17
		c5.2-2.2,10.8-3.9,16.6-5c0,0,0,0,0,0c5.2-1,10.5-1.5,16-1.5c3.7,0,7.3,0.2,10.8,0.7c0,0,0,0,0,0c0.5,0.1,0.9,0.1,1.3,0.2
		c1.9,0.3,3.7,0.6,5.6,1c2.2,0.5,4.4,1,6.5,1.6c3.6,1.1,7,2.3,10.3,3.8c6.9,3.1,13.2,7.2,18.6,11.9c4.5,4,8.4,8.4,11.5,13.3
		C436.7,136.3,440,146.6,440,157.6z"/>
	<path class="st1" d="M394.8,106.6c0,1.1,0,2.2-0.1,3.2c-0.1,1.8-0.2,3.6-0.5,5.4c-0.9,7.6-3.1,14.8-6.3,21.5
		c-0.8,1.7-1.7,3.3-2.6,4.9c-1.2,2.1-2.5,4-3.9,5.9c-7.7,10.6-18.2,18.9-30.5,23.8c-0.2,0.1-0.4,0.1-0.6,0.2
		c-4.2,1.6-8.6,2.9-13.2,3.6c-3.2,0.6-6.5,0.9-9.9,1c-0.6,0-1.2,0-1.9,0c-7.6,0-14.9-1.2-21.7-3.5c-1.1-0.3-2.1-0.7-3.2-1.1
		c-0.5-0.2-1-0.4-1.5-0.6c-4.4-1.8-8.6-4.1-12.4-6.7c-0.1-0.1-0.3-0.2-0.4-0.3c-0.8-0.6-1.6-1.1-2.4-1.7c-0.1-0.1-0.2-0.1-0.2-0.2
		c-0.4-0.3-0.7-0.5-1.1-0.8c-2.7-2.1-5.2-4.4-7.5-6.9c-0.8-0.9-1.7-1.8-2.4-2.7c-2.8-3.3-5.3-6.8-7.4-10.6c-2-3.5-3.7-7.3-5.1-11.2
		c0,0,0,0,0,0c-0.7-1.8-1.2-3.7-1.7-5.5c-0.6-2.2-1-4.4-1.4-6.6c-0.4-2.3-0.6-4.6-0.8-7c-0.1-1.4-0.1-2.7-0.1-4.1
		c0-3,0.2-5.9,0.6-8.8c0.3-2.7,0.8-5.4,1.5-8c1.2-4.7,2.8-9.3,4.9-13.6c1.7-3.5,3.6-6.8,5.8-9.9c2.1-3,4.5-5.8,7-8.4
		c1.2-1.3,2.5-2.5,3.8-3.6c2.9-2.6,6.1-5,9.5-7c10.5-6.5,22.9-10.2,36.1-10.2C363.8,37,394.8,68.1,394.8,106.6z"/>
	<path class="st1" d="M309.8,74.1c0,0.9,0,1.9-0.1,2.8c-0.2,3.3-0.7,6.5-1.4,9.7c-0.3,1.1-0.6,2.1-0.9,3.1c-0.8,2.6-1.8,5.1-3,7.6
		c-1.2,2.5-2.6,4.8-4.2,7.1c-2.1,3-4.5,5.8-7.2,8.3c-3,2.8-6.2,5.3-9.8,7.5c-0.5,0.3-0.9,0.6-1.4,0.8c-1.9,1.1-3.8,2.1-5.8,2.9
		c-1.7,0.8-3.5,1.5-5.4,2.1c-2.1,0.7-4.2,1.3-6.4,1.8c-3.7,0.8-7.4,1.3-11.3,1.4c-0.6,0-1.2,0-1.8,0c-1.3,0-2.5,0-3.8-0.1
		c-1.5-0.1-3-0.2-4.5-0.4c-0.7-0.1-1.3-0.2-2-0.3c-1.4-0.2-2.9-0.5-4.3-0.9c-2.1-0.5-4.1-1.1-6.1-1.8c-2.4-0.8-4.7-1.8-6.9-2.9
		c-3.6-1.8-7-4-10.1-6.4c-0.1,0-0.1-0.1-0.2-0.1c-2.8-2.2-5.3-4.6-7.6-7.2c-3.8-4.3-6.9-9.2-9.1-14.5c-0.1-0.3-0.2-0.6-0.4-0.8
		c0-0.1-0.1-0.2-0.1-0.2c-0.2-0.4-0.3-0.8-0.5-1.2c-0.3-0.9-0.6-1.7-0.9-2.6c-0.9-2.7-1.5-5.5-1.9-8.4c-0.2-1.4-0.3-2.8-0.4-4.2
		c-0.1-1-0.1-2-0.1-2.9c0-0.6,0-1.2,0-1.8c0.2-6.2,1.5-12.1,3.7-17.5c0.2-0.5,0.4-1,0.6-1.4c0.5-1.2,1.1-2.5,1.8-3.6
		c5.6-10.6,14.7-19.2,25.9-24.6c8-3.9,17.1-6,26.7-6c20.3,0,38.2,9.7,48.7,24.4c0.8,1.2,1.6,2.4,2.4,3.6c4.4,7.3,7.1,15.6,7.5,24.4
		C309.7,72.3,309.8,73.2,309.8,74.1z"/>
	<ellipse class="st1" cx="366.2" cy="163.2" rx="73.8" ry="62.8"/>
	
		<ellipse transform="matrix(0.4849 -0.8746 0.8746 0.4849 114.7641 343.1058)" class="st1" cx="348.7" cy="74.1" rx="19.7" ry="36.2"/>
	<path class="st1" d="M256.3,118.6c-0.2,1.3-0.5,2.5-0.8,3.7c-0.4,1.8-1,3.5-1.6,5.2c0,0.2-0.1,0.3-0.2,0.4c-0.4,1-0.8,2-1.2,3
		c-2.4,5.7-5.7,11-9.7,15.8c-0.9,1.1-1.9,2.2-2.9,3.2c-10.2,10.7-24.3,18.3-40.7,20.8c-0.1,0-0.3,0-0.4,0.1c-1.5,0.2-3,0.4-4.5,0.5
		c-3.3,0.3-6.6,0.3-9.9,0.2c-0.7,0-1.5-0.1-2.2-0.1c-2.5-0.2-5.1-0.5-7.5-1c-13.5-2.4-25.9-8.5-35.6-17.3
		c-8.2-7.4-14.5-16.8-17.9-27.5c-0.2-0.7-0.4-1.3-0.6-2c-0.2-0.8-0.4-1.6-0.6-2.4c-0.3-1.1-0.5-2.3-0.7-3.4
		c-6.3-35,19.3-68,57.1-73.8c16.1-2.4,31.8,0.4,45,7.2c5.6,2.9,10.8,6.4,15.3,10.6c4.2,3.8,7.9,8.2,11,13c4.2,6.6,7.3,14.1,8.7,22.1
		c0.7,4,1,7.9,1,11.7C257.3,112.1,256.9,115.4,256.3,118.6z"/>
	<path class="st1" d="M164.4,239c-2.7-2.2-5.1-4.6-7.3-7.2c-1.1-1.4-2.2-2.8-3.2-4.2c-2.4-3.6-4.3-7.4-5.6-11.4
		c-1.2-3.4-1.9-7-2.3-10.7c-0.3-3.4-0.2-6.9,0.3-10.4c0-0.3,0.1-0.7,0.2-1c0.2-1.6,0.6-3.2,1-4.7l0,0c6.8-26.2,35.1-44.7,65.9-42.3
		c4,0.3,7.9,1,11.6,1.9c23.4,6.1,39.9,24.4,41.4,46c0.1,0.8,0.1,1.6,0.1,2.3c0,0.6,0,1.3,0,1.9c0,1.7-0.2,3.5-0.4,5.3
		c-3.3,24-24.3,42.8-50.1,47.2c-3.8,0.6-7.6,1-11.6,1c-1.8,0-3.6-0.1-5.4-0.2c-2.7-0.2-5.4-0.6-8-1.1c-7.7-1.6-14.7-4.4-20.8-8.2
		C168.2,241.9,166.3,240.5,164.4,239z"/>
	<path class="st1" d="M288.2,118.8c-0.1,1.1-0.3,2.2-0.5,3.3c-0.3,1.6-0.6,3.1-1.1,4.7c0,0.1-0.1,0.3-0.1,0.4
		c-0.3,0.9-0.5,1.8-0.8,2.7c-1.7,5.1-4.1,9.9-7.1,14.3c-0.7,1-1.4,2-2.2,3c-7.7,9.9-18.7,17.2-31.7,20.1c-0.1,0-0.2,0-0.3,0.1
		c-1.2,0.3-2.4,0.5-3.6,0.7c-2.7,0.4-5.3,0.6-7.9,0.6c-0.6,0-1.2,0-1.8,0c-2-0.1-4.1-0.2-6.1-0.5c-10.9-1.6-21.1-6.5-29.2-13.9
		c-6.9-6.2-12.3-14.3-15.5-23.6c-0.2-0.6-0.4-1.2-0.6-1.8c-0.2-0.7-0.4-1.4-0.6-2.1c-0.3-1-0.5-2-0.7-3C172,93,191,62.7,221.1,56
		c12.8-2.8,25.4-0.9,36.3,4.5c4.6,2.3,8.9,5.3,12.7,8.8c3.5,3.2,6.7,6.9,9.3,11c3.7,5.7,6.4,12.2,7.9,19.2c0.7,3.5,1.2,6.9,1.3,10.4
		C288.7,112.9,288.6,115.9,288.2,118.8z"/>
	<path class="st1" d="M178.2,162.8c0.2,1.1,0.3,2.3,0.4,3.4c0.2,1.6,0.3,3.2,0.3,4.8c0,0.1,0,0.3,0,0.4c0,0.9,0,1.9,0,2.8
		c-0.2,5.4-1.2,10.7-2.8,15.8c-0.4,1.2-0.8,2.3-1.3,3.4c-4.7,11.5-13.2,21.3-24.8,27.3c-0.1,0.1-0.2,0.1-0.3,0.1
		c-1.1,0.5-2.2,1-3.3,1.5c-2.4,1-4.9,1.8-7.4,2.5c-0.6,0.1-1.1,0.3-1.7,0.4c-2,0.4-4,0.7-6,0.9c-10.9,1.1-22-1.3-31.8-6.6
		c-8.3-4.5-15.7-11-21.3-19.4c-0.4-0.5-0.7-1.1-1-1.6c-0.4-0.6-0.8-1.3-1.1-1.9c-0.5-0.9-1-1.8-1.5-2.8
		c-14.7-28.5-4.8-62.8,22.2-76.5c11.4-5.8,24.1-7,36-4.3c5.1,1.2,10,3,14.6,5.5c4.3,2.3,8.3,5.2,11.9,8.6
		c5.1,4.7,9.5,10.4,12.9,16.9c1.7,3.2,3,6.5,4.1,9.8C177,156.9,177.7,159.9,178.2,162.8z"/>
</g>
<g>
	<path class="st2" d="M82,329.2l-1.1-0.1c-1.7-0.2-3-1.7-2.8-3.4l2.5-24.6c0.2-1.7,1.7-3,3.4-2.8l1.1,0.1c1.7,0.2,3,1.7,2.8,3.4
		l-2.5,24.6C85.2,328.1,83.7,329.3,82,329.2z"/>
	<path class="st2" d="M68.7,460.9l-1-0.1c-1.7-0.2-2.9-1.7-2.8-3.4l1.7-16.8c0.2-1.7,1.7-2.9,3.4-2.8l1,0.1c1.7,0.2,2.9,1.7,2.8,3.4
		l-1.7,16.8C71.9,459.9,70.4,461.1,68.7,460.9z"/>
	<path class="st2" d="M76.5,382.2l-1-0.1c-1.7-0.2-2.9-1.7-2.8-3.4l2.5-24.7c0.2-1.7,1.7-2.9,3.4-2.8l1,0.1c1.7,0.2,2.9,1.7,2.8,3.4
		l-2.5,24.7C79.7,381.2,78.2,382.4,76.5,382.2z"/>
	<path class="st2" d="M103.8,401.1l-1-0.1c-1.7-0.2-2.9-1.7-2.8-3.4l1.7-16.8c0.2-1.7,1.7-2.9,3.4-2.8l1,0.1
		c1.7,0.2,2.9,1.7,2.8,3.4l-1.7,16.8C107,400,105.5,401.2,103.8,401.1z"/>
	<path class="st2" d="M98.6,450.6l-1-0.1c-1.7-0.2-2.9-1.7-2.8-3.4l2.5-24.7c0.2-1.7,1.7-2.9,3.4-2.8l1,0.1c1.7,0.2,2.9,1.7,2.8,3.4
		l-2.5,24.7C101.8,449.6,100.3,450.8,98.6,450.6z"/>
	<path class="st2" d="M130.4,466.4l-1-0.1c-1.7-0.2-2.9-1.7-2.8-3.4l1.7-16.8c0.2-1.7,1.7-2.9,3.4-2.8l1,0.1
		c1.7,0.2,2.9,1.7,2.8,3.4l-1.7,16.8C133.6,465.3,132.1,466.5,130.4,466.4z"/>
	<path class="st2" d="M72.4,425.1l-1-0.1c-1.7-0.2-2.9-1.7-2.8-3.4l1.7-16.8c0.2-1.7,1.7-2.9,3.4-2.8l1,0.1c1.7,0.2,2.9,1.7,2.8,3.4
		l-1.7,16.8C75.6,424,74.1,425.3,72.4,425.1z"/>
	<path class="st2" d="M143.6,335.6l-1-0.1c-1.7-0.2-2.9-1.7-2.8-3.4l2.5-24.7c0.2-1.7,1.7-2.9,3.4-2.8l1,0.1
		c1.7,0.2,2.9,1.7,2.8,3.4l-2.5,24.7C146.8,334.6,145.3,335.8,143.6,335.6z"/>
	<path class="st2" d="M170.8,368.9l-1-0.1c-1.7-0.2-2.9-1.7-2.8-3.4l1.7-16.8c0.2-1.7,1.7-2.9,3.4-2.8l1,0.1
		c1.7,0.2,2.9,1.7,2.8,3.4l-1.7,16.8C174,367.9,172.5,369.1,170.8,368.9z"/>
	<path class="st2" d="M137,389l-1.4-0.1c-1.7-0.2-3-1.7-2.8-3.4l2.5-24.6c0.2-1.7,1.7-3,3.4-2.8l1.4,0.1c1.7,0.2,3,1.7,2.8,3.4
		l-2.5,24.6C140.3,387.9,138.7,389.1,137,389z"/>
	<path class="st2" d="M164.8,422l-1-0.1c-1.7-0.2-2.9-1.7-2.8-3.4l1.7-16.8c0.2-1.7,1.7-2.9,3.4-2.8l1,0.1c1.7,0.2,2.9,1.7,2.8,3.4
		l-1.7,16.8C168,420.9,166.5,422.1,164.8,422z"/>
	<path class="st2" d="M159.8,471.2l-1-0.1c-1.7-0.2-2.9-1.7-2.8-3.4l2.5-24.7c0.2-1.7,1.7-2.9,3.4-2.8l1,0.1
		c1.7,0.2,2.9,1.7,2.8,3.4l-2.5,24.7C163,470.2,161.5,471.4,159.8,471.2z"/>
	<path class="st2" d="M191,470.3l-1-0.1c-1.7-0.2-2.9-1.7-2.8-3.4l1.7-16.8c0.2-1.7,1.7-2.9,3.4-2.8l1,0.1c1.7,0.2,2.9,1.7,2.8,3.4
		l-1.7,16.8C194.2,469.2,192.7,470.4,191,470.3z"/>
	<path class="st2" d="M133.8,433l-1-0.1c-1.7-0.2-2.9-1.7-2.8-3.4l1.7-16.8c0.2-1.7,1.7-2.9,3.4-2.8l1,0.1c1.7,0.2,2.9,1.7,2.8,3.4
		l-1.7,16.8C137,431.9,135.5,433.2,133.8,433z"/>
	<path class="st2" d="M226,395l-1-0.1c-1.7-0.2-2.9-1.7-2.8-3.4l1.7-16.8c0.2-1.7,1.7-2.9,3.4-2.8l1,0.1c1.7,0.2,2.9,1.7,2.8,3.4
		l-1.7,16.8C229.2,394,227.7,395.2,226,395z"/>
	<path class="st2" d="M196.7,391.2l-1-0.1c-1.7-0.2-2.9-1.7-2.8-3.4l2.5-24.7c0.2-1.7,1.7-2.9,3.4-2.8l1,0.1
		c1.7,0.2,2.9,1.7,2.8,3.4l-2.5,24.7C199.9,390.1,198.4,391.3,196.7,391.2z"/>
	<path class="st2" d="M221.6,437.6l-1-0.1c-1.7-0.2-2.9-1.7-2.8-3.4l1.7-16.8c0.2-1.7,1.7-2.9,3.4-2.8l1,0.1
		c1.7,0.2,2.9,1.7,2.8,3.4l-1.7,16.8C224.8,436.6,223.3,437.8,221.6,437.6z"/>
	<path class="st2" d="M216.3,489.7l-1-0.1c-1.7-0.2-2.9-1.7-2.8-3.4l2.5-24.7c0.2-1.7,1.7-2.9,3.4-2.8l1,0.1
		c1.7,0.2,2.9,1.7,2.8,3.4l-2.5,24.7C219.5,488.7,218,489.9,216.3,489.7z"/>
	<path class="st2" d="M192.3,434.1l-1-0.1c-1.7-0.2-2.9-1.7-2.8-3.4l1.7-16.8c0.2-1.7,1.7-2.9,3.4-2.8l1,0.1
		c1.7,0.2,2.9,1.7,2.8,3.4l-1.7,16.8C195.5,433,193.9,434.2,192.3,434.1z"/>
	<path class="st2" d="M256.1,370.2l-1-0.1c-1.7-0.2-2.9-1.7-2.8-3.4l2.5-24.7c0.2-1.7,1.7-2.9,3.4-2.8l1,0.1
		c1.7,0.2,2.9,1.7,2.8,3.4l-2.5,24.7C259.3,369.1,257.8,370.3,256.1,370.2z"/>
	<path class="st2" d="M246.2,465.9l-1-0.1c-1.7-0.2-2.9-1.7-2.8-3.4l1.7-16.8c0.2-1.7,1.7-2.9,3.4-2.8l1,0.1
		c1.7,0.2,2.9,1.7,2.8,3.4l-1.7,16.8C249.5,464.9,247.9,466.1,246.2,465.9z"/>
	<path class="st2" d="M374.3,380.1l-1-0.1c-1.7-0.2-2.9-1.7-2.8-3.4l1.7-16.8c0.2-1.7,1.7-2.9,3.4-2.8l1,0.1
		c1.7,0.2,2.9,1.7,2.8,3.4l-1.7,16.8C377.5,379,376,380.3,374.3,380.1z"/>
	<path class="st2" d="M321.1,380.5l-1-0.1c-1.7-0.2-2.9-1.7-2.8-3.4l2.5-24.7c0.2-1.7,1.7-2.9,3.4-2.8l1,0.1
		c1.7,0.2,2.9,1.7,2.8,3.4l-2.5,24.7C324.3,379.4,322.8,380.7,321.1,380.5z"/>
	<path class="st2" d="M315.7,433.6l-1-0.1c-1.7-0.2-2.9-1.7-2.8-3.4l2.5-24.7c0.2-1.7,1.7-2.9,3.4-2.8l1,0.1
		c1.7,0.2,2.9,1.7,2.8,3.4l-2.5,24.7C318.9,432.5,317.4,433.8,315.7,433.6z"/>
	<path class="st2" d="M338.6,485l-1-0.1c-1.7-0.2-2.9-1.7-2.8-3.4l1.7-16.8c0.2-1.7,1.7-2.9,3.4-2.8l1,0.1c1.7,0.2,2.9,1.7,2.8,3.4
		l-1.7,16.8C341.8,484,340.3,485.2,338.6,485z"/>
	<path class="st2" d="M396.7,464.2l-1-0.1c-1.7-0.2-2.9-1.7-2.8-3.4l1.7-16.8c0.2-1.7,1.7-2.9,3.4-2.8l1,0.1
		c1.7,0.2,2.9,1.7,2.8,3.4l-1.7,16.8C399.9,463.1,398.3,464.3,396.7,464.2z"/>
	<path class="st2" d="M364.4,476.4l-1-0.1c-1.7-0.2-2.9-1.7-2.8-3.4l2.5-24.7c0.2-1.7,1.7-2.9,3.4-2.8l1,0.1
		c1.7,0.2,2.9,1.7,2.8,3.4l-2.5,24.7C367.6,475.3,366.1,476.5,364.4,476.4z"/>
	<path class="st2" d="M409.4,340.2l-1-0.1c-1.7-0.2-2.9-1.7-2.8-3.4l1.6-15.1c0.2-1.7,1.7-2.9,3.4-2.8l1,0.1
		c1.7,0.2,2.9,1.7,2.8,3.4l-1.6,15.1C412.6,339.2,411.1,340.4,409.4,340.2z"/>
	<path class="st2" d="M325.7,335.5l-1-0.1c-1.7-0.2-2.9-1.7-2.8-3.4l1.7-16.8c0.2-1.7,1.7-2.9,3.4-2.8l1,0.1
		c1.7,0.2,2.9,1.7,2.8,3.4l-1.7,16.8C329,334.5,327.4,335.7,325.7,335.5z"/>
	<path class="st2" d="M293.9,329.6l-1-0.1c-1.7-0.2-2.9-1.7-2.8-3.4l2.5-24.7c0.2-1.7,1.7-2.9,3.4-2.8l1,0.1
		c1.7,0.2,2.9,1.7,2.8,3.4l-2.5,24.7C297.1,328.6,295.6,329.8,293.9,329.6z"/>
	<path class="st2" d="M406.6,379.1l-1-0.1c-1.7-0.2-2.9-1.7-2.8-3.4l1.7-16.8c0.2-1.7,1.7-2.9,3.4-2.8l1,0.1
		c1.7,0.2,2.9,1.7,2.8,3.4l-1.7,16.8C409.8,378.1,408.3,379.3,406.6,379.1z"/>
	<path class="st2" d="M174.7,331.8l-1-0.1c-1.7-0.2-2.9-1.7-2.8-3.4l1.3-12.6c0.2-1.7,1.7-2.9,3.4-2.8l1,0.1
		c1.7,0.2,2.9,1.7,2.8,3.4l-1.3,12.6C177.9,330.8,176.4,332,174.7,331.8z"/>
	<path class="st2" d="M231.1,343.6l-1-0.1c-1.7-0.2-2.9-1.7-2.8-3.4l1.7-16.8c0.2-1.7,1.7-2.9,3.4-2.8l1,0.1
		c1.7,0.2,2.9,1.7,2.8,3.4l-1.7,16.8C234.4,342.6,232.8,343.8,231.1,343.6z"/>
	<path class="st2" d="M287.6,391.1l-1-0.1c-1.7-0.2-2.9-1.7-2.8-3.4l2.5-24.7c0.2-1.7,1.7-2.9,3.4-2.8l1,0.1
		c1.7,0.2,2.9,1.7,2.8,3.4l-2.5,24.7C290.8,390.1,289.2,391.3,287.6,391.1z"/>
	<path class="st2" d="M291.5,352.3l-1-0.1c-1.7-0.2-2.9-1.7-2.8-3.4l0.9-8.7c0.2-1.7,1.7-2.9,3.4-2.8l1,0.1c1.7,0.2,2.9,1.7,2.8,3.4
		l-0.9,8.7C294.8,351.2,293.2,352.4,291.5,352.3z"/>
	<path class="st2" d="M109.5,344.8l-1-0.1c-1.7-0.2-2.9-1.7-2.8-3.4l1.7-16.8c0.2-1.7,1.7-2.9,3.4-2.8l1,0.1
		c1.7,0.2,2.9,1.7,2.8,3.4l-1.7,16.8C112.7,343.8,111.2,345,109.5,344.8z"/>
	<path class="st2" d="M284.3,426.3l-1-0.1c-1.7-0.2-2.9-1.7-2.8-3.4l1.7-16.8c0.2-1.7,1.7-2.9,3.4-2.8l1,0.1
		c1.7,0.2,2.9,1.7,2.8,3.4l-1.7,16.8C287.6,425.3,286,426.5,284.3,426.3z"/>
	<path class="st2" d="M347.5,399.1l-1-0.1c-1.7-0.2-2.9-1.7-2.8-3.4l2.5-24.7c0.2-1.7,1.7-2.9,3.4-2.8l1,0.1
		c1.7,0.2,2.9,1.7,2.8,3.4l-2.5,24.7C350.7,398,349.2,399.3,347.5,399.1z"/>
	<path class="st2" d="M369.4,428.2l-1-0.1c-1.7-0.2-2.9-1.7-2.8-3.4l2.5-24.7c0.2-1.7,1.7-2.9,3.4-2.8l1,0.1
		c1.7,0.2,2.9,1.7,2.8,3.4l-2.5,24.7C372.6,427.2,371.1,428.4,369.4,428.2z"/>
	<path class="st2" d="M402.1,422.4l-1-0.1c-1.7-0.2-2.9-1.7-2.8-3.4l2.5-24.7c0.2-1.7,1.7-2.9,3.4-2.8l1,0.1
		c1.7,0.2,2.9,1.7,2.8,3.4l-2.5,24.7C405.3,421.4,403.8,422.6,402.1,422.4z"/>
	<path class="st2" d="M378.4,340.5l-1-0.1c-1.7-0.2-2.9-1.7-2.8-3.4l2-19.4c0.2-1.7,1.7-2.9,3.4-2.8l1,0.1c1.7,0.2,2.9,1.7,2.8,3.4
		l-2,19.4C381.6,339.5,380.1,340.7,378.4,340.5z"/>
	<path class="st2" d="M311.9,470.6l-1-0.1c-1.7-0.2-2.9-1.7-2.8-3.4l1.7-16.8c0.2-1.7,1.7-2.9,3.4-2.8l1,0.1
		c1.7,0.2,2.9,1.7,2.8,3.4l-1.7,16.8C315.1,469.5,313.6,470.8,311.9,470.6z"/>
	<path class="st2" d="M280.8,461.3l-1-0.1c-1.7-0.2-2.9-1.7-2.8-3.4l1.7-16.8c0.2-1.7,1.7-2.9,3.4-2.8l1,0.1
		c1.7,0.2,2.9,1.7,2.8,3.4l-1.7,16.8C284,460.2,282.4,461.5,280.8,461.3z"/>
	<path class="st2" d="M250.9,420.2l-1-0.1c-1.7-0.2-2.9-1.7-2.8-3.4l2.5-24.7c0.2-1.7,1.7-2.9,3.4-2.8l1,0.1
		c1.7,0.2,2.9,1.7,2.8,3.4l-2.5,24.7C254.2,419.1,252.6,420.3,250.9,420.2z"/>
	<path class="st2" d="M113.3,308.7l-1.1-0.1c-1.7-0.2-3-1.7-2.8-3.4l2.1-20.7c0.2-1.7,1.7-3,3.4-2.8l1.1,0.1c1.7,0.2,3,1.7,2.8,3.4
		l-2.1,20.7C116.5,307.6,115,308.9,113.3,308.7z"/>
	<path class="st2" d="M201.5,344.5l-1.1-0.1c-1.7-0.2-3-1.7-2.8-3.4l2.5-24.6c0.2-1.7,1.7-3,3.4-2.8l1.1,0.1c1.7,0.2,3,1.7,2.8,3.4
		l-2.5,24.6C204.8,343.4,203.2,344.6,201.5,344.5z"/>
	<path class="st2" d="M260.6,327.2l-1.1-0.1c-1.7-0.2-3-1.7-2.8-3.4l1.2-11.5c0.2-1.7,1.7-3,3.4-2.8l1.1,0.1c1.7,0.2,3,1.7,2.8,3.4
		l-1.2,11.5C263.8,326.1,262.3,327.3,260.6,327.2z"/>
	<path class="st2" d="M413.2,303l-1-0.1c-1.7-0.2-2.9-1.7-2.8-3.4l1.7-16.8c0.2-1.7,1.7-2.9,3.4-2.8l1,0.1c1.7,0.2,2.9,1.7,2.8,3.4
		l-1.7,16.8C416.4,301.9,414.9,303.1,413.2,303z"/>
	<path class="st2" d="M351.5,360l-1-0.1c-1.7-0.2-2.9-1.7-2.8-3.4l2.5-24.7c0.2-1.7,1.7-2.9,3.4-2.8l1,0.1c1.7,0.2,2.9,1.7,2.8,3.4
		l-2.5,24.7C354.7,358.9,353.2,360.1,351.5,360z"/>
	<path class="st2" d="M343,442.1l-1-0.1c-1.7-0.2-2.9-1.7-2.8-3.4l1.7-16.8c0.2-1.7,1.7-2.9,3.4-2.8l1,0.1c1.7,0.2,2.9,1.7,2.8,3.4
		l-1.7,16.8C346.3,441,344.7,442.2,343,442.1z"/>
</g>
</svg>
