<?xml version="1.0" encoding="utf-8"?>
<!-- Generator: Adobe Illustrator 25.1.0, SVG Export Plug-In . SVG Version: 6.00 Build 0)  -->
<svg version="1.1" id="Layer_1" xmlns="http://www.w3.org/2000/svg" xmlns:xlink="http://www.w3.org/1999/xlink" x="0px" y="0px"
	 viewBox="0 0 595.3 841.9" style="enable-background:new 0 0 595.3 841.9;" xml:space="preserve">
<style type="text/css">
	.st0{fill:#065129;}
	.st1{fill:#317745;}
	.st2{fill:#3E965A;}
	.st3{fill:#922A3C;}
	.st4{fill:#CC3E48;}
</style>
<g>
	<path class="st0" d="M306.5,768.2c-9.2,0-18.4,0-27.6,0c2.7-135.3,5.4-270.5,8.1-405.8c8.7,0,17.3,0,26,0
		C310.8,497.7,308.7,633,306.5,768.2z"/>
	<path class="st1" d="M404.4,470.5c0.9-5.5-5.9-8.9-9.7-4.9c-5.1,5.3-10.3,11.1-15.5,17.4c-13.7,16.6-24.1,32.8-32,47.2
		c-24.3,41.3-47.2,91.2-47.2,91.2c-9,19.7-17.3,38.2-22.2,56.3c-6.2,22.6-4.5,41.4-2.8,54.2c2.1,16.7,10.7,16.7,15.8,38.1
		c2.6,10.9,2.6,17.9,5.8,18.6c3.3,0.7,5.2-6.4,18.8-27.5c5.7-8.8,11.9-17.7,18.5-32.2c0.2-0.4,0.3-0.6,0.4-0.9
		c50.6-111.8,58.2-171.3,58.2-171.3c2.8-20.4,5.1-37.5,6.2-50.7c0-0.1,0-0.3,0-0.4C400.6,493.8,402.5,482.2,404.4,470.5z"/>
	<path class="st2" d="M269.9,605.7L269.9,605.7c-0.3-0.6-26.5-58.4-54.2-106.1c0,0,0,0,0,0c-9.2-17.6-21.8-37.9-38.9-58.8
		c-7-8.6-14.1-16.4-20.9-23.4c-3.5-3.6-9.6-0.6-8.9,4.4c4.7,31.1,9.5,62.1,14.2,93.2c0.6,4.8,1.3,9.8,1.9,15.1
		c15.3,118.2,46.2,172.1,65.9,198c0.9,1.1,4.8,6.9,11.2,13.6c4.8,5,11.5,12,19.5,17.6c0.8,0.8,1.6,1.6,2.5,2.4
		c9.4,8.6,14.6,20.9,14.5,33.7c0,5.9-0.1,11.8-0.1,17.7h31c0.5-5.9,1-11.8,1.4-17.7c1.2-14.5,1.7-30.3,0.7-47.2
		C306.5,687.3,287.1,638.5,269.9,605.7z"/>
</g>
<path class="st3" d="M382.3,207.9c20.6-22.6,29.2-56.7,23.7-89.2c-0.2-1.3,0.8-2.6,2.1-2.6l0,0c1.9,0,2.8-2.4,1.5-3.8
	c-2.1-2.2-4.2-4.4-6.2-6.6c-0.3-0.3-0.5-0.7-0.7-1.1c-1.3-4.3-2.9-8.5-4.7-12.7c-0.1-0.2-0.1-0.3-0.2-0.4c-2.3-3.6-4.8-7.2-7.5-10.9
	c-12.9-17.3-27.4-30.3-40.9-39.9c-3.7-2.6-8.7-1.5-11,2.4c-1.1,1.9-2.2,3.8-3.2,5.7c0,0,0,0,0,0c-1.7-2.2-4.1-5.1-7.6-8.3
	c-2.3-2.1-5.7-2.7-8.6-1.5c-6.5,2.7-15.2,7.6-22.9,16.3c-0.7,0.8-1.3,1.6-2,2.3c-1.2,1.4-3.3,1.5-4.4,0c-5-6.7-13-14-26.5-20.1
	c-2.3-1-5-0.9-7.2,0.6c-1.2,0.8-2.4,1.7-3.7,2.7c-2.7,2.2-5,4.4-6.9,6.5c-1.3,1.4-3.5,1.1-4.5-0.5c-1-1.6-1.9-3.2-2.9-4.7
	c-2-3.1-5.9-3.7-8.7-1.3c-16.8,14.7-27.9,31.7-32.9,51.2c-0.2,0.8-0.8,1.5-1.5,1.9c-4.2,2-8.3,4.1-12.5,6.1
	c-1.5,0.8-2.1,2.7-1.2,4.2l1.8,3c0.6,1,0.6,2.2-0.1,3.2l-0.5,0.8c-0.8,1.2,0,2.8,1.3,2.9c0.3,0.1,0.5,0.2,0.8,0.4l20.8,25
	c0.2,0.2,0.3,0.5,0.2,0.8c-0.6,5-1.1,10.1-1.3,15.3c-3.2,89.8,163.3,92.1,152,95.6c-16.4,5.1-34.4-1.1-50-16c-1.6-1.6-0.9-4.4,1.2-5
	l0.1,0c0.5-0.1,0.9-0.1,1.4,0C335.1,237.5,362.7,229.5,382.3,207.9z"/>
<path class="st4" d="M281.2,270.3c0.2,0.6,0.5,1.2,0.9,1.7c5.6,7.5,13.8,15.8,24.8,19.4c23.4,7.7,50-9,68.2-42
	c0.7-1.2,0.8-2.6,0.5-4c-4.6-19.4-9.1-49-4.6-84.5c5.4-42.8,21.5-75.2,33.4-94.6c2-3.2,6.6-3.6,9-0.6c8,9.7,17.1,22.6,25.2,39
	c0,0,19.1,39.1,20.6,83.9c3.2,96.5-60.6,197.7-140.9,196.7c-71.3-0.9-130.8-82.1-137.1-173.9C175.6,130.8,260.5,200.5,281.2,270.3z"
	/>
<path class="st4" d="M224.4,164.6c12.1-39.6,28.3-57.7,36.7-65.8c5.5-5.3,12.4-10.2,12.4-10.2c2.3-1.8,4.4-3.3,6.1-4.5
	c1.8-1.3,4.1-1.4,6-0.3c5.7,3.3,12.7,8.1,19.8,15c8.4,8,24.6,26.1,36.7,65.8c17.8,58.3,24.3,145.1-8.9,193.6
	c-8,11.7-15.5,17.1-20.1,19.8c-25.1,15-52.7,3.4-61.6-1c-0.5-0.2-0.9-0.5-1.2-0.8c-2.1-1.9-9.8-9-16.8-18
	C184.3,295,217.2,188,224.4,164.6z"/>
<path class="st4" d="M178.2,69.5c2-3.2,6.5-3.5,9-0.7c3.2,3.6,6.2,7.5,9.2,11.4c48.4,64.3,50.7,142.1,46.4,191.5
	c-0.1,1.3,0.2,2.6,0.9,3.6c9.6,13.7,20.4,17.3,24.3,18.5c23.7,7.8,50.6-9.4,68.8-43.1c0.3-0.5,0.5-1.1,0.6-1.6
	c11.7-59.3,22,139.8-57.9,138.7C208.1,387,148.6,305.8,142.3,214C137.5,143,166.1,89.1,178.2,69.5z"/>
<path class="st4" d="M203.5,73c2.5-3.4,7.6-3,9.5,0.8c3.5,6.8,7.5,15.5,11.5,25.7c7.1,18.2,10.6,32.6,12.4,40.6
	c6.3,28.1,17.3,74.7,31.2,135.1c0.2,0.7,0.4,1.3,0.8,1.9c9.7,14.4,20.8,18,24.8,19.3c23.7,7.8,50.6-9.4,68.8-43.1
	c0.3-0.5,0.5-1.1,0.6-1.6c11.7-59.3,22,139.8-57.9,138.7c-47.5-0.6-127.2-82-137.1-173.9c-1.3-12.1-8-74.8,28.2-132.8
	C198.8,79.8,201.2,76.1,203.5,73z"/>
<path class="st4" d="M252.7,164.6c12.1-39.6,28.3-57.7,36.7-65.8c5.5-5.3,12.4-10.2,12.4-10.2c2.3-1.8,4.4-3.3,6.1-4.5
	c1.8-1.3,4.1-1.4,6-0.3c5.7,3.3,12.7,8.1,19.8,15c8.4,8,24.6,26.1,36.7,65.8c17.8,58.3,24.3,145.1-8.9,193.6
	c-8,11.7-15.5,17.1-20.1,19.8c-25.1,15-52.7,3.4-61.6-1c-0.5-0.2-0.9-0.5-1.2-0.8c-2.1-1.9-9.8-9-16.8-18
	C212.6,295,245.5,188,252.7,164.6z"/>
<path class="st4" d="M256.9,266.4c0.2,0.6,0.4,1.1,0.7,1.6c4.9,7.3,12.1,15.4,21.6,18.9c20.5,7.6,43.9-9,59.7-41.7
	c0.4-0.7,0.5-1.6,0.6-2.4c0.2-21.4,1.8-45.6,5.8-71.8c6-39.5,16.1-73.5,26.4-101.1c1.3-3.5,5.5-4.7,8.5-2.5
	c5.8,4.3,12.5,10.3,18.5,18.5c5.7,7.7,24.8,36.5,13.2,100.9c-2,11.2-35.9,193-122.8,191.7c-62.1-0.9-114-80-119.5-169.5
	C164.9,130.4,238.9,198.3,256.9,266.4z"/>
<ellipse class="st4" cx="300.5" cy="354.4" rx="77.2" ry="36.1"/>
<path class="st3" d="M246.1,120.9c3.1-5.8,6.3-10.7,7.4-12.2c2.5-3.7,5.1-7,7.6-9.9c-14.6-5.2-29.2-10.4-43.9-15.6
	c2.4,4.3,4.9,9.3,7.2,15c1.7,4.2,4.2,10.8,6.2,19c4.3,17.3,3.4,27.6,5.4,27.7C238,145.2,238.5,135.4,246.1,120.9z"/>
<path class="st3" d="M344.1,118.6c-2.4-5.7-4.5-9.5-6.1-12.1c-3-4.9-6.1-8.7-8.4-11.4c12.3-3.7,24.7-7.3,37-11
	c-1.2,3.4-2.8,7.7-4.4,12.9c-2.7,8.6-4.2,15.3-4.7,17.4c-4.1,17.9-3.7,27.6-5.4,27.7C350.5,142.2,350.2,133.3,344.1,118.6z"/>
</svg>
