<?xml version="1.0" encoding="utf-8"?>
<!-- Generator: Adobe Illustrator 25.1.0, SVG Export Plug-In . SVG Version: 6.00 Build 0)  -->
<svg version="1.1" id="Layer_1" xmlns="http://www.w3.org/2000/svg" xmlns:xlink="http://www.w3.org/1999/xlink" x="0px" y="0px"
	 viewBox="0 0 359 297" style="enable-background:new 0 0 359 297;" xml:space="preserve">
<style type="text/css">
	.st0{fill:#3A3837;}
	.st1{fill:#F59394;}
	.st2{fill:#E2797E;}
	.st3{fill:#EAE4E4;fill-opacity:0;}
	.st4{fill:#FFFFFF;}
	.st5{fill:none;}
	.st6{fill:#56423A;}
	.st7{fill:#231F20;}
	.st8{fill:#8B394B;}
</style>
<path class="st0" d="M139.7,106.5c-0.1,0-0.3,0.1-0.4,0.1v0C139.4,106.5,139.5,106.5,139.7,106.5c0.1-0.1,0.2-0.1,0.3-0.1v0
	C139.9,106.4,139.8,106.4,139.7,106.5z"/>
<path class="st0" d="M172.8,135c0,4.8-5.2,9-12.5,11.1c-2.2,3.2-5.6,6.2-10.2,8.4c-2.6,1.3-5.4,2.2-8.2,2.8c-0.1,0-0.1,0-0.2,0
	c0,0,0,0,0,0c-0.8,0.2-1.6,0.3-2.4,0.4c-2.1,0.3-4.2,0.4-6.2,0.2c0,0-0.1,0-0.1,0c-1.5-0.1-2.9-0.2-4.3-0.5
	c-1.5-0.3-2.9-0.7-4.2-1.2c-0.9-0.3-1.7-0.7-2.5-1.2c0,0-0.1,0-0.1,0h0c-0.2-0.1-0.4-0.2-0.6-0.4c-0.2-0.1-0.5-0.3-0.7-0.4
	c-0.1-0.1-0.3-0.2-0.4-0.3c-0.1-0.1-0.2-0.2-0.4-0.3c0,0,0,0-0.1-0.1c-0.1,0-0.1-0.1-0.2-0.1c-0.8-0.7-1.6-1.4-2.2-2.2
	c-0.3-0.4-0.6-0.7-0.8-1.1c-1.4-2-2.1-4.2-2.1-6.5c0,0,0,0,0,0c0-0.6,0-1.2,0.1-1.8c0,0,0,0,0,0s0,0,0,0c0,0,0,0,0,0
	c0.2-1.5,0.7-3,1.4-4.4c0.2-0.4,0.4-0.8,0.6-1.1c1.3-2.1,3.2-4.2,5.5-6c0.4-0.3,0.9-0.7,1.4-1c1.1-0.8,2.4-1.5,3.7-2.1
	c0.5-0.2,1.1-0.5,1.6-0.7c-0.3-1.2-0.4-2.4-0.4-3.7c0-2.8,0.6-5.4,1.6-7.7c0.4-0.8,0.8-1.6,1.3-2.4c0.1-0.1,0.2-0.2,0.2-0.4
	c0.1-0.1,0.2-0.2,0.3-0.4l0.2-0.3c0,0,0.1-0.1,0.1-0.1c0.1-0.1,0.2-0.2,0.3-0.3c1.6-1.9,3.5-3.4,5.8-4.3c0,0,0.1,0,0.1,0
	c0,0,0,0,0,0c0,0-0.1,0-0.1,0.1c0.1,0.6,0.1,1.3,0.1,1.9c0,0.6,0.1,1.2,0.1,1.8c0.1-0.1,0.2-0.1,0.4-0.2c0.3-0.1,0.6-0.3,0.9-0.4
	c1.1-0.5,2.2-1,3.2-1.4c1.7-0.7,3.4-1.3,5.1-2c0.7,0.3,1.5,0.6,2.1,1c0.6,0.3,1.2,0.7,1.7,1.1c0.7,0.5,1.3,1,1.8,1.7
	c2.9,3.1,4.8,7.5,4.8,12.4v0.6C167,125.4,172.8,129.9,172.8,135z"/>
<path class="st1" d="M26.7,113.5"/>
<path class="st2" d="M68.1,170.8"/>
<path class="st2" d="M48.2,174.5"/>
<path class="st3" d="M114.3,162.7c-1,0.3-1.9,0.7-2.9,1c-7.2,2.2-13.9,2.7-19.8,2.4c1.4,7,4.8,18.4,13.7,29.6
	c17.2,21.7,41.9,25.8,48.2,26.7c-5.9-3-14.7-8.6-22.6-18.1C117.2,187.8,114.8,169.9,114.3,162.7z"/>
<path class="st1" d="M30.1,94.9"/>
<path class="st2" d="M71.5,152.2"/>
<path class="st2" d="M51.6,155.9"/>
<path class="st4" d="M124.8,135.8c0.7-0.4,1.3-0.7,1.9-1.1l0,0c0,0.1-0.1,0.3-0.1,0.4c-0.5,1.9-1.3,3.7-2.3,5.4
	c-0.1,0.1-0.2,0.2-0.2,0.4c-0.5,0.8-1.1,1.5-1.6,2.2c-0.2,0.2-0.4,0.5-0.6,0.7c-0.3,0.3-0.6,0.7-0.9,1c-1.2,1.3-2.2,1.7-2.1,2
	c0.1,0.2,0.5,0.1,0.8,0.5c0.3,0.3,0.2,0.8,0.1,1.3l0,0c0,0-0.6,0.3-1.7,0.8c-12.5,5.5-23.6,5.6-26.4,5.6c0.1-4.2,0.1-8.5,0.2-12.7
	c3.4,0.3,8.2,0.4,13.8-0.3c3-0.4,6.3-1,9.6-2.1C118.3,138.9,121.5,137.6,124.8,135.8z"/>
<path class="st4" d="M310.1,136.3c-1.1,2-2.9,4.6-5.7,6.8c-7.7,6.2-17,5.3-19.2,5c-7.6-9-10.8-14.2-9.8-15.3c0.5-0.6,2-0.2,4.6,1
	c1.3,0.7,7.4,3.7,14.8,1.6c5.4-1.6,8.6-5.1,9.8-6.6C306.4,131.4,308.3,133.8,310.1,136.3z"/>
<path class="st4" d="M253.7,250.7c-6.2,0.1-12.3,0.4-18.5,0.5c-1.9-4.6-3.8-10.3-5.3-16.9c-2-8.4-2.8-16-3.1-22.1
	c11.2-0.4,22.5-0.7,33.7-1.1C259.4,224.8,257.6,238.3,253.7,250.7z"/>
<path class="st0" d="M253.2,251.1c-2.5,0.5-5.5,0.9-8.9,1c-3.5,0.1-6.5-0.2-9-0.6c-2.7-3.5-4-8.1-5-12.8c9.4,2.3,18.3,2,26.7-0.9
	c-0.2,2-0.5,4.4-1.4,7.1C254.9,247.3,254.1,249.4,253.2,251.1z"/>
<path class="st0" d="M344.8,127.3c1-3-3-8.3-7.1-11.5c-1.4-1.1-6-4.4-12.6-5.1c-0.9-0.1-3.9-0.4-7.7,0.3c-3.5,0.6-6.1,1.8-7.9,2.7
	c-1.3,0.8-5.3,3.6-7.1,9c-1.7,5.2-0.4,9.5,0.3,11.2c1.3,3.4,3.4,5.6,4.7,6.7c1.6,0.7,5.6,2.3,10.6,1.5c3.9-0.6,6.6-2.5,7.8-3.3
	c2.1-1.5,3.6-3.1,4.4-4.3c3.1-4.1,5.4-4.9,6.9-4.8c0.4,0,1,0.1,2.1,0.2c1.8,0,3.4,0,4.5-0.9C343.7,128.9,344.4,128.3,344.8,127.3z"
	/>
<ellipse transform="matrix(0.2768 -0.9609 0.9609 0.2768 -17.1365 366.4555)" class="st1" cx="234.9" cy="194.6" rx="10.8" ry="4.3"/>
<path class="st4" d="M292.2,174.4c-0.9,5.8-2.5,9.8-3.7,12.3c-1,2-2.1,3.7-3.4,5.3c0,0,0,0,0,0c0,0-0.1,0.1-0.1,0.1
	c-4.4,5.2-11.3,9.2-24.8,21.7c-2.4,2.2-2.7,2.5-3.2,3c0,0-0.2,0.2-0.5,0.4c-13.6,11.4-54.2,14.3-54.2,14.3c-1.2,0.1-1.9,0.1-3,0.2
	c-12.7,0.7-30.8,1.8-47.4-4.2c-4.8-1.7-10.7-5.7-22.5-13.5c-16.4-10.9-20.7-16.2-23.4-20.8c-3.3-5.5-5.4-10.9-5.6-11.7
	c-1.6-4.6-2.2-8.2-2.9-12.8c-1.3-8.4-0.7-9.9-1.9-18.4c-0.8-5.1-2.3-13.3-3.2-13.2c-1.1,0.1-0.8,13.8-0.6,13.8c0,0,0-0.6,0.1-1.4
	c0.3-3.1,1.2-7.8,3.4-13.2c0.6-1.5,1.4-3.2,2.2-4.8c0.4-0.8,0.9-1.6,1.4-2.4c0.9-1.5,1.9-2.9,3-4.4c1.8-2.4,4-4.9,6.6-7.3
	c9.8-9,21.1-13,29.2-14.9c0,0,0.1,0,0.1,0h0c0.1,0.8,0.2,1.5,0.3,2.2c0.1,0.7,0.2,1.4,0.3,2.1c0,0,0,0,0,0c0,0-0.1,0-0.1,0.1
	c0.1,0.6,0.1,1.3,0.1,1.9c0,0.6,0.1,1.2,0.1,1.8c0.1-0.1,0.2-0.1,0.4-0.2c0.3-0.1,0.6-0.3,0.9-0.4c0.1,0.4,0.3,0.8,0.4,1.2
	c0.9,2.3,2.2,3.3,2.7,6c0.5,3.1-0.4,5.8-1,7.1c-0.3,0.9-0.9,2.1-1.8,3.6v0c-0.5,0.9-1.2,1.9-2,2.9c-0.5,0.7-1.2,1.5-1.8,2.3
	c-0.5,0.6-1,1.1-1.6,1.7c-0.5,0.5-1,1-1.5,1.5c-0.2,0.2-0.4,0.3-0.6,0.5h0c-1.7,1.5-3.7,3-6,4.5c0,0.1-0.1,0.3-0.1,0.4
	c-0.5,1.8-1.1,3.4-2,5.1c-0.1,0.2-0.2,0.4-0.3,0.6c-0.1,0.1-0.2,0.2-0.2,0.4c-0.5,0.8-1.1,1.6-1.6,2.3c-0.2,0.2-0.4,0.5-0.6,0.7
	c-0.3,0.3-0.6,0.7-0.9,1c-0.4,0.4-0.8,0.9-1.3,1.4l0,0c0,0,0,0,0,0c-0.3,0.3-0.5,0.5-0.7,0.7c-0.2,0.2-0.5,0.4-0.7,0.6
	c-0.3,0.3-0.7,0.6-1,0.8c0.3,0.4,0.5,0.8,0.9,1.2c1.3-0.6,2.6-1.2,3.9-2h0c0.9-0.5,1.7-1,2.6-1.5c2.3-1.4,4.5-3,6.8-4.8
	c0.4-0.3,0.7-0.6,1.1-0.9c1.7-1.4,3.3-3,4.9-4.7c0.5-0.5,0.9-1,1.4-1.5c0.5-0.5,0.9-1.1,1.4-1.6c0.2-0.2,0.3-0.4,0.5-0.6
	c0,0,0,0,0,0c3.1-3.8,5.5-7.7,7.4-11.6c0.4-0.9,0.8-1.7,1.2-2.6l0.2-0.4c2.3-5.2,3.7-10.2,4.5-14.4c0.2-1,0.4-2,0.5-2.9v0
	c0.2-1.1,0.3-2.1,0.4-3.1c8.6-2.6,17.8-4.2,27.4-4.9c2-0.1,3.9-0.2,5.9-0.3c-0.2,0-0.4-0.1-0.6-0.1c1.5,0,3,0,4.4,0.1h0
	c0.2,0,0.5,0,0.8,0c1.5,0,3,0.1,4.2,0.1c1.7,0.1,4.1,0.2,6.9,0.4c0.3,0,0.6,0,0.8,0.1c6.1,0.5,14.1,1.5,22.6,3.5
	c11.2,2.7,22.3,5.4,34,14.1c1.8,1.3,6.4,4.9,11.6,10.8l0,0c5.8,6.7,12.4,16.3,16.2,29.1c1.3,4.1,2,7.9,2.5,11.2
	C291.9,170.7,292.1,172.7,292.2,174.4z"/>
<path class="st0" d="M271.5,145.3c-1.4-10.4-8.6-18.5-17.8-19.2c-10.9-0.8-20.4,9.2-21.3,22.1c-0.4,5.2,0.7,10.1,2.8,14.1
	c0.9,2.1,2.4,4.1,4.4,5.9c1.6,1.5,3.4,2.7,5.4,3.6c3.4,1.7,7.5,2.9,11.9,3.4c13.8,1.4,26.1-4.6,27.5-13.5
	C285.4,155,280,148.7,271.5,145.3z"/>
<path class="st0" d="M237.3,186.5c0-5.1-5.8-9.6-14.2-11.5c0-0.2,0-0.4,0-0.6c0-9.4-6.8-17-15.1-17c-8.4,0-15.1,7.6-15.1,17
	c0,1.3,0.1,2.5,0.4,3.7c-0.5,0.2-1.1,0.5-1.6,0.7c-11.8,5.7-16.2,16.5-9.9,24s21,9,32.8,3.2c4.6-2.2,8-5.2,10.2-8.4
	C232.2,195.5,237.3,191.4,237.3,186.5z"/>
<path class="st0" d="M188.8,135.7c0-5.1-5.8-9.6-14.2-11.5c0-0.2,0-0.4,0-0.6c0-9.4-6.8-17-15.1-17c-8.4,0-15.1,7.6-15.1,17
	c0,1.3,0.1,2.5,0.4,3.7c-0.5,0.2-1.1,0.5-1.6,0.7c-11.8,5.7-16.2,16.5-9.9,24c6.3,7.5,21,9,32.8,3.2c4.6-2.2,8-5.2,10.2-8.4
	C183.6,144.7,188.8,140.5,188.8,135.7z"/>
<path class="st0" d="M139.7,106.5C139.7,106.5,139.7,106.4,139.7,106.5c0.1-0.1,0.2-0.1,0.3-0.1v0
	C139.9,106.4,139.8,106.4,139.7,106.5z"/>
<path class="st0" d="M213.3,118.7c0.2,6.4-6,12.1-12,16.9c-5.4,4.3-12.1,8-19.4,10.9c-0.5,10-11.1,18-24.1,18
	c-6.3,0-12-1.8-16.3-4.9c-0.2-0.2-0.4-0.3-0.6-0.5c-0.5-0.4-1.1-0.9-1.6-1.4c-0.1,0-0.1-0.1-0.2-0.1c-2,0.3-3.9,0.4-5.9,0.3
	c0,0-0.1,0-0.1,0c-1.5,0-3-0.2-4.4-0.5c-1.5-0.3-2.9-0.7-4.2-1.2c-0.9-0.3-1.7-0.7-2.5-1.1c0,0-0.1,0-0.1,0h0
	c-0.2-0.1-0.4-0.2-0.6-0.4c-0.2-0.1-0.5-0.3-0.7-0.4c-0.1-0.1-0.3-0.2-0.4-0.3c-0.1-0.1-0.3-0.2-0.4-0.3c0,0-0.1,0-0.1-0.1
	c0,0,0,0,0,0c1.6-0.7,3.2-1.5,4.8-2.4c1.5-0.8,3-1.8,4.5-2.8c0,0,0,0,0.1,0c0.3-0.2,0.7-0.5,1-0.7c0,0,0.1-0.1,0.1-0.1
	c0.2-0.1,0.4-0.3,0.6-0.4c0.4-0.3,0.8-0.6,1.2-1c0,0,0,0,0.1-0.1c0,0,0.1-0.1,0.1-0.1c0.1-0.1,0.2-0.1,0.3-0.2c0,0,0,0,0.1,0
	c0.2-0.2,0.5-0.4,0.7-0.6h0c1.6-1.3,3.2-2.8,4.7-4.4c0.1-0.1,0.2-0.2,0.3-0.3c0.4-0.4,0.8-0.9,1.2-1.3c0.4-0.4,0.7-0.8,1.1-1.2
	c4.7-5.6,7.9-11.4,10-16.8c1.1-2.7,2-5.4,2.6-7.8c-0.6-0.3-1.3-0.5-1.9-0.8c-0.9-0.4-1.7-0.7-2.4-1.1c-2.4-1.1-4.3-2-5.8-2.9
	c1.7-0.7,3.4-1.3,5.1-2c0.5-0.2,1.1-0.4,1.6-0.6c1.6-0.6,3.3-1.1,5-1.6c8.6-2.6,17.8-4.2,27.4-4.9c2-0.1,3.9-0.2,5.9-0.3
	c0.2,0,0.3,0.1,0.4,0.1C203.2,102.6,213.3,110.8,213.3,118.7z"/>
<path class="st4" d="M291.5,199.6c-0.2,5.7-0.7,11.7-1.6,17.9c-1.1,7.8-2.5,15-4.2,21.6c-1.6,6.5-3.5,12.3-5.4,17.5
	c-5.4,0.3-10.8,0.5-16.3,0.8c-0.6-1.5-3.5-9-4.1-10.5c-3.6-9.2-7.9-20.5-11.5-29.7c6.9-6.8,14.2-14.5,21.5-23.3
	c7.8-9.3,14.4-18.3,20.1-26.8C291.2,176.1,292,187.1,291.5,199.6z"/>
<path class="st0" d="M291.5,199.6c-0.2,5.7-0.7,11.7-1.6,17.9c-1.1,7.8-2.5,15-4.2,21.6c-0.2,0-0.4,0-0.6,0.1
	c-6,0.5-11.2-3.9-11.7-9.9c-0.1-0.9,0-1.7,0.1-2.6c-4.8-2.5-8.3-7.3-8.8-13.1c-0.8-9,5.9-17,14.9-17.7
	C284.1,195.5,288.3,197,291.5,199.6z"/>
<path class="st4" d="M293.6,199.2c-0.1,2-0.4,8.9-1.6,17.9c-1.1,7.8-2.5,15-4.2,21.6c-1.6,6.5-3.5,12.3-5.4,17.5
	c-5.4,0.3-10.8,0.5-16.3,0.8c-1.4-3.5-2.6-7-4.1-10.5c-3.2-7.8-6.6-17-10-26.3c6.7-8.7,13.4-17.6,20.1-26.8
	c6.7-9.1,13.2-18.1,19.5-27C293.7,179.7,293.9,191,293.6,199.2z"/>
<path class="st0" d="M282.4,258.1c-2,0.7-4.7,1.4-8.1,1.6c-4.4,0.2-8-0.6-10.3-1.3c-0.3-1.1-0.6-2.3-1-3.5c-0.8-2.4-1.6-4.5-2.5-6.4
	c3.3,0.8,8.2,1.5,13.9,1.1c4.7-0.3,8.6-1.3,11.5-2.3c-0.2,1.4-0.5,3-1,4.8C284.2,254.5,283.3,256.5,282.4,258.1z"/>
<path class="st4" d="M248.5,217.2"/>
<g>
	<path class="st4" d="M147.9,101c0,0-0.2,0.1-0.5,0.1C147.7,101,147.9,101,147.9,101z"/>
	<path class="st0" d="M140.8,102c-0.1,0-0.3,0.1-0.4,0.1c0,0,0-0.1,0-0.1C140.6,102.1,140.7,102,140.8,102z"/>
	<path class="st0" d="M151.4,114.8c0,2.2-0.3,4.4-0.8,6.4c-0.3,1.3-0.7,2.5-1.2,3.7l-0.2,0.4c-0.4,0.9-0.8,1.7-1.2,2.6
		c-2.1,4.1-4.9,7.5-7.4,10.3v0c-0.3,0.4-0.7,0.8-1,1.1c-0.4,0.5-0.8,0.9-1.2,1.4c-0.1,0.1-0.1,0.1-0.2,0.2c-0.9,1-2.6,2.6-4.7,4.4
		c0,0-0.1,0-0.1,0c0,0-0.1,0.1-0.1,0.1c-0.2,0.2-0.4,0.3-0.6,0.4c0,0,0,0-0.1,0c-0.1,0.1-0.2,0.1-0.3,0.2c0,0-0.1,0.1-0.1,0.1
		c0,0,0,0-0.1,0.1c-0.4,0.3-0.7,0.5-1,0.7c-0.1,0.1-0.2,0.1-0.2,0.2c-0.1,0-0.1,0.1-0.2,0.1c-0.1,0.1-0.3,0.2-0.4,0.4
		c0,0-0.1,0.1-0.1,0.1c-0.3,0.3-0.7,0.5-1,0.7c0,0,0,0-0.1,0l-0.1,0.1c-0.8,0.5-1.5,1-2,1.3c-0.8,0.5-1.6,1-2.4,1.5
		c-1.6,0.9-3.2,1.7-4.7,2.4c0,0,0,0,0,0c0,0-0.1,0-0.1,0l-0.1-0.1c0,0-0.1,0-0.1-0.1c-0.9-0.7-1.6-1.4-2.3-2.2
		c-0.3-0.3-0.5-0.7-0.8-1c-1.3-1.9-2-4-2.1-6.2c0-0.9,0-1.8,0.2-2.6v0c0.2-1.3,0.7-2.7,1.4-4c0.2-0.4,0.4-0.7,0.6-1.1
		c1.3-2.2,3.2-4.2,5.6-6c0.4-0.3,0.9-0.7,1.4-1c1.1-0.8,2.3-1.4,3.6-2.1c0.5-0.2,1.1-0.5,1.6-0.7c-0.3-1.2-0.4-2.4-0.4-3.7
		c0-2.8,0.6-5.4,1.7-7.7c0.4-0.9,0.8-1.7,1.4-2.4c0.1-0.1,0.2-0.2,0.2-0.4c0,0,0-0.1,0.1-0.1c0.1-0.1,0.1-0.2,0.2-0.2l0.2-0.3
		c0,0,0.1-0.1,0.1-0.1c0.1-0.1,0.2-0.2,0.3-0.3c1.6-1.9,3.6-3.4,5.8-4.3c0.1,0.6,0.1,1.3,0.1,1.9c0,0.6,0.1,1.2,0.1,1.8
		c0.1-0.1,0.2-0.1,0.4-0.2c0.3-0.1,0.6-0.3,0.9-0.4c1.1-0.5,2.2-1,3.2-1.4c1.7-0.7,3.4-1.3,5.1-2c0.5-0.2,1.1-0.4,1.6-0.6
		c0.2,0.5,0.4,1.1,0.5,1.6c0.2,0.7,0.4,1.3,0.5,2c0.2,1.1,0.4,2.1,0.5,2.9c0,0.3,0,0.7,0.1,1C151.4,114,151.4,114.4,151.4,114.8z"/>
</g>
<g>
	<path class="st4" d="M134.3,108.6c-0.1,0.3-0.2,0.6-0.2,0.9c-0.2,0.9-0.5,1.7-0.7,2.6c-0.2,0.8-0.5,1.6-0.7,2.4
		c-0.8,2.5-1.6,4.9-2.4,7.2l0,0c0,0,0,0.1,0,0.1c-0.3,0.9-0.6,1.8-1,2.6c-0.3,0.7-0.5,1.3-0.8,1.9c-1.3,3.2-2.5,5.8-3.4,7.8
		c0,0,0,0.1,0,0.1c-0.9,1.8-1.6,3.1-1.9,3.8c-10.9-0.5-21.9-1.1-32.8-1.6c-1.1,0-2.1-0.1-3.2-0.1c-0.9,0-1.8-0.1-2.7-0.1
		c-10.1-0.5-20.2-1-30.2-1.5c-4.6-8.5-7.7-17.3-9.4-26.5c-0.1-0.3-0.1-0.6-0.1-0.8c-1.4-8.2-1.6-16.6-0.7-25.4c0,0,0,0,0,0
		c0.1-1.2,0.3-2.5,0.5-3.7c1.4-27.6,21.4-48.9,44.7-47.6l7,0.4c1.7,0.2,4.2,0.5,7.3,1.4c5.5,1.6,12.6,4.9,19.1,11.8
		c0.2,0.3,0.5,0.5,0.7,0.8c0.8,0.9,1.6,1.9,2.3,2.8c3.7,4.8,5.9,9.6,7.2,13.1c0.6,1.4,1,2.6,1.3,3.5c0.1,0.2,0.1,0.3,0.2,0.5
		c1.4,4.2,2.2,8.5,2.6,12.7l0,0c0.1,0.8,0.1,1.6,0.2,2.4c0,0.7,0.1,1.5,0.1,2.2c0,0,0,0,0,0.1c0,0.7,0,1.3,0,2c0,0.6,0,1.3,0,1.9
		C137.3,94.1,136.1,101.7,134.3,108.6z"/>
	<path class="st5" d="M131.4,55.9L131.4,55.9C131.5,56,131.4,56,131.4,55.9L131.4,55.9z"/>
	<path class="st0" d="M157.3,47.1L157.3,47.1c-3.1-2.3-7.2-4.1-11.8-5.1c-0.4-0.1-0.7-0.1-1.1-0.2c-0.7-0.1-1.5-0.2-2.1-0.2
		c-0.4,0-0.7,0-1.1-0.1c-0.3,0-0.6,0-0.9-0.1c-1.4,0-2.9,0.2-4.5,0.6c-2.8,0.7-5.3,2-7.2,3.4c-0.9,0.6-1.7,1.3-2.4,2
		c0.5,0.8,1.1,1.6,1.6,2.4c0.5,0.6,0.8,1.1,1.2,1.8c1.1-0.5,2.6-1.4,4.6-1.9c1.6-0.4,3.5-0.8,5.6-0.8c1.2,0,2.3,0,3.3,0.2
		c0.2,0,0.4,0,0.7,0.1c0.2,0,0.5,0.1,0.8,0.1c0.5,0.1,1,0.3,1.5,0.4c0.3,0,0.5,0.1,0.8,0.2c3.2,0.9,5.9,2.2,7.9,3.7l0,0
		c2.4,1.7,3.6,3.6,3.2,5.2c-0.5,1.4-2.2,2.3-4.7,2.6c-0.1,0-0.1,0-0.2,0c-2.6,0.3-5.8,0-9.2-1c0,0,0,0-0.1,0c-0.1,0-0.1,0-0.2,0
		c-1.2-0.4-2.2-0.7-3.3-1.2l-0.1,0c-1.4-0.5-3.4-1.3-6-2.2c-0.8-0.2-1.4-0.6-2.1-0.8c0.4,0.9,0.9,2,1.2,2.9c0.3,0.7,0.6,1.3,0.8,1.9
		c2.5,0.8,4.4,1.5,6,1.9c0.1,0,0.1,0.1,0.2,0.1c1.5,0.6,3.1,1.1,4.7,1.4c0.1,0,0.2,0,0.3,0l0.1,0c4.9,1,9.4,0.6,12.7-0.7
		c0.1,0,0.1-0.1,0.2-0.1c3.3-1.3,5.4-3.7,5.5-6.7C163.4,53.3,161.1,49.8,157.3,47.1z"/>
	<path class="st6" d="M126.2,47.4c0.3-0.6,0.6-1.2,0.8-1.9l2.5-15.8c0.6-3.9-3.4-6.9-6.8-5.1l-14,7.2c-0.4,0.2-0.7,0.4-0.9,0.6
		c4.6,1.9,9.8,5.1,14.7,10.3C123.8,44.3,125.1,45.9,126.2,47.4z"/>
	<path class="st0" d="M54.9,46.6c0.9-1.3,1.9-2.5,3-3.7c-0.6-0.6-1.1-1.2-1.8-1.8c-1.9-1.6-4.2-3.1-6.8-4.2c-1.5-0.6-3-0.9-4.4-1.2
		c-0.3,0-0.6,0-0.9-0.1c-0.3,0-0.7,0-1.1-0.1c-0.7,0-1.4,0-2.2,0c-0.4,0-0.7,0.1-1.1,0c-4.6,0.3-8.9,1.7-12.2,3.7
		c-4,2.3-6.6,5.5-6.8,8.8c-0.1,3,1.7,5.6,4.8,7.3c0.1,0,0.1,0.1,0.2,0.1c3.1,1.7,7.6,2.5,12.5,2.1l0.1,0c0.1,0,0.2,0,0.3,0
		c1.7-0.1,3.4-0.4,4.8-0.8c0.1,0,0.1,0,0.2-0.1c1.5-0.3,3.5-0.6,5.7-1.2c0.4-0.7,0.8-1.6,1.3-2.5c0.7-1.1,1.5-2.2,2.2-3.3
		C53.6,48.7,54.2,47.7,54.9,46.6z"/>
	<path class="st6" d="M61.8,39.4C67.3,34.6,73,32,78,30.7c-0.2-0.2-0.4-0.4-0.7-0.5l-13.2-8.8c-3.2-2.2-7.6,0.4-7.3,4.3l0.9,16
		c0.1,0.5,0.2,0.9,0.3,1.4C59.2,41.7,60.4,40.5,61.8,39.4z"/>
	<path class="st0" d="M131.5,56c0.7,0.2,1.3,0.5,2.1,0.8c2.6,1,4.5,1.8,6,2.2l0.1,0c1.1,0.5,2.1,0.8,3.3,1.2c0.1,0,0.1,0,0.2,0
		c0,0,0,0,0.1,0c3.4,1,6.6,1.3,9.2,1c0.1,0,0.1,0,0.2,0c2.6-0.3,4.3-1.2,4.7-2.6c0.5-1.6-0.8-3.5-3.2-5.2l0,0
		c-2-1.4-4.7-2.8-7.9-3.7c-0.3-0.1-0.5-0.1-0.8-0.2c-0.5-0.1-1-0.3-1.5-0.4c-0.3,0-0.5-0.1-0.8-0.1c-0.2,0-0.4-0.1-0.7-0.1
		c-1-0.2-2.1-0.2-3.3-0.2c-2.1,0.1-4,0.4-5.6,0.8c-2,0.6-3.6,1.3-4.6,1.9c0.5,0.7,0.9,1.5,1.4,2.3C130.8,54.5,131.1,55.3,131.5,56z"
		/>
	<path class="st4" d="M108.3,63.6c-0.9,0.5-1.2,1.7-0.6,2.7c0.5,0.9,1.7,1.2,2.6,0.6c0.9-0.5,1.2-1.7,0.6-2.7
		C110.2,63.4,109.1,63,108.3,63.6z"/>
	<path class="st4" d="M67.3,61.5c-0.8,0.6-1.1,1.7-0.5,2.7c0.5,0.8,1.7,1.1,2.6,0.5c0.8-0.6,1.1-1.7,0.5-2.7
		C69.4,61.2,68.1,60.9,67.3,61.5z"/>
	<g>
		<path class="st4" d="M20.2,100.7L20.2,100.7z"/>
		<path class="st4" d="M50.3,104.7c7.8-4.5,15.4-4.5,19.1-4.6c5.2-0.1,9.3,0.8,11,1.2c3.8,0.9,6.8,2.3,9.2,3.4l5.3-74
			c-1.8-0.1-4.9-0.2-8.8,0.3c0.2,1.8-0.7,3.8-2.5,4.8L71,42.5c-2.4,1.3-5.3,0.2-6.4-2.1c-0.9,0.7-1.8,1.5-2.8,2.3
			c1.2,1.5,2.1,2.9,2.7,4c-0.4,2.1-0.8,4.2-1.2,6.1c-1.8,0.3-4.5,0.7-7.9,1.3c-1,0.1-1.9,0.3-2.8,0.4c-2.3,4.4-3.8,8.9-5.3,13.6
			c-1.7,5.4-2.6,9.8-3.3,13.2c-1.3,6.9-3,17.5-4.4,31.6C42.9,109,47.6,106.3,50.3,104.7z M67.2,64.3c0.8-4,4.1-6.6,7.5-5.9
			c3.4,0.7,5.5,4.5,4.7,8.5c-0.8,4-4.1,6.6-7.5,5.9S66.4,68.2,67.2,64.3z"/>
		<path class="st4" d="M138,117.4c0-0.4,0-0.8,0-1.3c0,0,0,0,0,0c0-0.4,0-0.9,0-1.3l0,0c0-0.1,0-0.1,0-0.2c0.1-3.1,0.2-6,0.2-8.6
			c0-0.5,0-1.1,0-1.6l0,0c0-6.3-0.1-11.4-0.3-15.3c0-0.9-0.1-1.9-0.1-3c-0.1,0-0.2,0.1-0.4,0.2c0-0.6,0-1.3,0-1.9c0-0.7,0-1.3,0-2
			c0.1,0,0.1,0,0.1-0.1c0,0,0,0,0,0c-0.1-0.7-0.2-1.4-0.2-2.2c-0.1-0.8-0.2-1.5-0.3-2.3c-0.1-0.8-0.2-1.5-0.4-2.4
			c-0.6-3.6-1.2-7-2.1-10.4c-0.4-1.3-0.7-2.6-1.2-3.9c-0.1,0-0.2-0.1-0.2-0.1c-0.8-0.2-1.6-0.5-2.5-0.8c-3.3-1.1-5.9-1.9-7.6-2.5
			c-0.1-2.1-0.2-4.2-0.4-6.3c0.8-0.9,1.8-2.1,3.2-3.4c0,0,0.1-0.1,0.1-0.1c-0.7-0.9-1.6-1.9-2.4-2.7c0,0,0,0,0,0
			c-1.5,2-4.5,2.7-6.6,1l-11.4-8.6c-1.7-1.2-2.2-3.2-1.8-5c0,0,0-0.1,0-0.1c-3.9-1.1-7-1.6-8.7-1.7l0,0.1l0,0.2l-3.4,48l-1.3,18.7
			l-0.5,7c1.8-0.5,4-1.1,6.5-1.6c1-0.2,2-0.3,3.1-0.4c1.1-0.1,3.1-0.2,5.6-0.1c1.6,0.1,3.4,0.2,5.4,0.6c0,0,0,0,0.1,0
			c2.1,0.4,5.6,1,9.4,2.5c0,0,0.1,0,0.1,0c2.8,1.1,5.8,2.7,8.7,5c0.6,0.5,1.3,1.1,2,1.8c0.1,0,0.1,0.1,0.2,0.1
			c0.6,0.6,1.3,1.2,2,1.8c0.9,0.9,1.8,1.8,2.6,2.9c0,0,0,0,0.1,0.1c0.2,0.3,0.4,0.5,0.6,0.8c0.7,0.9,1.3,1.8,1.8,2.7
			C137.9,119.8,137.9,118.6,138,117.4z M111.1,61.2c1.4-0.1,2.8,0.4,3.8,1.4c0,0,0.1,0,0.1,0.1c1.5,1.3,2.5,3.3,2.6,5.6
			c0.1,1.4-0.2,2.8-0.8,4c-1,2.1-2.9,3.6-5.1,3.7c-0.5,0-1.1,0-1.6-0.1c0,0,0,0,0,0c-2.7-0.7-4.9-3.4-5-6.8c0-0.3,0-0.6,0-0.9l0,0
			c0-0.4,0.1-0.8,0.2-1.2c0.3-1.3,0.8-2.4,1.5-3.3c0.1-0.1,0.2-0.2,0.3-0.3C108.1,62.1,109.5,61.3,111.1,61.2L111.1,61.2z"/>
	</g>
	<path class="st7" d="M70.4,58.1c-4.7-0.7-9.1,2.2-9.9,6.3c-0.7,4.1,2.4,8,7.1,8.7c4.7,0.7,9.1-2.2,9.9-6.3
		C78.3,62.7,75.1,58.8,70.4,58.1z M67.2,64.2c-1.1,0.6-2.7,0.4-3.6-0.6c-0.8-0.9-0.6-2.1,0.7-2.8c1.1-0.6,2.7-0.4,3.6,0.6
		C68.7,62.5,68.4,63.7,67.2,64.2z"/>
	<path class="st7" d="M111.7,61.3c-4.4-0.8-8.8,1.8-9.7,5.8c-1,4,1.8,7.8,6.2,8.6c4.4,0.8,8.8-1.8,9.7-5.8
		C119,65.9,116.1,62.1,111.7,61.3z M108.3,67.1c-1.2,0.5-2.7,0.2-3.4-0.7c-0.7-0.9-0.4-2.1,0.8-2.7c1.2-0.5,2.7-0.2,3.4,0.7
		C109.7,65.4,109.4,66.6,108.3,67.1z"/>
	
		<ellipse transform="matrix(0.9953 -9.714980e-02 9.714980e-02 0.9953 -5.9108 10.7247)" class="st7" cx="107.2" cy="66.1" rx="2.8" ry="2.9"/>
	
		<ellipse transform="matrix(0.9953 -9.714980e-02 9.714980e-02 0.9953 -5.8212 6.6817)" class="st7" cx="65.7" cy="63.1" rx="2.8" ry="2.9"/>
	<ellipse transform="matrix(0.2406 -0.9706 0.9706 0.2406 -7.7843 118.1236)" class="st4" cx="71.6" cy="64" rx="3.5" ry="3.6"/>
	<ellipse transform="matrix(0.2406 -0.9706 0.9706 0.2406 20.3194 158.5851)" class="st4" cx="111.5" cy="66.3" rx="3.5" ry="3.6"/>
	<path class="st0" d="M129,51.4c-0.8-1.3-1.6-2.7-2.6-4.1c0.6-0.6,1.2-1,1.9-1.6c2-1.4,4.4-2.7,7.2-3.4c1.6-0.4,3.1-0.5,4.5-0.6
		c0.3,0,0.6,0,0.9,0.1s0.7,0,1.1,0.1c0.7,0,1.4,0.2,2.1,0.2c0.4,0,0.7,0.1,1.1,0.2c4.6,0.9,8.7,2.7,11.8,5.1
		c3.8,2.7,6.1,6.3,5.9,9.6c-0.1,3-2.2,5.4-5.5,6.7c-0.1,0-0.1,0.1-0.2,0.1c-3.3,1.3-7.8,1.7-12.7,0.7l-0.1,0c-0.1,0-0.2,0-0.3,0
		c-1.7-0.3-3.3-0.8-4.7-1.4c-0.1,0-0.1,0-0.2-0.1c-1.4-0.5-3.4-1-5.6-1.8c-0.3-0.8-0.6-1.7-1-2.6c-0.6-1.2-1.2-2.3-1.9-3.5
		C130.1,53.7,129.5,52.6,129,51.4z"/>
	<path class="st1" d="M96.9,98.3c-2.4-0.3-4.9-0.6-7.4-0.7l0,0.1c-18.9-1-35.6,3-45,9.8c-3.5,2.4-5.8,5.3-7.1,8.4
		c3.5,7.3,6.9,12.5,9.3,14.8c1.2,1.2,2.7,2.5,2.7,2.5c1.2,1.1,2.5,2.1,3.9,3c9.7,6.7,20.5,8.4,29,8.9l0.4,0c0.3,0,0.7,0,1,0.1
		c1.1,0.1,2.5,0.1,3.6,0.2l0-0.1c1.1,0.1,2.8,0.2,3.9,0.2c0.3,0,0.7,0,1,0.1l0.4,0c8.5,0.5,19.3,0,29.7-5.5c1.4-0.7,2.8-1.6,4.1-2.6
		c0,0,1.6-1.1,2.9-2.1c2.4-1.9,6.4-6.8,10.7-13.6c-0.9-3.2-3.1-6.3-6.2-9.2c-3.4-3.1-7.9-5.9-13.4-8.1
		C113.6,101.5,105.7,99.4,96.9,98.3z M105.8,115.2c4.4-3.5,9.1-3.4,10.5,0.2c1.4,3.6-1,9.3-5.3,12.7c-4.3,3.5-9.1,3.4-10.5-0.2
		C99,124.3,101.4,118.6,105.8,115.2z M61.6,112.3c1.7-3.4,6.4-2.9,10.4,1c4,3.9,5.8,9.9,4,13.3c-1.7,3.4-6.4,2.9-10.4-1
		C61.6,121.7,59.8,115.7,61.6,112.3z"/>
	<polygon class="st1" points="120.7,136.6 57.1,133 58.3,108.5 121.9,112.1 	"/>
	<path class="st8" d="M79.3,124.9c3.1-2.3,3.2-7.3,0.2-11.3c-3.1-3.9-8.1-5.2-11.2-2.9c-3.1,2.3-3.2,7.3-0.2,11.3
		C71,126,76,127.3,79.3,124.9z"/>
	<path class="st8" d="M108.7,123.9c3.4-3.6,3.8-8.6,0.9-11.2c-2.9-2.7-7.9-2-11.4,1.6c-3.4,3.6-3.8,8.6-0.9,11.2
		C100.3,128.2,105.4,127.5,108.7,123.9z"/>
	<path class="st8" d="M78.2,121.5c2.8-1.9,2.9-6,0.3-9.2c-2.7-3.2-7.1-4.1-9.9-2.2c-2.8,1.9-2.9,6-0.3,9.2
		C70.9,122.5,75.3,123.5,78.2,121.5z"/>
	<path class="st8" d="M108.5,122.3c3.1-3.1,3.4-7.4,0.7-9.8c-2.8-2.4-7.5-1.9-10.8,1.2c-3.1,3.1-3.4,7.4-0.7,9.8
		C100.7,125.9,105.4,125.3,108.5,122.3z"/>
	<path class="st1" d="M129.2,135.3c-1.3,1-2.9,2.1-2.9,2.1c-1.3,0.9-2.7,1.8-4.1,2.6c-10.3,5.5-21.2,6-29.7,5.5l-0.4,0
		c-0.3,0-0.7,0-1-0.1c-1.2-0.1-2.8-0.2-3.9-0.2l0,0.1c-1.1-0.1-2.5-0.1-3.6-0.2c-0.3,0-0.7,0-1-0.1l-0.4,0c-8.5-0.5-19.2-2.2-29-8.9
		c-1.3-0.9-2.6-2-3.9-3c0,0-1.5-1.3-2.7-2.5c-2.2-2.1-5.7-7.4-9.3-14.8c-0.1,0.3-0.2,0.6-0.3,0.9c0,0.2-0.1,0.3-0.1,0.5
		c-0.1,0.2-0.1,0.4-0.1,0.6c-0.1,0.7-0.3,1.4-0.3,1.9c0,0.2,0,0.4,0,0.6l0,0c-0.3,1.5-0.3,2.2-0.3,2.2s0-0.1,0.1-0.4
		c-0.1,0.5-0.2,1.3-0.1,1.9c0,0.2,0.1,0.4,0.1,0.5c0.1,0.4,0.1,0.6,0.2,1.1c0,0.2,0.1,0.4,0.1,0.4c0.4,1.9,1.1,3.8,2,5.5
		c0.1,0.1,0.2,0.2,0.2,0.4c0.4,0.8,1,1.6,1.5,2.3c0.2,0.2,0.4,0.5,0.6,0.7c0.3,0.3,0.6,0.6,0.8,1c0.4,0.4,0.7,0.9,1.2,1.4
		c0.3,0.3,0.6,0.5,0.8,0.8c0.2,0.2,0.5,0.4,0.7,0.6c0.3,0.3,0.7,0.6,0.9,0.9c1,1,2,1.7,2.7,2.5c1,0.9,2.1,1.7,3.1,2.4
		c0.4,0.2,0.8,0.5,1.1,0.8c4.5,2.9,9.5,5.3,15.4,6.8c0.3,0.1,0.7,0.2,1.1,0.3c1.3,0.3,2.4,0.5,3.7,0.7c0.2,0,0.4,0.1,0.6,0.1
		c3.2,0.5,6.3,0.8,9.1,0.9c0-0.2,0.1-0.3,0.1-0.5c0,0.1,0,0.3,0,0.5c0.2,0,0.5,0,0.8,0s0.6,0,0.9,0.1c0.1,0,0.1,0,0.2,0
		c1.1,0.1,2.1,0,3,0.1l0-0.1c0.9,0.1,1.8,0.2,2.7,0.3c0.1,0,0.1,0,0.2,0c0.3,0,0.6,0,0.9,0.1c0.3,0,0.6,0,0.8,0c0-0.2,0-0.3,0-0.5
		c0,0.2,0.1,0.3,0.1,0.5c2.7,0.2,5.9,0.3,9.1,0.1c0.2,0,0.4,0,0.6-0.1c1.2,0,2.5-0.2,3.7-0.3c0.4,0,0.7-0.1,1.1-0.1
		c6.1-0.9,11.3-2.7,16-5c0.4-0.2,0.8-0.4,1.2-0.6c1.1-0.6,2.2-1.3,3.3-2c0.8-0.6,1.8-1.3,2.9-2.1c0.3-0.3,0.6-0.5,1-0.7
		c0.2-0.2,0.5-0.4,0.7-0.6c0.3-0.2,0.6-0.5,0.9-0.7c0.4-0.4,0.9-0.7,1.3-1.2c0.3-0.3,0.6-0.6,0.9-0.9c0.2-0.2,0.4-0.4,0.6-0.7
		c0.6-0.7,1.1-1.3,1.7-2.1c0.1-0.1,0.2-0.2,0.2-0.4c1.1-1.6,2-3.3,2.5-5.3c0-0.1,0-0.2,0.1-0.4c0.1-0.5,0.2-0.7,0.3-1.1
		c0-0.1,0-0.3,0.1-0.5c0.1-0.7,0.2-1.4,0.1-1.9c0.1,0.3,0.1,0.4,0.1,0.4s0-0.8-0.1-2.2l0,0c0-0.2,0-0.4,0-0.6c0-0.6,0-1.2-0.1-1.9
		c0-0.2-0.1-0.4-0.1-0.6c0-0.2-0.1-0.4-0.1-0.5c-0.1-0.3-0.2-0.6-0.2-0.9C135.7,128.5,131.6,133.3,129.2,135.3z M36.5,121.4
		L36.5,121.4c0-0.1,0-0.1,0-0.2C36.5,121.3,36.5,121.4,36.5,121.4C36.5,121.5,36.5,121.4,36.5,121.4z M140.2,127.2L140.2,127.2
		C140.2,127.3,140.2,127.3,140.2,127.2c0,0,0-0.1,0-0.2C140.2,127.1,140.2,127.2,140.2,127.2z"/>
</g>
<path class="st1" d="M38.6,114.7L38.6,114.7C38.6,114.7,38.6,114.8,38.6,114.7c0,0,0-0.1,0-0.2C38.6,114.6,38.6,114.7,38.6,114.7z"
	/>
<path class="st1" d="M144.7,114.6L144.7,114.6c0-0.1,0-0.1,0-0.2C144.7,114.6,144.7,114.6,144.7,114.6
	C144.7,114.7,144.7,114.7,144.7,114.6z"/>
<path class="st4" d="M156,248.8c-6.2,0.1-12.3,0.4-18.5,0.5c-1.9-4.8-3.8-10.6-5.3-17.3c-2-8.7-2.8-16.5-3.1-22.7
	c11.2-0.4,22.5-0.8,33.7-1.1C161.7,222.2,159.9,236,156,248.8z"/>
<path class="st0" d="M156.6,252.7c-6.9,3.1-13.7,3.2-20.6,0.3c-0.9-3.1-1.7-6.2-2.6-9.4c2.3,0.5,4.8,0.9,7.5,1.2
	c6.9,0.7,12.9,0.2,17.7-0.7C157.9,247,157.2,249.9,156.6,252.7z"/>
<g>
	<path class="st4" d="M181.8,266.2c-6.6,0.1-13.2,0.2-19.8,0.3c-1.4-4.9-2.7-10.2-3.9-15.8c-1.5-6.9-2.6-13.4-3.4-19.5
		c11.4,0.4,22.9,0.7,34.3,1.1c-0.7,5-1.5,10.4-2.7,16C184.9,254.7,183.4,260.7,181.8,266.2z"/>
	<path class="st0" d="M181.8,267.2c-1.7,0.9-5.4,2.6-10.5,2.5c-4.4-0.2-7.6-1.7-9.2-2.6c-0.6-1.9-1.2-3.9-1.8-6
		c-0.6-2.2-1-4.3-1.4-6.3c2.4,1.2,7.1,3.3,13.3,3.4c5.7,0.1,10.2-1.5,12.6-2.5C183.9,259.5,182.8,263.4,181.8,267.2z"/>
	<path class="st4" d="M183.3,255.3c-7,0.1-14,0.2-20.9,0.3c-1.5-4.9-2.9-10.2-4.1-15.8c-1.6-6.9-2.7-13.4-3.6-19.5
		c12,0.4,24.2,0.7,36.2,1.1c-0.7,5-1.6,10.4-2.9,16C186.6,243.8,185,249.8,183.3,255.3z"/>
</g>
<g>
	<path class="st4" d="M281.9,264.7c-6.6,0.1-13.2,0.2-19.8,0.3c-1.4-4.9-2.7-10.2-3.9-15.8c-1.5-6.9-2.6-13.4-3.4-19.5
		c11.4,0.4,22.9,0.7,34.3,1.1c-0.7,5-1.5,10.4-2.7,16C285,253.2,283.5,259.2,281.9,264.7z"/>
	<path class="st0" d="M281.9,265.8c-1.7,0.9-5.4,2.6-10.5,2.5c-4.4-0.2-7.6-1.7-9.2-2.6c-0.6-1.9-1.2-3.9-1.8-6
		c-0.6-2.2-1-4.3-1.4-6.3c2.4,1.2,7.1,3.3,13.3,3.4c5.7,0.1,10.2-1.5,12.6-2.5C284,258.1,282.9,262,281.9,265.8z"/>
	<path class="st4" d="M283.4,253.8c-7,0.1-14,0.2-20.9,0.3c-1.5-4.9-2.9-10.2-4.1-15.8c-1.6-6.9-2.7-13.4-3.6-19.5
		c12,0.4,24.2,0.7,36.2,1.1c-0.7,5-1.6,10.4-2.9,16C286.7,242.3,285.1,248.3,283.4,253.8z"/>
</g>
<path class="st0" d="M293.6,199.2c-0.2,5.7-0.7,11.7-1.6,17.9c-1.1,7.8-2.5,15-4.2,21.6c-0.2,0-0.4,0-0.6,0.1
	c-6,0.5-11.2-3.9-11.7-9.9c-0.1-0.9,0-1.7,0.1-2.6c-4.8-2.5-8.3-7.3-8.8-13.1c-0.8-9,5.9-17,14.9-17.7
	C286.2,195.1,290.4,196.5,293.6,199.2z"/>
</svg>
