<?xml version="1.0" encoding="utf-8"?>
<!-- Generator: Adobe Illustrator 25.1.0, SVG Export Plug-In . SVG Version: 6.00 Build 0)  -->
<svg version="1.1" id="Layer_1" xmlns="http://www.w3.org/2000/svg" xmlns:xlink="http://www.w3.org/1999/xlink" x="0px" y="0px"
	 viewBox="0 0 350 283" style="enable-background:new 0 0 350 283;" xml:space="preserve">
<style type="text/css">
	.st0{fill:#272727;}
</style>
<g>
	<path class="st0" d="M152.8,76.1l-43.6,35c-4.1,3.3-9.2,5.1-14.4,5.1H54.6c-6.9,0-12.5,5.6-12.5,12.5V180c0,6.9,5.6,12.5,12.5,12.5
		h41.5c5.5,0,10.8,2,15,5.5l40.1,34.3c8.3,7.1,20.7,0.9,20.8-10.4c0.4-44.9,0.8-89.9,1.2-134.8C173.4,75.8,161.3,69.3,152.8,76.1z"
		/>
	<path class="st0" d="M216.3,112.1C216.3,112.1,216.3,112.1,216.3,112.1C216.3,112.1,216.3,112.1,216.3,112.1
		c-5.5,0-9.9,4.4-9.9,9.9c0,5.5,4.4,9.9,9.9,9.9c0,0,0,0,0,0c0,0,0,0,0,0c1.9-0.1,9-0.1,15.3,5.1c8.4,6.9,8.2,17.1,8.2,18.4
		c-0.3,8.1-4.8,13.4-6.3,15c-6.7,7.2-15.5,7.6-17.2,7.6c-5.4,0-9.9,4.4-9.9,9.9c0,5.4,4.4,9.9,9.9,9.9c0,0,0,0,0,0c0,0,0,0,0,0
		c23.6,0,42.8-19.1,42.8-42.7C259.1,131.3,240,112.1,216.3,112.1z"/>
	<path class="st0" d="M215.9,63.3C215.9,63.3,215.8,63.2,215.9,63.3c-0.1,0-0.1,0-0.1,0c-0.1,0-0.1,0-0.2,0v0
		c-5.2,0.1-9.4,4.4-9.4,9.6c0,5.2,4.2,9.5,9.4,9.6v0c40.7,0,73.7,32.9,73.7,73.6c0,29.3-20.1,50.5-21.6,52
		c-21.2,20.7-47.4,20.6-52.1,20.4c-5.3,0-9.6,4.3-9.6,9.6c0,5.3,4.3,9.6,9.6,9.6c50.9,0,92.3-41.3,92.3-92.3
		C307.9,104.6,266.7,63.4,215.9,63.3z"/>
</g>
</svg>
