<?xml version="1.0" encoding="utf-8"?>
<!-- Generator: Adobe Illustrator 25.1.0, SVG Export Plug-In . SVG Version: 6.00 Build 0)  -->
<svg version="1.1" id="Layer_1" xmlns="http://www.w3.org/2000/svg" xmlns:xlink="http://www.w3.org/1999/xlink" x="0px" y="0px"
	 viewBox="0 0 350 283" style="enable-background:new 0 0 350 283;" xml:space="preserve">
<style type="text/css">
	.st0{fill:#3F3C3A;}
</style>
<g>
	<path class="st0" d="M253.1,151.5H95.4c-5.2,0-9.4-4.6-9.4-10.4v-1.9c0-5.8,4.2-10.4,9.4-10.4h157.8c5.2,0,9.4,4.6,9.4,10.4v1.9
		C262.7,146.9,258.3,151.5,253.1,151.5z"/>
	<path class="st0" d="M86.9,150.1L153,84c4.1-4.1,4.1-10.7,0-14.8l-1.3-1.3c-4.1-4.1-10.7-4.1-14.8,0l-64.7,64.7
		c-4.7,4.7-4.7,12.7,0,17.5l0,0C76.1,154.2,82.8,154.2,86.9,150.1z"/>
	<path class="st0" d="M86.9,132.8l66.2,66.2c4.1,4.1,4.1,10.7,0,14.8l-1.3,1.3c-4.1,4.1-10.7,4.1-14.8,0l-64.8-64.8
		c-4.7-4.7-4.7-12.7,0-17.5l0,0C76.1,128.7,82.8,128.7,86.9,132.8z"/>
</g>
</svg>
