<?xml version="1.0" encoding="utf-8"?>
<!-- Generator: Adobe Illustrator 25.1.0, SVG Export Plug-In . SVG Version: 6.00 Build 0)  -->
<svg version="1.1" id="Layer_1" xmlns="http://www.w3.org/2000/svg" xmlns:xlink="http://www.w3.org/1999/xlink" x="0px" y="0px"
	 viewBox="0 0 422 295.9" style="enable-background:new 0 0 422 295.9;" xml:space="preserve">
<style type="text/css">
	.st0{fill:#2B2A2D;}
</style>
<g>
	<path class="st0" d="M188.8,68.6l-43.6,35c-4.1,3.3-9.2,5.1-14.4,5.1H90.6c-6.9,0-12.5,5.6-12.5,12.5v51.3
		c0,6.9,5.6,12.5,12.5,12.5h41.5c5.5,0,10.8,2,15,5.5l40.1,34.3c8.3,7.1,20.7,0.9,20.8-10.4c0.4-44.9,0.8-89.9,1.2-134.8
		C209.4,68.3,197.3,61.8,188.8,68.6z"/>
	<path class="st0" d="M252.3,104.6L252.3,104.6L252.3,104.6c-5.5,0-9.9,4.4-9.9,9.9s4.4,9.9,9.9,9.9l0,0l0,0c1.9-0.1,9-0.1,15.3,5.1
		c8.4,6.9,8.2,17.1,8.2,18.4c-0.3,8.1-4.8,13.4-6.3,15c-6.7,7.2-15.5,7.6-17.2,7.6c-5.4,0-9.9,4.4-9.9,9.9c0,5.4,4.4,9.9,9.9,9.9
		l0,0l0,0c23.6,0,42.8-19.1,42.8-42.7C295.1,123.8,276,104.6,252.3,104.6z"/>
	<path class="st0" d="M251.9,55.8C251.9,55.8,251.8,55.7,251.9,55.8c-0.1,0-0.1,0-0.1,0c-0.1,0-0.1,0-0.2,0l0,0
		c-5.2,0.1-9.4,4.4-9.4,9.6s4.2,9.5,9.4,9.6l0,0c40.7,0,73.7,32.9,73.7,73.6c0,29.3-20.1,50.5-21.6,52
		c-21.2,20.7-47.4,20.6-52.1,20.4c-5.3,0-9.6,4.3-9.6,9.6s4.3,9.6,9.6,9.6c50.9,0,92.3-41.3,92.3-92.3
		C343.9,97.1,302.7,55.9,251.9,55.8z"/>
</g>
</svg>
