<?xml version="1.0" encoding="utf-8"?>
<!-- Generator: Adobe Illustrator 25.1.0, SVG Export Plug-In . SVG Version: 6.00 Build 0)  -->
<svg version="1.1" id="Layer_1" xmlns="http://www.w3.org/2000/svg" xmlns:xlink="http://www.w3.org/1999/xlink" x="0px" y="0px"
	 viewBox="0 0 372.7 402.4" style="enable-background:new 0 0 372.7 402.4;" xml:space="preserve">
<style type="text/css">
	.st0{fill:#F28F37;}
	.st1{fill:#A7A9AC;}
	.st2{fill:#DF5F26;}
	.st3{fill:#E6E7E8;}
	.st4{fill:#9E4122;}
	.st5{fill:#C2532A;}
	.st6{fill:#FFFFFF;}
	.st7{fill:#1B1B1B;}
	.st8{fill:#FAAF6B;}
	.st9{fill:#FBC4AB;}
</style>
<g>
	<path class="st0" d="M316,272.3c-9.5,9.8-19,19.6-28.5,29.4c0,0,0,0,0,0v0c-3.9-9.8-7.9-19.5-11.8-29.3c0,0,0.1,0,0.1-0.1
		c12.4-6.2,30.6-17.6,39.2-37.8c16.4-38.3-12.1-84-30.5-122.1c-11.8-24.4-19.5-45.6-8.8-59.7c7-9.2,20.6-13.9,28-10.2
		c12.1,6.2,0.8,32.3,6.9,69.4c0.4,2.6,0.9,5.2,1.5,7.9c9,39.7,28.8,43.9,32.2,74.7C346.2,211.9,342.9,237.9,316,272.3z"/>
	<path class="st0" d="M288,309.2c0,33.6-26.5,60.8-59.2,60.8c-2.6,0-5.1-0.2-7.6-0.5c-2.3,1.2-4.7,2.3-7.2,3.4
		c-18,7.6-34.9,8.3-37.7,1.6c-1.4-3.3,0.9-7.8,5.7-12.4c-5.8,1.5-11.1,1.5-12.4-0.8c-1.7-3,3.1-9.7,8.7-12.8c1.5-0.9,3-1.3,4-1.6
		c-6.6-8.6-11-19.2-12.3-30.6c0,0,0,0,0,0c-2-0.2-7.4-0.9-8.1-1c0.1,16.4,0.2,32.8,0.3,49.2c-0.3,2.1-1.1,5.4-3.3,8.7
		c-3.9,5.8-9.8,7.6-13.2,9c-11.3,4.8-22.3,4.1-24.7-1.4c-2.3-5.4,4.6-13.5,15.5-18.3v-53.2c0,0-0.1-0.1-0.2-0.1
		c-0.3-0.1-0.8-0.4-1.6-0.8c-0.2-0.1-0.3-0.2-0.5-0.3c-0.3-0.1-0.6-0.3-0.8-0.4c0,0,0,0,0,0c-0.3-0.1-0.5-0.3-0.8-0.4
		c-0.4-0.2-0.8-0.4-1.2-0.6c-0.4-0.2-0.8-0.4-1.2-0.6c-3.2-1.8-7.4-4.1-11.7-6.9c-0.6-0.4-1.2-0.8-1.8-1.2c-1.2-0.8-2.5-1.7-3.7-2.5
		c-0.6-0.4-1.2-0.9-1.8-1.3c0,0,0,0-0.1-0.1c-3.3-2.4-6.4-5-9-7.7c-12.5-12.9-17.4-26.3-19.9-33.2c-7.9-21.9-6-40.6-4.9-50.6
		c0.1-0.9,0.2-1.7,0.3-2.5c0-0.3,0.1-0.6,0.1-1c0.3-2.1,0.6-4.1,1-6.1c0-0.1,0-0.2,0-0.2c0.8-4.2,1.8-8.1,2.8-11.6
		c0.6-2.1,1.2-4,1.8-5.8c3.8,1.1,7.6,2,11.6,2.6c1.1,0.2,2.3,0.3,3.4,0.5c0.4,0.1,0.8,0.1,1.2,0.2c0.7,0.1,1.5,0.2,2.2,0.2
		c1.1,0.1,2.1,0.2,3.2,0.2c0.6,0,1.1,0.1,1.7,0.1c0.6,0,1.1,0.1,1.7,0.1c0.4,0,0.8,0,1.2,0c0.6,0,1.2,0,1.8,0c0.9,0,1.8,0,2.6,0
		c0.1,0,0.3,0,0.4,0c0.8,0,1.6-0.1,2.4-0.1h0.1c0.1,0,0.1,0,0.2,0c0.3,0,0.7,0,1-0.1c0,0,0,0,0,0c0.7,0,1.4-0.1,2.1-0.2
		c0.6,0,1.1-0.1,1.6-0.2c0.5,0,1-0.1,1.5-0.2c0.6-0.1,1.2-0.1,1.8-0.2c0.2,0,0.3,0,0.4-0.1c1-0.1,2-0.3,3-0.4
		c0.6-0.1,1.1-0.2,1.7-0.3c0.6-0.1,1.1-0.2,1.7-0.3c1-0.2,1.9-0.4,2.8-0.6c1.6-0.4,3.2-0.8,4.8-1.3c0.3-0.1,0.7-0.2,1-0.3
		c1-0.3,2-0.6,3-1c0.2-0.1,0.4-0.2,0.6-0.2c0.1,0,0.2-0.1,0.3-0.1c0.2-0.1,0.4-0.1,0.6-0.2c0.7-0.2,1.4-0.5,2.1-0.8
		c1.4-0.5,2.8-1.1,4.1-1.7c0.6-0.3,1.2-0.5,1.8-0.8c0.1-0.1,0.2-0.1,0.3-0.1c1-0.4,1.9-0.9,2.8-1.4c1-0.5,2-1.1,3-1.6
		c1.3,1.4,2.7,2.8,4.1,4.3c0.3,0.3,4.4,5,7.7,8.9c0,0.1,0.1,0.1,0.1,0.1c0.7,0.8,1.4,1.6,2,2.3c1,1.2,1.8,2,2.1,2.4
		c0.7,0.6,1.3,1.1,2,1.7c53.5,45.9,72.3,61.9,77,65.7c1.1,0.9,6.5,5.2,13.5,11.4c1.7,1.5,3.1,2.8,4,3.6c0,0,0,0,0,0c0,0,0,0,0,0
		c1.4,1.5,2.7,3.1,4,4.8c6.2,8.3,10.4,18.4,11.7,29.3c0,0,0,0,0,0C287.8,304.1,288,306.6,288,309.2z"/>
	<path class="st1" d="M136.6,309.3c0.1,0.1,0.3,0.2,0.4,0.3v40.1c0.1,0.4,0.1,0.9,0,1.3c-0.1,0.6-0.2,1.2-0.4,1.7
		c-0.6,1.9-2,3.9-3.8,5.8c-2.4,2.5-5.8,5-9.9,7c-0.8,0.4-1.7,0.8-2.5,1.2c-11.3,4.8-22.3,4.1-24.7-1.4c-2.3-5.4,4.7-13.5,15.6-18.3
		c0,0,0.5-19.6-10.2-37c-6.7-10.9-13.3-15-19.1-21.1c-12.2-12.7-16.5-27.4-19.2-36.7c-0.3-1.1-0.6-2.2-0.9-3.2
		c-0.1-0.2-0.1-0.4-0.2-0.7c-0.3-1.2-0.6-2.4-0.8-3.6c-0.1-0.3-0.1-0.7-0.2-1c-4.9-24.2,0.3-44.3,2.3-52c1-3.9,2.1-7,2.9-9.2
		c0,0,0-0.1,0-0.1c1.1-3.9,2.4-8.1,3.9-12.4c0.6,0.3,1.2,0.5,1.7,0.8c0.2,0.1,0.4,0.2,0.6,0.2c0.4,0.2,0.8,0.4,1.3,0.5c0,0,0,0,0,0
		c0.6,0.3,1.3,0.5,1.9,0.8c0,0,0.1,0,0.1,0.1c0,0,0.1,0,0.1,0c0.4,0.2,0.8,0.3,1.1,0.4c0.5,0.2,1.1,0.4,1.6,0.6
		c0.8,0.3,1.5,0.5,2.3,0.8c1,0.3,2,0.6,3,0.9c0.2,0.1,0.3,0.1,0.5,0.2l1.2,0.4c1.8,0.5,3.6,0.9,5.4,1.3c0.9,0.2,1.8,0.4,2.7,0.5
		c0.5,0.1,0.9,0.2,1.4,0.2c0.6,0.1,1.2,0.2,1.8,0.3c2.8,0.4,5.7,0.7,8.5,0.9c0.6,0,1.1,0.1,1.7,0.1c0.4,0,0.8,0.1,1.1,0.1
		c0.6,0,1.2,0,1.8,0.1c0.6,0,1.2,0,1.8,0c0.9,0,1.8,0,2.6,0c0.8,0,1.6-0.1,2.4-0.1c0.2,0,0.4,0,0.6,0c0.7,0,1.4-0.1,2.1-0.1
		c0.2,0,0.3,0,0.4,0c0.7-0.1,1.5-0.1,2.2-0.2c0.1,0,0.1,0,0.2,0c1.2-0.1,2.4-0.3,3.5-0.4c4-0.5,7.9-1.3,11.7-2.4
		c0.6-0.2,1.2-0.3,1.9-0.5c0.1,0,0.2-0.1,0.4-0.1c0.3-0.1,0.7-0.2,1-0.3c0.4-0.1,0.8-0.2,1.2-0.4c0.1,0,0.3-0.1,0.4-0.1
		c0.7-0.2,1.4-0.4,2.1-0.7c0.3-0.1,0.6-0.2,0.8-0.3c1.9-0.7,3.8-1.4,5.7-2.2c0.8-0.3,1.6-0.7,2.3-1.1c2.1-1,4.1-2,6.1-3.2
		c1.3,1.4,2.7,2.8,4.1,4.3c0.3,0.3,4.4,5,7.7,8.9c-14.1,12.7-33.8,20.6-55.6,20.6c-12.5,0-24.4-2.6-34.9-7.2
		c-0.2-0.1-0.3-0.1-0.5-0.2c-0.3-0.1-0.7-0.3-1-0.5c-0.1,0-0.1-0.1-0.2-0.1c-0.4,2-0.7,4.1-1,6.3c-0.1,0.3-0.1,0.6-0.1,1
		c-0.1,0.8-0.2,1.7-0.3,2.5c-1.1,10-3,28.8,4.9,50.6c2.5,6.9,7.4,20.2,19.9,33.2c11,11.4,32.1,21.8,34.2,22.9
		C136.5,309.2,136.6,309.3,136.6,309.3z"/>
	<path class="st0" d="M136.7,309.4c0.1,0.1,0.2,0.1,0.3,0.2v40.1c0.1,0.4,0.1,0.9,0,1.3c-0.1,0.6-0.2,1.2-0.4,1.7
		c-0.6,1.9-2,3.9-3.8,5.8c-2.4,2.5-5.8,5-9.9,7c-0.8,0.4-1.7,0.8-2.5,1.2c-5.4,2.3-10.7,3.3-15.1,3.2c-2.4-0.1-4.5-0.5-6.1-1.3
		c-0.2-0.1-0.4-0.2-0.7-0.3c-0.2-0.1-0.3-0.2-0.5-0.3c-0.2-0.1-0.3-0.2-0.5-0.4c-0.4-0.4-0.8-0.8-1.2-1.2c-0.1-0.2-0.2-0.3-0.3-0.4
		c-0.1-0.2-0.2-0.4-0.3-0.6c-2.3-5.4,4.7-13.5,15.6-18.3c0,0,0.5-19.6-10.2-37c-0.2-0.4-0.5-0.8-0.7-1.2c-0.3-0.4-0.5-0.8-0.8-1.2
		c-0.3-0.4-0.6-0.8-0.9-1.2c-0.1-0.1-0.2-0.3-0.3-0.4c-0.4-0.5-0.7-1-1.1-1.5c-0.4-0.6-0.8-1.1-1.2-1.6c-0.4-0.4-0.7-0.9-1.1-1.3
		c-0.2-0.3-0.5-0.6-0.7-0.8c-0.5-0.6-1-1.1-1.5-1.6c-0.4-0.4-0.7-0.8-1.1-1.1c-0.4-0.4-0.7-0.7-1.1-1.1c-0.7-0.7-1.5-1.4-2.2-2.1
		c-0.7-0.7-1.4-1.3-2.2-2c-0.3-0.3-0.7-0.7-1.1-1c-1.1-1-2.1-2-3.1-3c-1.9-2-3.6-4-5.2-6.1c0,0-0.1-0.1-0.1-0.1
		c-2.9-3.9-5.2-7.8-7.1-11.6c-0.9-1.9-1.7-3.7-2.5-5.5c0,0,0-0.1-0.1-0.1c-2-5-3.4-9.6-4.5-13.3c-0.3-1.1-0.6-2.2-0.9-3.2
		c-0.1-0.2-0.1-0.4-0.2-0.7c-0.3-1.1-0.6-2.2-0.8-3.3c0-0.1,0-0.2-0.1-0.2c-0.1-0.3-0.1-0.7-0.2-1c-1.1-5.6-1.7-10.9-1.9-16
		c-0.1-2.8-0.1-5.5-0.1-8.1c0.1-2,0.2-3.9,0.3-5.7c0-0.4,0.1-0.8,0.1-1.2c0.1-0.8,0.2-1.6,0.2-2.3c0.1-0.5,0.1-1.1,0.2-1.6
		c0.1-0.5,0.1-1,0.2-1.5c0.1-0.5,0.1-1,0.2-1.5c0.1-0.5,0.2-1,0.2-1.4c0.1-0.5,0.2-1,0.3-1.5c0.1-0.4,0.1-0.8,0.2-1.2
		c0.1-0.6,0.2-1.1,0.3-1.6c0.1-0.6,0.2-1.2,0.4-1.7c0-0.1,0-0.2,0.1-0.3c0.1-0.4,0.2-0.9,0.3-1.3c0.2-1,0.5-2,0.7-2.8
		c0.1-0.3,0.1-0.5,0.2-0.8c0.1-0.3,0.1-0.5,0.2-0.8c0.1-0.3,0.1-0.5,0.2-0.7c1-3.9,2.1-7,2.9-9.2c0,0,0-0.1,0-0.1
		c1.1-3.9,2.4-8.1,3.9-12.4c0.6,0.3,1.2,0.5,1.7,0.8c0.2,0.1,0.4,0.2,0.6,0.2c0.4,0.2,0.8,0.4,1.3,0.5c0,0,0,0,0,0
		c0.6,0.3,1.3,0.5,1.9,0.8c0,0,0.1,0,0.1,0.1c0,0,0.1,0,0.1,0c0.4,0.2,0.8,0.3,1.1,0.4c0.5,0.2,1.1,0.4,1.6,0.6
		c0.8,0.3,1.5,0.5,2.3,0.8c1,0.3,2,0.6,3,0.9c0.2,0.1,0.3,0.1,0.5,0.2l1.2,0.4c1.8,0.5,3.6,0.9,5.4,1.3c0.9,0.2,1.8,0.4,2.7,0.5
		c0.5,0.1,0.9,0.2,1.4,0.2c0.6,0.1,1.2,0.2,1.8,0.3c2.8,0.4,5.7,0.7,8.5,0.9c0.6,0,1.1,0.1,1.7,0.1c0.4,0,0.8,0.1,1.1,0.1
		c0.6,0,1.2,0,1.8,0.1c0.6,0,1.2,0,1.8,0c0.9,0,1.8,0,2.6,0c0.8,0,1.6-0.1,2.4-0.1c0.2,0,0.4,0,0.6,0c0.7,0,1.4-0.1,2.1-0.1
		c0.2,0,0.3,0,0.4,0c0.7-0.1,1.5-0.1,2.2-0.2c0.1,0,0.1,0,0.2,0c1.2-0.1,2.4-0.3,3.5-0.4c4-0.5,7.9-1.3,11.7-2.4
		c0.6-0.2,1.2-0.3,1.9-0.5c0.1,0,0.2-0.1,0.4-0.1c0.3-0.1,0.7-0.2,1-0.3c0.4-0.1,0.8-0.2,1.2-0.4c0.1,0,0.3-0.1,0.4-0.1
		c0.7-0.2,1.4-0.4,2.1-0.7c0.3-0.1,0.6-0.2,0.8-0.3c1.9-0.7,3.8-1.4,5.7-2.2c0.8-0.3,1.6-0.7,2.3-1.1c2.1-1,4.1-2,6.1-3.2
		c1.3,1.4,2.7,2.8,4.1,4.3c0.3,0.3,4.4,5,7.7,8.9c-14.1,12.7-33.8,20.6-55.6,20.6c-12.5,0-24.4-2.6-34.9-7.2
		c-0.2-0.1-0.3-0.1-0.5-0.2c-0.3-0.1-0.7-0.3-1-0.5c-0.1,0-0.1-0.1-0.2-0.1c-0.4,2-0.7,4.1-1,6.3c-0.1,0.3-0.1,0.6-0.1,1
		c-0.1,0.8-0.2,1.7-0.3,2.5c-0.1,0.5-0.1,1.1-0.2,1.6c-1.1,10.3-2.4,28.3,5,49c1,2.7,2.4,6.6,4.5,10.9c3.1,6.6,7.9,14.5,15.4,22.2
		c2.5,2.6,5.6,5.2,8.9,7.6c0.6,0.5,1.3,0.9,1.9,1.4c1.2,0.9,2.5,1.7,3.7,2.5c0.6,0.4,1.2,0.8,1.8,1.2c4.3,2.8,8.5,5.1,11.7,6.9
		c0.4,0.2,0.8,0.4,1.2,0.6c0.4,0.2,0.8,0.4,1.2,0.6c0.3,0.2,0.6,0.3,0.8,0.4c0,0,0,0,0,0c0.3,0.2,0.6,0.3,0.8,0.4
		c0.2,0.1,0.3,0.2,0.5,0.3c0.8,0.4,1.3,0.7,1.6,0.8c0.1,0,0.1,0.1,0.2,0.1C136.6,309.3,136.6,309.3,136.7,309.4z"/>
	<path class="st0" d="M195.1,110.9c0,0.6,0,1.2,0,1.8c0,0.6,0,1.1-0.1,1.7c0,0.4,0,0.8-0.1,1.2c0,0.4-0.1,0.7-0.1,1.1
		c0,0.4-0.1,0.9-0.1,1.3c-0.1,0.4-0.1,0.8-0.2,1.2c-0.1,0.6-0.2,1.2-0.3,1.8c-0.1,0.4-0.2,0.9-0.2,1.3c0,0.1,0,0.1,0,0.2
		c-0.1,0.4-0.2,0.8-0.3,1.2c-0.1,0.4-0.2,0.7-0.3,1.1c-0.1,0.3-0.2,0.7-0.3,1c-0.6,2.1-1.3,4.2-2.1,6.3c-0.5,1.2-1,2.3-1.5,3.5
		c-0.2,0.4-0.4,0.8-0.5,1.1c-0.2,0.4-0.4,0.8-0.6,1.1c-0.2,0.4-0.4,0.8-0.6,1.2c-0.3,0.5-0.5,1-0.8,1.4c-0.3,0.6-0.7,1.2-1.1,1.8h0
		c-13.9,22-41.9,37-74.3,37c-32.7,0-61.1-15.4-74.8-37.8c0,0,0-0.1-0.1-0.1c-0.2-0.4-0.5-0.7-0.7-1.1c-0.9-1.5-1.7-3-2.4-4.6
		c-0.2-0.4-0.4-0.8-0.5-1.2c0,0,0,0,0,0c-0.2-0.5-0.5-1-0.7-1.6c-0.2-0.5-0.4-1.1-0.6-1.6c-0.2-0.5-0.4-1-0.6-1.5c0,0,0-0.1,0-0.1
		c-0.2-0.5-0.4-1.1-0.5-1.6c-0.4-1.2-0.7-2.5-1-3.8c-0.1-0.3-0.2-0.6-0.2-0.9c-0.1-0.4-0.2-0.8-0.2-1.1c0,0,0-0.1,0-0.1
		c-0.1-0.5-0.2-1-0.3-1.4c-0.1-0.5-0.2-1-0.2-1.5c0-0.3-0.1-0.7-0.1-1c0-0.3-0.1-0.7-0.1-1c-0.1-0.6-0.1-1.2-0.2-1.8
		c0-0.1,0-0.2,0-0.3c0-0.4-0.1-0.7-0.1-1c0-0.5-0.1-0.9-0.1-1.4c0-0.6,0-1.2,0-1.8c0-0.6,0-1.2,0-1.8c0-1.7,0.2-3.3,0.4-4.9
		c0-0.3,0.1-0.6,0.1-0.9c0-0.3,0.1-0.5,0.1-0.8c0-0.3,0.1-0.7,0.2-1c0-0.2,0.1-0.3,0.1-0.4c0.1-0.5,0.2-0.9,0.3-1.4
		c0-0.1,0-0.1,0-0.2c0.1-0.5,0.2-1,0.3-1.5c0-0.1,0-0.1,0-0.2c0.1-0.4,0.2-0.8,0.3-1.2c0-0.2,0.1-0.4,0.1-0.5c0.1-0.3,0.2-0.7,0.3-1
		c0.1-0.2,0.1-0.5,0.2-0.7c0.1-0.3,0.2-0.7,0.3-1c0-0.2,0.1-0.3,0.2-0.5c0.1-0.4,0.3-0.8,0.4-1.2c0.4-1,0.8-2,1.2-3
		c0.6-1.5,1.3-2.9,2-4.3c0.3-0.5,0.6-1.1,0.8-1.6c0.1-0.2,0.2-0.3,0.2-0.4c0.4-0.8,0.9-1.5,1.3-2.2c0.6-0.9,1.2-1.8,1.8-2.7
		c0.3-0.5,0.6-0.9,0.9-1.3c0.3-0.4,0.7-0.9,1-1.3c0.3-0.4,0.7-0.8,1-1.3c0,0,0,0,0,0c0.3-0.4,0.7-0.8,1-1.3c0.4-0.4,0.7-0.8,1.1-1.3
		c0.7-0.8,1.4-1.6,2.1-2.3c0,0,0,0,0,0c0,0,0.1-0.1,0.1-0.1c0.4-0.4,0.8-0.8,1.2-1.2c0.7-0.7,1.5-1.5,2.3-2.2
		c0.1-0.1,0.1-0.1,0.2-0.2c0.2-0.2,0.4-0.3,0.5-0.5c4.7-4.1,10-7.8,15.8-10.9c2.5-1.3,5.1-2.5,7.8-3.6c11.3-4.7,24.2-7.3,37.7-7.3
		c3.7,0,7.3,0.2,10.9,0.6c0.6,0.1,1.2,0.1,1.9,0.2c0.6,0.1,1.2,0.2,1.8,0.2c0.5,0.1,1,0.2,1.5,0.2c0.3,0,0.6,0.1,0.9,0.2
		c0.5,0.1,1.1,0.2,1.7,0.3c0.8,0.2,1.7,0.3,2.5,0.5c0.5,0.1,0.9,0.2,1.3,0.3c1,0.2,2,0.5,3.1,0.8c0.5,0.1,1,0.3,1.5,0.4
		c0.6,0.2,1.1,0.3,1.7,0.5c1,0.3,2.1,0.6,3.1,1c0.6,0.2,1.3,0.4,1.9,0.7c0.4,0.1,0.7,0.3,1.1,0.4c0.2,0.1,0.4,0.2,0.6,0.2
		c0.5,0.2,1.1,0.4,1.6,0.6c0.5,0.2,1.1,0.4,1.6,0.7c0.5,0.2,0.9,0.4,1.4,0.6c1.2,0.5,2.3,1.1,3.5,1.7h0c1,0.5,1.9,1,2.8,1.5
		c0.5,0.3,1,0.5,1.5,0.8c0.4,0.2,0.9,0.5,1.3,0.8c0.8,0.5,1.7,1,2.5,1.5c0.4,0.3,0.8,0.5,1.3,0.8c3.4,2.3,6.7,4.8,9.6,7.6
		c0.3,0.3,0.7,0.6,1,0.9c0.3,0.3,0.6,0.6,0.9,0.9c0.4,0.4,0.8,0.8,1.2,1.2c0,0,0.1,0.1,0.1,0.1v0c1,1,1.9,2,2.8,3
		c0.3,0.3,0.5,0.6,0.8,0.9c0.8,1,1.6,2,2.3,3c0.3,0.3,0.5,0.7,0.8,1.1c1.2,1.8,2.4,3.6,3.5,5.5v0c0.8,1.3,1.5,2.7,2.1,4
		c0.2,0.4,0.3,0.7,0.5,1.1c0,0,0,0.1,0.1,0.1c0.2,0.4,0.4,0.9,0.6,1.3c0,0.1,0.1,0.2,0.1,0.4c0.2,0.5,0.4,0.9,0.6,1.4
		c0.2,0.5,0.4,1.1,0.6,1.6c0.1,0.3,0.2,0.5,0.3,0.8c0.1,0.3,0.2,0.6,0.3,0.8c0.2,0.6,0.3,1.1,0.5,1.6c0.3,1,0.5,2.1,0.8,3.1
		c0.1,0.4,0.2,0.9,0.3,1.3c0,0.1,0,0.2,0.1,0.3c0.1,0.4,0.1,0.7,0.2,1.1c0,0.1,0.1,0.3,0.1,0.4c0.1,0.4,0.1,0.9,0.2,1.3
		c0,0.1,0,0.1,0,0.2c0,0.4,0.1,0.7,0.1,1.1c0,0.3,0.1,0.7,0.1,1c0,0.2,0,0.4,0,0.6c0,0.4,0.1,0.8,0.1,1.1c0,0.7,0.1,1.4,0.1,2.2
		C195.1,109.8,195.1,110.4,195.1,110.9z"/>
	<path class="st2" d="M135.8,309.6v40.1c0.1,0.4,0.1,0.9,0,1.3c-0.1,0.6-0.2,1.2-0.4,1.7c-0.6,1.9-2,3.9-3.8,5.8
		c-2.4,2.5-5.8,5-9.9,7c-0.8,0.4-1.7,0.8-2.5,1.2c-4.9,2.1-9.8,3.1-13.9,3.2c-2.9,0.1-5.4-0.4-7.3-1.3c-0.2-0.1-0.4-0.2-0.7-0.3
		c-0.2-0.1-0.3-0.2-0.5-0.3c-0.2-0.1-0.3-0.2-0.5-0.4c-0.4-0.4-0.8-0.8-1.2-1.2c-0.1-0.2-0.2-0.3-0.3-0.4c-0.1-0.2-0.2-0.4-0.3-0.6
		c-2.3-5.4,4.7-13.5,15.6-18.3c0,0,0.5-19.6-10.2-37c-0.2-0.4-0.5-0.8-0.7-1.2c-0.3-0.4-0.5-0.8-0.8-1.2c-0.4-0.6-0.8-1.1-1.2-1.7
		c-0.4-0.5-0.7-1-1.1-1.5c-0.1-0.2-0.3-0.4-0.4-0.5c-0.3-0.4-0.6-0.7-0.8-1c-0.4-0.4-0.7-0.9-1.1-1.3c-0.2-0.3-0.5-0.6-0.7-0.8
		c-0.5-0.6-1-1.1-1.5-1.6c-0.4-0.4-0.7-0.8-1.1-1.1c-0.4-0.4-0.7-0.7-1.1-1.1c-0.7-0.7-1.5-1.4-2.2-2.1c-0.7-0.7-1.4-1.3-2.2-2
		c-0.3-0.3-0.7-0.7-1.1-1c-0.4-0.3-0.7-0.7-1.1-1c-2.4-2.9-4.4-5.7-6-8.1c0,0-0.1-0.1-0.1-0.1c-2.9-3.9-5.2-7.8-7.1-11.6h19.8
		c0.4,0.7,0.8,1.3,1.3,2c2.7,4.2,6.1,8.7,10.3,13.1c2.5,2.6,5.6,5.2,8.9,7.6c0.6,0.5,1.3,0.9,1.9,1.4c1.2,0.9,2.5,1.7,3.7,2.5
		c0.6,0.4,1.2,0.8,1.8,1.2c4.3,2.8,8.5,5.1,11.7,6.9c0.4,0.2,0.8,0.4,1.2,0.6c0.4,0.2,0.8,0.4,1.2,0.6c0.3,0.2,0.6,0.3,0.8,0.4
		c0,0,0,0,0,0c0.3,0.2,0.6,0.3,0.8,0.4c0.2,0.1,0.3,0.2,0.5,0.3c0.8,0.4,1.3,0.7,1.6,0.8c0.1,0,0.1,0.1,0.2,0.1c0,0,0.1,0.1,0.1,0.1
		C135.6,309.4,135.7,309.5,135.8,309.6z"/>
	<path class="st3" d="M117.3,179c0.3,0,0.7,0,1-0.1c-0.4,0-0.8,0.1-1.2,0.1C117.2,179,117.2,179,117.3,179z"/>
	<path class="st3" d="M144.3,173.7c0.1,0,0.2-0.1,0.3-0.1c-0.3,0.1-0.6,0.2-0.9,0.3C143.9,173.9,144.1,173.8,144.3,173.7z"/>
	<path class="st0" d="M106.8,92.6c-0.4,4.8-1.2,9.4-2.8,14.3c-0.1,0.4-0.2,0.8-0.4,1.3c-1.6,4.5-6.6,16.8-18.5,24.6
		c0,0-13.9,9.2-40.7,8.7c-2.7,0-5.2-0.3-5.2-0.3c-0.8-0.1-1.6-0.2-2.4-0.3c0,0,0-0.1-0.1-0.1c-0.2-0.4-0.5-0.7-0.7-1.1
		c-0.9-1.5-1.7-3-2.4-4.6c-0.2-0.4-0.4-0.8-0.5-1.2c0,0,0,0,0,0c-0.2-0.5-0.5-1-0.7-1.6c-0.2-0.5-0.4-1.1-0.6-1.6
		c-0.2-0.5-0.4-1-0.6-1.5c0,0,0-0.1,0-0.1c-0.2-0.5-0.4-1.1-0.5-1.6c-0.4-1.2-0.7-2.5-1-3.8c-0.1-0.3-0.2-0.6-0.2-0.9
		c-0.1-0.4-0.2-0.8-0.2-1.1c0,0,0-0.1,0-0.1c-0.1-0.5-0.2-1-0.3-1.4c-0.1-0.5-0.2-1-0.2-1.5c0-0.3-0.1-0.7-0.1-1
		c0-0.3-0.1-0.7-0.1-1c-0.1-0.6-0.1-1.2-0.2-1.8c0-0.1,0-0.2,0-0.3c0-0.4-0.1-0.7-0.1-1c0-0.5-0.1-0.9-0.1-1.4c0-0.6,0-1.2,0-1.8
		c0-0.6,0-1.2,0-1.8c0-1.7,0.2-3.3,0.4-4.9c0-0.3,0.1-0.6,0.1-0.9c0-0.3,0.1-0.5,0.1-0.8c0-0.3,0.1-0.7,0.2-1c0-0.2,0.1-0.3,0.1-0.4
		c0.1-0.5,0.2-0.9,0.3-1.4c0-0.1,0-0.1,0-0.2c0.1-0.5,0.2-1,0.3-1.5c0-0.1,0-0.1,0-0.2c0.1-0.4,0.2-0.8,0.3-1.2
		c0-0.2,0.1-0.4,0.1-0.5c0.1-0.3,0.2-0.7,0.3-1c0.1-0.2,0.1-0.5,0.2-0.7c0.1-0.3,0.2-0.7,0.3-1c0-0.2,0.1-0.3,0.2-0.5
		c0.1-0.4,0.3-0.8,0.4-1.2c0.4-1,0.8-2,1.2-3c0.6-1.5,1.3-2.9,2-4.3c0.3-0.5,0.6-1.1,0.8-1.6c0.1-0.1,0.2-0.3,0.2-0.4
		c0.4-0.8,0.9-1.5,1.3-2.2c0.6-0.9,1.2-1.8,1.8-2.7c0.3-0.5,0.6-0.9,0.9-1.3c0.3-0.4,0.7-0.9,1-1.3c0.3-0.4,0.7-0.8,1-1.3
		c0,0,0,0,0,0c0.3-0.4,0.7-0.8,1-1.3c0.4-0.4,0.7-0.8,1.1-1.3c0.7-0.8,1.4-1.6,2.1-2.3c0,0,0.1-0.1,0.1-0.1c0.4-0.4,0.8-0.8,1.2-1.2
		c0.8-0.8,1.6-1.6,2.5-2.3c0.6-0.5,1.2-1,1.8-1.6c4.4-3.6,9.3-6.9,14.6-9.7c2.5-1.3,5.1-2.5,7.8-3.6c8-3.3,16.8-5.6,26-6.7
		c1.5-0.2,3-0.3,4.6-0.5c0.2,5.2,0.5,9.5,0.6,12.2C106.3,72.1,107.6,83,106.8,92.6z"/>
	<path class="st0" d="M195.2,110.9c0,0.6,0,1.2,0,1.8c0,0.6,0,1.1-0.1,1.7c0,0.4,0,0.8-0.1,1.2c0,0.4-0.1,0.7-0.1,1.1
		c0,0.4-0.1,0.9-0.1,1.3c-0.1,0.4-0.1,0.8-0.2,1.2c-0.1,0.6-0.2,1.2-0.3,1.8c-0.1,0.4-0.2,0.9-0.2,1.3c0,0.1,0,0.1,0,0.2
		c-0.1,0.4-0.2,0.8-0.3,1.2c-0.1,0.4-0.2,0.7-0.3,1.1c-0.1,0.3-0.2,0.7-0.3,1c-0.6,2.1-1.3,4.2-2.1,6.3c-0.1,0.4-0.3,0.8-0.5,1.2
		c-0.3,0.8-0.7,1.5-1,2.3c-0.2,0.4-0.4,0.8-0.5,1.1c-0.2,0.4-0.4,0.8-0.6,1.1c-0.2,0.4-0.4,0.8-0.6,1.2c-0.3,0.5-0.5,1-0.8,1.4
		c-0.3,0.6-0.7,1.2-1.1,1.8h0c-0.4,0-0.7,0.1-1.1,0.1c0,0-2.5,0.2-5.1,0.3c-26,0.4-39.5-8.5-39.5-8.5c-11.2-7.4-16.1-18.7-17.8-23.4
		c-0.3-0.9-0.6-1.7-0.6-1.7c-0.5-1.7-0.9-3.3-1.2-4.9c-0.2-1.4-0.6-5.5-1-11c-0.4-6.2-0.8-14.3-1-22.2c-0.2-10.1,0-23.9,0-25.2v-0.8
		c0-0.2,0-0.4,0-0.6c0-0.4,0-0.8,0-1.1c1.3,0.1,2.5,0.2,3.8,0.3c0.6,0.1,1.2,0.1,1.9,0.2c0.6,0.1,1.2,0.2,1.8,0.2
		c0.5,0.1,1,0.2,1.5,0.2c0.3,0,0.6,0.1,0.9,0.2c0.5,0.1,1.1,0.2,1.7,0.3c0.8,0.2,1.7,0.3,2.5,0.5c0.5,0.1,0.9,0.2,1.3,0.3
		c1,0.2,2,0.5,3.1,0.8c0.5,0.1,1,0.3,1.5,0.4c0.6,0.2,1.1,0.3,1.7,0.5c1,0.3,2.1,0.6,3.1,1c0.6,0.2,1.3,0.4,1.9,0.7
		c0.4,0.1,0.7,0.3,1.1,0.4c0.2,0.1,0.4,0.2,0.6,0.2c0.5,0.2,1.1,0.4,1.6,0.6c0.5,0.2,1.1,0.4,1.6,0.7c0.5,0.2,0.9,0.4,1.4,0.6
		c1.2,0.5,2.3,1.1,3.5,1.7h0c1,0.5,1.9,1,2.8,1.5c0.5,0.3,1,0.5,1.5,0.8c0.4,0.2,0.9,0.5,1.3,0.8c0.8,0.5,1.7,1,2.5,1.5
		c0.4,0.3,0.8,0.5,1.3,0.8c3.4,2.3,6.7,4.8,9.6,7.6c0.3,0.3,0.7,0.6,1,0.9c0.3,0.3,0.6,0.6,0.9,0.9c0.4,0.4,0.8,0.8,1.2,1.2
		c0,0,0.1,0.1,0.1,0.1v0c1,1,1.9,2,2.8,3c0.3,0.3,0.5,0.6,0.8,0.9c0.8,1,1.6,2,2.3,3c0.3,0.3,0.5,0.7,0.8,1.1
		c1.2,1.8,2.4,3.6,3.5,5.5v0c0.8,1.3,1.5,2.7,2.1,4c0.2,0.4,0.3,0.7,0.5,1.1c0,0,0,0.1,0.1,0.1c0.2,0.4,0.4,0.9,0.6,1.3
		c0,0.1,0.1,0.2,0.1,0.4c0.2,0.5,0.4,0.9,0.6,1.4c0.2,0.5,0.4,1.1,0.6,1.6c0.1,0.3,0.2,0.5,0.3,0.8h0c0.1,0.3,0.2,0.6,0.3,0.8
		c0.2,0.6,0.3,1.1,0.5,1.6c0.3,1,0.5,2.1,0.8,3.1c0.1,0.4,0.2,0.9,0.3,1.3c0,0.1,0,0.2,0.1,0.3c0.1,0.4,0.1,0.7,0.2,1.1
		c0,0.1,0.1,0.3,0.1,0.4c0.1,0.4,0.1,0.9,0.2,1.3c0,0.1,0,0.1,0,0.2c0,0.4,0.1,0.7,0.1,1.1c0,0.3,0.1,0.7,0.1,1c0,0.2,0,0.4,0,0.6
		c0,0.4,0.1,0.8,0.1,1.1c0,0.7,0.1,1.4,0.1,2.2C195.2,109.8,195.2,110.4,195.2,110.9z"/>
	<path class="st4" d="M130.5,140.6c0,0.5,0,1.3-0.2,2.2c-0.2,0.8-0.4,1.7-0.8,2.7c-0.3,0.6-0.7,1.3-1.2,1.8
		c-0.6,0.8-1.1,1.3-1.1,1.3c-0.4,0.4-0.8,0.7-0.9,0.8c-0.1,0.1-0.2,0.2-0.4,0.3c-0.6,0.4-1.8,1-3.3,1.1c-0.2,0-0.4,0-0.6,0
		c-0.1,0-0.2,0-0.3,0c-0.1,0-0.2,0-0.3,0c-0.2,0-0.4,0-0.6,0c-2-0.2-3.4-1.1-3.8-1.3c-0.1-0.1-0.3-0.2-0.6-0.4
		c-0.1-0.1-0.1-0.1-0.2-0.2c-0.3-0.3-0.8-0.7-1.2-1.3c-0.2-0.3-0.4-0.6-0.7-1c-0.2,0.4-0.4,0.7-0.6,1c0,0,0,0,0,0.1
		c-0.5,0.7-1,1.2-1.4,1.5c-0.3,0.2-0.5,0.4-0.6,0.4c-0.3,0.2-1.8,1.2-3.8,1.3c-0.2,0-0.3,0-0.5,0h0c0,0,0,0,0,0c-0.1,0-0.2,0-0.3,0
		c-0.1,0-0.2,0-0.3,0h0c0,0,0,0,0,0c-0.2,0-0.4,0-0.5,0c-0.8-0.1-1.6-0.3-2.2-0.5c-0.8-0.3-1.4-0.7-1.6-0.8
		c-0.1-0.1-0.4-0.3-0.9-0.7h0c-0.6-0.5-1.3-1.4-2-2.7c0,0,0,0,0,0c-0.1-0.2-0.2-0.3-0.2-0.4c-0.3-0.7-0.6-1.5-0.7-2.1
		c-0.3-1.2-0.3-2.1-0.3-2.8c0.2,0,1.1,0,1.4,0c0,0.5,0,1.3,0.2,2.2c0.1,0.4,0.2,0.8,0.4,1.3c0,0.1,0.1,0.2,0.1,0.4
		c0.2,0.4,0.4,0.9,0.7,1.3c0.2,0.2,0.3,0.5,0.5,0.7c0.3,0.4,0.6,0.7,0.9,1c0.5,0.4,1,0.8,1.6,1.1c0.3,0.2,0.6,0.3,0.9,0.4
		c0.7,0.2,1.4,0.4,2.1,0.4c0.7,0,1.4-0.2,2.1-0.4c1.9-0.7,3.5-2.1,4.4-4.1v-8.2h1.4v8.2c0.3,0.7,0.7,1.3,1.2,1.8
		c0.9,1,2,1.8,3.2,2.3c0.7,0.2,1.4,0.4,2.1,0.4c0.8,0,1.5-0.2,2.2-0.4c0.7-0.3,1.5-0.6,2.1-1.1c0.2-0.2,0.5-0.4,0.7-0.6
		c0.1-0.1,0.2-0.2,0.3-0.3s0.2-0.3,0.3-0.4c0.1-0.2,0.3-0.3,0.4-0.6c0.2-0.3,0.4-0.6,0.5-0.9c0,0,0,0,0,0c0.1-0.1,0.1-0.3,0.2-0.4
		c0.1-0.2,0.2-0.5,0.3-0.7c0.2-0.6,0.3-1.1,0.4-1.6c0.1-0.7,0.1-1.2,0.1-1.6C129.4,140.6,130.3,140.6,130.5,140.6z"/>
	<path class="st5" d="M56.5,141.3c0.3,0.6-0.1,1.4-0.8,1.3c-3.8-0.1-8.2,0-13,0.5c-7,0.8-12.8,2.4-17.4,3.9
		c-0.6,0.1-1.2-0.3-1.3-0.8c-0.1-0.5,0.4-1,1.1-1.1c4.5-1.6,10.5-3.3,17.7-4.1c4.9-0.5,9.3-0.5,13.1-0.3
		C56.1,140.9,56.4,141,56.5,141.3C56.5,141.3,56.5,141.3,56.5,141.3z"/>
	
		<ellipse transform="matrix(5.607642e-02 -0.9984 0.9984 5.607642e-02 18.8182 278.942)" class="st0" cx="156.9" cy="129.5" rx="22.8" ry="22.4"/>
	<g id="olhos_2_">
		<circle class="st6" cx="143.8" cy="107.5" r="12.5"/>
		<circle class="st6" cx="83.2" cy="108.6" r="12.5"/>
	</g>
	<ellipse class="st7" cx="145.6" cy="107.6" rx="9.5" ry="10.5"/>
	<circle class="st6" cx="148.5" cy="103.2" r="3.2"/>
	<ellipse class="st7" cx="84.7" cy="109" rx="10" ry="10.5"/>
	<path class="st0" d="M85.8,58.6C72.8,70.1,59.9,81.6,47,93c-4.6,4.1-9.3,8.2-13.9,12.4L34.5,93l1.2-10.6v0l6.1-55.4
		c10.7,7.7,21.4,15.3,32.2,23c0.1,0,0.1,0.1,0.2,0.1C77.9,53,81.8,55.8,85.8,58.6z"/>
	<path class="st0" d="M189.6,102.6c-3.6-3.2-7.1-6.4-10.7-9.5c-14-12.4-27.9-24.9-41.9-37.3c3.2-2.3,6.3-4.5,9.5-6.8
		c11.5-8.2,23.1-16.5,34.6-24.7l6.3,58.1v0l1.2,10.7L189.6,102.6z"/>
	<path class="st8" d="M309.1,100c-1.7,1.8-7.1,7-15.7,8c-5.1,0.6-9.3-0.5-11.6-1.3c-4.6-6.8-10.8-18.4-11-33.2
		c-0.1-6.4-0.3-14.1,4.9-20.9c7-9.2,20.6-13.9,28-10.2C314.4,48,306.7,69.2,309.1,100z"/>
	<path class="st8" d="M131.5,307.2c-3.7-2.2-5-3.2-5.7-3.8c0,0-0.9-0.9-2-1.9c-5.9-6.1-9.7-12.9-12.1-19c-3.1-7.9-3.9-14.6-4.2-17.2
		c-0.9-8.2,0.2-13.6-1.9-28.8c-0.6-4-1.1-7-2.2-10c-0.1-0.3-0.5-1.3-1.1-2.6c-2.1-4.6-5.9-13.1-14-18c-3.8-2.2-6.6-2.6-8.2-2.5
		c-0.7,0-1.2,0.1-1.4,0.2c-0.6,0.2-1.1,0.3-1.4,0.4c0,0-0.1,0-0.1,0c0,0,0,0,0,0c0,0,0,0,0,0c0,0-0.1,0-0.1,0
		c-0.1,0-0.2,0.1-0.2,0.1c-0.1,0-0.1,0-0.2,0.1c0,0-0.1,0-0.1,0v0c-0.7,0.3-1.1,0.5-1.2,0.6c-0.9,0.5-3.8,2.2-6.7,6.3
		c-4.9,6.9-6.8,15.7-7.2,17.2c0,0-1.7,8.2-0.6,16.5c0.1,0.8,0.2,1.6,0.4,2.4c0.1,0.5,0.2,1,0.2,1c0.2,1.2,0.5,2.4,0.8,3.6
		c0.1,0.2,0.1,0.4,0.2,0.7c1.3,4.7,3,9,4.7,12.8c0,0,0,0.1,0.1,0.1c0.1,0.3,1.6,3.7,2.6,5.8c0.4,0.8,2,4.2,4.7,8.2
		c0.9,1.3,1.6,2.3,2.2,3.1c0,0,0,0.1,0.1,0.1c1.6,2.5,3.6,5.2,6,8.1c3.4,4.1,7.7,8.6,12.9,13.1l0,0c2.1,1.9,4.2,2.9,8,4
		c1.7,0.5,3.7,1.1,6.6,1.6c0,0,7.1,1.1,15.7,1c0.2,0,0.4,0,1.2,0c0.8,0,1.4-0.1,1.5-0.1c1.2,0,4.8-0.6,7.1-1
		C134,308.6,132.6,307.8,131.5,307.2z"/>
	<path class="st2" d="M171.2,180.2c-14.1,12.8-33.9,20.7-55.7,20.7c-12.5,0-24.4-2.6-34.9-7.2c-0.5-0.2-1-0.4-1.5-0.7
		c-0.1,0-0.2-0.1-0.2-0.1c-4.9-2.3-9.4-5-13.5-8.1c1.2-4.6,2.7-9.5,4.5-14.7c4.3,2,8.9,3.8,13.6,5.1c3.8,1.1,7.6,2,11.6,2.6
		c1.1,0.2,2.3,0.3,3.4,0.5c0.4,0.1,0.8,0.1,1.2,0.2c0.7,0.1,1.5,0.2,2.2,0.2c1.1,0.1,2.1,0.2,3.2,0.2c0.6,0,1.1,0.1,1.7,0.1
		c0.6,0,1.1,0.1,1.7,0.1c1,0,2,0.1,3.1,0.1c1,0,2,0,3-0.1c0.8,0,1.6-0.1,2.4-0.1h0.1c0.1,0,0.1,0,0.2,0c0.3,0,0.7,0,1-0.1
		c0,0,0,0,0,0c0.7,0,1.4-0.1,2.1-0.2c0.6,0,1.1-0.1,1.6-0.2c0.5,0,1-0.1,1.5-0.2c0.6-0.1,1.2-0.1,1.8-0.2c0.2,0,0.3,0,0.4-0.1
		c1-0.1,2-0.3,3-0.4c0.6-0.1,1.1-0.2,1.7-0.3c0.6-0.1,1.1-0.2,1.7-0.3c1-0.2,1.9-0.4,2.8-0.6c1.6-0.4,3.2-0.8,4.8-1.3
		c0.3-0.1,0.7-0.2,1-0.3c1-0.3,2-0.6,3-1c0.2-0.1,0.4-0.2,0.6-0.2c0.1,0,0.2-0.1,0.3-0.1c0.2-0.1,0.4-0.1,0.6-0.2
		c0.7-0.2,1.4-0.5,2.1-0.8c1.4-0.5,2.8-1.1,4.1-1.7c0.6-0.3,1.2-0.5,1.8-0.8c0.1-0.1,0.2-0.1,0.3-0.1c1-0.4,1.9-0.9,2.8-1.4
		c1-0.5,2-1.1,3-1.6c1.3,1.4,2.7,2.8,4.1,4.3c0.3,0.3,4.4,5,7.7,8.9C171.1,180.1,171.2,180.1,171.2,180.2z"/>
	
		<ellipse transform="matrix(0.8932 -0.4497 0.4497 0.8932 -139.7878 119.8523)" class="st2" cx="182.4" cy="354.2" rx="14.3" ry="7"/>
	
		<ellipse transform="matrix(0.8932 -0.4497 0.4497 0.8932 -119.8571 128.9994)" class="st2" cx="211.6" cy="316.8" rx="42.2" ry="38.1"/>
	<circle class="st0" cx="228.4" cy="323.3" r="46.2"/>
	<circle class="st6" cx="142.6" cy="112" r="3.2"/>
	<circle class="st6" cx="87.7" cy="104.7" r="3.2"/>
	<circle class="st6" cx="81.8" cy="113.4" r="3.2"/>
	<path class="st0" d="M192.2,93.9H30.9c0.1-0.4,0.3-0.8,0.4-1.2c0.4-1,0.8-2,1.2-3c0.6-1.5,1.3-2.9,2-4.3c0.3-0.5,0.6-1.1,0.8-1.6
		c0.1-0.2,0.2-0.3,0.2-0.4l6.1-55.4c10.7,7.7,21.4,15.3,32.2,23c11.3-4.7,24.2-7.3,37.7-7.3c3.7,0,7.3,0.2,10.9,0.6
		c0.6,0.1,1.2,0.1,1.9,0.2c0.6,0.1,1.2,0.2,1.8,0.2c0.5,0.1,1,0.2,1.5,0.2c0.3,0,0.6,0.1,0.9,0.2c0.5,0.1,1.1,0.2,1.7,0.3
		c0.8,0.2,1.7,0.3,2.5,0.5c0.5,0.1,0.9,0.2,1.3,0.3c1,0.2,2,0.5,3.1,0.8c0.5,0.1,1,0.3,1.5,0.4c0.6,0.2,1.1,0.3,1.7,0.5
		c1,0.3,2.1,0.6,3.1,1c0.6,0.2,1.3,0.4,1.9,0.7c0.4,0.1,0.7,0.3,1.1,0.4c11.5-8.2,23.1-16.5,34.6-24.7l6.3,58.1v0
		c0.8,1.3,1.5,2.7,2.1,4c0.2,0.4,0.3,0.7,0.5,1.1c0,0,0,0.1,0.1,0.1c0.2,0.4,0.4,0.9,0.6,1.3c0,0.1,0.1,0.2,0.1,0.4
		c0.2,0.5,0.4,0.9,0.6,1.4c0.2,0.5,0.4,1.1,0.6,1.6C192,93.4,192.1,93.6,192.2,93.9z"/>
	<path class="st9" d="M176.1,36.8c0.5,13.5,1.1,27,1.6,40.5c-8.7-9.3-18-16.7-28.6-19.9C158,50.6,167,43.7,176.1,36.8z"/>
	<path class="st9" d="M47.1,39.2c-0.5,13.5-1.1,27-1.6,40.5c8.7-9.3,18-16.7,28.6-19.9C65.2,53,56.2,46.1,47.1,39.2z"/>
	<circle class="st8" cx="114.1" cy="140.8" r="27.4"/>
	<path class="st4" d="M126.6,128c0-2.7-2.5-4.9-5.6-4.9h-13.1c-3.1,0-5.6,2.2-5.6,4.9c0,1.5,0.8,2.8,1.9,3.7
		c2.9,2.3,6.2,4.2,10.3,5.5c3.8-1.3,7.2-3.2,10.3-5.5C125.8,130.8,126.6,129.5,126.6,128z"/>
	<path class="st4" d="M130.5,140.3c0,0.5,0,1.3-0.2,2.2c-0.2,0.8-0.4,1.7-0.8,2.7c-0.3,0.6-0.7,1.3-1.2,1.8
		c-0.6,0.8-1.1,1.3-1.1,1.3c-0.4,0.4-0.8,0.7-0.9,0.8c-0.1,0.1-0.2,0.2-0.4,0.3c-0.6,0.4-1.8,1-3.3,1.1c-0.2,0-0.4,0-0.6,0
		c-0.1,0-0.2,0-0.3,0c-0.1,0-0.2,0-0.3,0c-0.2,0-0.4,0-0.6,0c-2-0.2-3.4-1.1-3.8-1.3c-0.1-0.1-0.3-0.2-0.6-0.4
		c-0.1-0.1-0.1-0.1-0.2-0.2c-0.3-0.3-0.8-0.7-1.2-1.3c-0.2-0.3-0.4-0.6-0.7-1c-0.2,0.4-0.4,0.7-0.6,1c0,0,0,0,0,0.1
		c-0.5,0.7-1,1.2-1.4,1.5c-0.3,0.2-0.5,0.4-0.6,0.4c-0.3,0.2-1.8,1.2-3.8,1.3c-0.2,0-0.3,0-0.5,0h0c0,0,0,0,0,0c-0.1,0-0.2,0-0.3,0
		c-0.1,0-0.2,0-0.3,0h0c0,0,0,0,0,0c-0.2,0-0.4,0-0.5,0c-0.8-0.1-1.6-0.3-2.2-0.5c-0.8-0.3-1.4-0.7-1.6-0.8
		c-0.1-0.1-0.4-0.3-0.9-0.7h0c-0.6-0.5-1.3-1.4-2-2.7c0,0,0,0,0,0c-0.1-0.2-0.2-0.3-0.2-0.4c-0.3-0.7-0.6-1.5-0.7-2.1
		c-0.3-1.2-0.3-2.1-0.3-2.8c0.2,0,1.1,0,1.4,0c0,0.5,0,1.3,0.2,2.2c0.1,0.4,0.2,0.8,0.4,1.3c0,0.1,0.1,0.2,0.1,0.4
		c0.2,0.4,0.4,0.9,0.7,1.3c0.2,0.2,0.3,0.5,0.5,0.7c0.3,0.4,0.6,0.7,0.9,1c0.5,0.4,1,0.8,1.6,1.1c0.3,0.2,0.6,0.3,0.9,0.4
		c0.7,0.2,1.4,0.4,2.1,0.4c0.7,0,1.4-0.2,2.1-0.4c1.9-0.7,3.5-2.1,4.4-4.1v-8.2h1.4v8.2c0.3,0.7,0.7,1.3,1.2,1.8
		c0.9,1,2,1.8,3.2,2.3c0.7,0.2,1.4,0.4,2.1,0.4c0.8,0,1.5-0.2,2.2-0.4c0.7-0.3,1.5-0.6,2.1-1.1c0.2-0.2,0.5-0.4,0.7-0.6
		c0.1-0.1,0.2-0.2,0.3-0.3s0.2-0.3,0.3-0.4c0.1-0.2,0.3-0.3,0.4-0.6c0.2-0.3,0.4-0.6,0.5-0.9c0,0,0,0,0,0c0.1-0.1,0.1-0.3,0.2-0.4
		c0.1-0.2,0.2-0.5,0.3-0.7c0.2-0.6,0.3-1.1,0.4-1.6c0.1-0.7,0.1-1.2,0.1-1.6C129.4,140.3,130.3,140.3,130.5,140.3z"/>
	<path class="st5" d="M71.6,94.2c1.7,0.8,4.3,0.5,8.4-0.4c2.8-0.6,4.2-1,5.6-2.2c1.2-1.1,1.2-1.8,1.2-2c0-1-1-2-2.4-2.3
		c-4.3,0.3-8.5,1.3-12.8,2.7c-0.6,0.3-1,0.8-1.2,1.3c-0.1,0.2-0.4,1-0.1,1.8C70.7,93.7,71.3,94.1,71.6,94.2z"/>
	<path class="st5" d="M153,91.4c-1.6,0.9-4.3,0.7-8.4,0.1c-2.8-0.4-4.3-0.8-5.7-1.9c-1.3-1-1.3-1.7-1.3-1.9c0-1,0.9-2,2.3-2.4
		c4.3,0.1,8.6,0.8,12.9,1.9c0.6,0.3,1,0.7,1.3,1.2c0.1,0.2,0.5,0.9,0.2,1.7C153.9,90.9,153.3,91.3,153,91.4z"/>
	<path class="st4" d="M195.3,138.5"/>
	<path class="st5" d="M55.1,135.3c0.2,0.7-0.4,1.3-1,1.2c-3.8-0.8-8.1-1.5-12.9-1.8c-7-0.5-13.1,0-17.9,0.7c-0.6,0-1.1-0.5-1.1-1
		c0-0.5,0.6-0.9,1.2-0.9c4.7-0.8,10.9-1.3,18.1-0.8c4.9,0.4,9.2,1.2,13,2.1C54.8,134.8,55,135,55.1,135.3
		C55.1,135.3,55.1,135.3,55.1,135.3z"/>
	<path class="st5" d="M59.6,147.9c0.4,0.6,0.1,1.4-0.6,1.4c-3.8,0.4-8.2,1.1-12.8,2.3c-6.8,1.8-12.4,4.1-16.7,6.3
		c-0.6,0.2-1.2-0.1-1.4-0.6c-0.1-0.5,0.3-1,0.9-1.2c4.2-2.2,9.9-4.7,16.9-6.5c4.8-1.2,9.1-1.8,13-2.1
		C59.1,147.5,59.4,147.6,59.6,147.9C59.6,147.8,59.6,147.9,59.6,147.9z"/>
	<g>
		<path class="st5" d="M171.7,136.8c-0.3,0.6,0.1,1.4,0.8,1.3c3.8-0.1,8.2,0,13,0.5c7,0.8,12.8,2.4,17.4,3.9
			c0.6,0.1,1.2-0.3,1.3-0.8c0.1-0.5-0.4-1-1.1-1.1c-4.5-1.6-10.5-3.3-17.7-4.1c-4.9-0.5-9.3-0.5-13.1-0.3
			C172.1,136.3,171.8,136.5,171.7,136.8C171.7,136.8,171.7,136.8,171.7,136.8z"/>
		<path class="st5" d="M173.1,130.8c-0.2,0.7,0.4,1.3,1,1.2c3.8-0.8,8.1-1.5,12.9-1.8c7-0.5,13.1,0,17.9,0.7c0.6,0,1.1-0.5,1.1-1
			c0-0.5-0.6-0.9-1.2-0.9c-4.7-0.8-10.9-1.3-18.1-0.8c-4.9,0.4-9.2,1.2-13,2.1C173.4,130.3,173.2,130.5,173.1,130.8
			C173.1,130.8,173.1,130.8,173.1,130.8z"/>
		<path class="st5" d="M168.6,143.4c-0.4,0.6-0.1,1.4,0.6,1.4c3.8,0.4,8.2,1.1,12.8,2.3c6.8,1.8,12.4,4.1,16.7,6.3
			c0.6,0.2,1.2-0.1,1.4-0.6c0.1-0.5-0.3-1-0.9-1.2c-4.2-2.2-9.9-4.7-16.9-6.5c-4.8-1.2-9.1-1.8-13-2.1
			C169.1,143,168.8,143.1,168.6,143.4C168.6,143.3,168.6,143.3,168.6,143.4z"/>
	</g>
	<circle class="st4" cx="99" cy="140.2" r="0.7"/>
	<circle class="st4" cx="129.8" cy="140.2" r="0.7"/>
</g>
</svg>
