<?xml version="1.0" encoding="utf-8"?>
<!-- Generator: Adobe Illustrator 25.1.0, SVG Export Plug-In . SVG Version: 6.00 Build 0)  -->
<svg version="1.1" id="Layer_1" xmlns="http://www.w3.org/2000/svg" xmlns:xlink="http://www.w3.org/1999/xlink" x="0px" y="0px"
	 viewBox="0 0 372.7 402.4" style="enable-background:new 0 0 372.7 402.4;" xml:space="preserve">
<style type="text/css">
	.st0{fill:#282828;}
	.st1{fill:#FFF462;}
	.st2{fill:#231F20;}
	.st3{fill:#F49CC3;}
</style>
<path class="st0" d="M316,272.3c-9.5,9.8-19,19.6-28.5,29.4l0,0l0,0c-3.9-9.8-7.9-19.5-11.8-29.3c0,0,0.1,0,0.1-0.1
	c12.4-6.2,30.6-17.6,39.2-37.8c16.4-38.3-12.1-84-30.5-122.1C272.7,88,265,66.8,275.7,52.7c7-9.2,20.6-13.9,28-10.2
	c12.1,6.2,0.8,32.3,6.9,69.4c0.4,2.6,0.9,5.2,1.5,7.9c9,39.7,28.8,43.9,32.2,74.7C346.2,211.9,342.9,237.9,316,272.3z"/>
<path class="st0" d="M136.6,309.3c0.1,0.1,0.3,0.2,0.4,0.3v40.1c0.1,0.4,0.1,0.9,0,1.3c-0.1,0.6-0.2,1.2-0.4,1.7
	c-0.6,1.9-2,3.9-3.8,5.8c-2.4,2.5-5.8,5-9.9,7c-0.8,0.4-1.7,0.8-2.5,1.2c-11.3,4.8-22.3,4.1-24.7-1.4c-2.3-5.4,4.7-13.5,15.6-18.3
	c0,0,0.5-19.6-10.2-37c-6.7-10.9-13.3-15-19.1-21.1c-12.2-12.7-16.5-27.4-19.2-36.7c-0.3-1.1-0.6-2.2-0.9-3.2
	c-0.1-0.2-0.1-0.4-0.2-0.7c-0.3-1.2-0.6-2.4-0.8-3.6c-0.1-0.3-0.1-0.7-0.2-1c-4.9-24.2,0.3-44.3,2.3-52c1-3.9,2.1-7,2.9-9.2v-0.1
	c1.1-3.9,2.4-8.1,3.9-12.4c0.6,0.3,1.2,0.5,1.7,0.8c0.2,0.1,0.4,0.2,0.6,0.2c0.4,0.2,0.8,0.4,1.3,0.5l0,0c0.6,0.3,1.3,0.5,1.9,0.8
	c0,0,0.1,0,0.1,0.1h0.1c0.4,0.2,0.8,0.3,1.1,0.4c0.5,0.2,1.1,0.4,1.6,0.6c0.8,0.3,1.5,0.5,2.3,0.8c1,0.3,2,0.6,3,0.9
	c0.2,0.1,0.3,0.1,0.5,0.2l1.2,0.4c1.8,0.5,3.6,0.9,5.4,1.3c0.9,0.2,1.8,0.4,2.7,0.5c0.5,0.1,0.9,0.2,1.4,0.2
	c0.6,0.1,1.2,0.2,1.8,0.3c2.8,0.4,5.7,0.7,8.5,0.9c0.6,0,1.1,0.1,1.7,0.1c0.4,0,0.8,0.1,1.1,0.1c0.6,0,1.2,0,1.8,0.1
	c0.6,0,1.2,0,1.8,0c0.9,0,1.8,0,2.6,0c0.8,0,1.6-0.1,2.4-0.1c0.2,0,0.4,0,0.6,0c0.7,0,1.4-0.1,2.1-0.1c0.2,0,0.3,0,0.4,0
	c0.7-0.1,1.5-0.1,2.2-0.2c0.1,0,0.1,0,0.2,0c1.2-0.1,2.4-0.3,3.5-0.4c4-0.5,7.9-1.3,11.7-2.4c0.6-0.2,1.2-0.3,1.9-0.5
	c0.1,0,0.2-0.1,0.4-0.1c0.3-0.1,0.7-0.2,1-0.3c0.4-0.1,0.8-0.2,1.2-0.4c0.1,0,0.3-0.1,0.4-0.1c0.7-0.2,1.4-0.4,2.1-0.7
	c0.3-0.1,0.6-0.2,0.8-0.3c1.9-0.7,3.8-1.4,5.7-2.2c0.8-0.3,1.6-0.7,2.3-1.1c2.1-1,4.1-2,6.1-3.2c1.3,1.4,2.7,2.8,4.1,4.3
	c0.3,0.3,4.4,5,7.7,8.9c-14.1,12.7-33.8,20.6-55.6,20.6c-12.5,0-24.4-2.6-34.9-7.2c-0.2-0.1-0.3-0.1-0.5-0.2c-0.3-0.1-0.7-0.3-1-0.5
	c-0.1,0-0.1-0.1-0.2-0.1c-0.4,2-0.7,4.1-1,6.3c-0.1,0.3-0.1,0.6-0.1,1c-0.1,0.8-0.2,1.7-0.3,2.5c-1.1,10-3,28.8,4.9,50.6
	c2.5,6.9,7.4,20.2,19.9,33.2c11,11.4,32.1,21.8,34.2,22.9C136.5,309.2,136.6,309.3,136.6,309.3z"/>
<path class="st0" d="M136.7,309.4c0,0,0,0,0.2,0.1c0,0,0.1,0,0.1,0.1v40.1c0.1,0.4,0.1,0.9,0,1.3c-0.1,0.6-0.2,1.2-0.4,1.7
	c-0.6,1.9-2,3.9-3.8,5.8c-2.4,2.5-5.8,5-9.9,7c-0.8,0.4-1.7,0.8-2.5,1.2c-5.4,2.3-10.7,3.3-15.1,3.2c-2.4-0.1-4.5-0.5-6.1-1.3
	c-0.2-0.1-0.4-0.2-0.7-0.3c-0.2-0.1-0.3-0.2-0.5-0.3c-0.2-0.1-0.3-0.2-0.5-0.4c-0.4-0.4-0.8-0.8-1.2-1.2c-0.1-0.2-0.2-0.3-0.3-0.4
	c-0.1-0.2-0.2-0.4-0.3-0.6c-2.3-5.4,4.7-13.5,15.6-18.3c0,0,0.5-19.6-10.2-37c-0.2-0.4-0.5-0.8-0.7-1.2c-0.3-0.4-0.5-0.8-0.8-1.2
	c-0.3-0.4-0.6-0.8-0.9-1.2c-0.1-0.1-0.2-0.3-0.3-0.4c-0.4-0.5-0.7-1-1.1-1.5c-0.4-0.6-0.8-1.1-1.2-1.6c-0.4-0.4-0.7-0.9-1.1-1.3
	c-0.2-0.3-0.5-0.6-0.7-0.8c-0.5-0.6-1-1.1-1.5-1.6c-0.4-0.4-0.7-0.8-1.1-1.1c-0.4-0.4-0.7-0.7-1.1-1.1c-0.7-0.7-1.5-1.4-2.2-2.1
	s-1.4-1.3-2.2-2c-0.3-0.3-0.7-0.7-1.1-1c-1.1-1-2.1-2-3.1-3c-1.9-2-3.6-4-5.2-6.1l-0.1-0.1c-2.9-3.9-5.2-7.8-7.1-11.6
	c-0.9-1.9-1.7-3.7-2.5-5.5c0,0,0-0.1-0.1-0.1c-2-5-3.4-9.6-4.5-13.3c-0.3-1.1-0.6-2.2-0.9-3.2c-0.1-0.2-0.1-0.4-0.2-0.7
	c-0.3-1.1-0.6-2.2-0.8-3.3c0-0.1,0-0.2-0.1-0.2c-0.1-0.3-0.1-0.7-0.2-1c-1.1-5.6-1.7-10.9-1.9-16c-0.1-2.8-0.1-5.5-0.1-8.1
	c0.1-2,0.2-3.9,0.3-5.7c0-0.4,0.1-0.8,0.1-1.2c0.1-0.8,0.2-1.6,0.2-2.3c0.1-0.5,0.1-1.1,0.2-1.6c0.1-0.5,0.1-1,0.2-1.5
	c0.1-0.5,0.1-1,0.2-1.5c0.1-0.5,0.2-1,0.2-1.4c0.1-0.5,0.2-1,0.3-1.5c0.1-0.4,0.1-0.8,0.2-1.2c0.1-0.6,0.2-1.1,0.3-1.6
	c0.1-0.6,0.2-1.2,0.4-1.7c0-0.1,0-0.2,0.1-0.3c0.1-0.4,0.2-0.9,0.3-1.3c0.2-1,0.5-2,0.7-2.8c0.1-0.3,0.1-0.5,0.2-0.8
	c0.1-0.3,0.1-0.5,0.2-0.8c0.1-0.3,0.1-0.5,0.2-0.7c1-3.9,2.1-7,2.9-9.2v-0.1c1.1-3.9,2.4-8.1,3.9-12.4c0.6,0.3,1.2,0.5,1.7,0.8
	c0.2,0.1,0.4,0.2,0.6,0.2c0.4,0.2,0.8,0.4,1.3,0.5c0.6,0.3,1.3,0.5,1.9,0.8c0,0,0.1,0,0.1,0.1h0.1c0.4,0.2,0.8,0.3,1.1,0.4
	c0.5,0.2,1.1,0.4,1.6,0.6c0.8,0.3,1.5,0.5,2.3,0.8c1,0.3,2,0.6,3,0.9c0.2,0.1,0.3,0.1,0.5,0.2l1.2,0.4c1.8,0.5,3.6,0.9,5.4,1.3
	c0.9,0.2,1.8,0.4,2.7,0.5c0.5,0.1,0.9,0.2,1.4,0.2c0.6,0.1,1.2,0.2,1.8,0.3c2.8,0.4,5.7,0.7,8.5,0.9c0.6,0,1.1,0.1,1.7,0.1
	c0.4,0,0.8,0.1,1.1,0.1c0.6,0,1.2,0,1.8,0.1c0.6,0,1.2,0,1.8,0c0.9,0,1.8,0,2.6,0c0.8,0,1.6-0.1,2.4-0.1c0.2,0,0.4,0,0.6,0
	c0.7,0,1.4-0.1,2.1-0.1c0.2,0,0.3,0,0.4,0c0.7-0.1,1.5-0.1,2.2-0.2c0.1,0,0.1,0,0.2,0c1.2-0.1,2.4-0.3,3.5-0.4
	c4-0.5,7.9-1.3,11.7-2.4c0.6-0.2,1.2-0.3,1.9-0.5c0.1,0,0.2-0.1,0.4-0.1c0.3-0.1,0.7-0.2,1-0.3c0.4-0.1,0.8-0.2,1.2-0.4
	c0.1,0,0.3-0.1,0.4-0.1c0.7-0.2,1.4-0.4,2.1-0.7c0.3-0.1,0.6-0.2,0.8-0.3c1.9-0.7,3.8-1.4,5.7-2.2c0.8-0.3,1.6-0.7,2.3-1.1
	c2.1-1,4.1-2,6.1-3.2c1.3,1.4,2.7,2.8,4.1,4.3c0.3,0.3,4.4,5,7.7,8.9c-14.1,12.7-33.8,20.6-55.6,20.6c-12.5,0-24.4-2.6-34.9-7.2
	c-0.2-0.1-0.3-0.1-0.5-0.2c-0.2-0.2-0.4-0.3-0.5-0.2s-0.1,0.4,0.1,0.8c0.1,0.2,0.2,0.4,0,0.6c-0.1,0.1-0.2,0.2-0.2,0.2
	c0.1,0.6,0.1,1.4,0.1,2.2s-0.2,1.6-0.3,2.2c-0.7-0.2-4.3,33.3,3.1,54c1,2.7,2.4,6.6,4.5,10.9c3.1,6.6,7.9,14.5,15.4,22.2
	c2.5,2.6,5.6,5.2,8.9,7.6c0.6,0.5,1.3,0.9,1.9,1.4c1.2,0.9,2.5,1.7,3.7,2.5c0.6,0.4,1.2,0.8,1.8,1.2c4.3,2.8,8.5,5.1,11.7,6.9
	c0.4,0.2,0.8,0.4,1.2,0.6s0.8,0.4,1.2,0.6c0.3,0.2,0.6,0.3,0.8,0.4c0.3,0.2,0.6,0.3,0.8,0.4s0.3,0.2,0.5,0.3
	c0.8,0.4,1.3,0.7,1.6,0.8c0.1,0,0.1,0.1,0.2,0.1C136.4,309.3,136.6,309.3,136.7,309.4z"/>
<path class="st0" d="M135.8,309.6v40.1c0.1,0.4,0.1,0.9,0,1.3c-0.1,0.6-0.2,1.2-0.4,1.7c-0.6,1.9-2,3.9-3.8,5.8
	c-2.4,2.5-5.8,5-9.9,7c-0.8,0.4-1.7,0.8-2.5,1.2c-4.9,2.1-9.8,3.1-13.9,3.2c-2.9,0.1-5.4-0.4-7.3-1.3c-0.2-0.1-0.4-0.2-0.7-0.3
	c-0.2-0.1-0.3-0.2-0.5-0.3c-0.2-0.1-0.3-0.2-0.5-0.4c-0.4-0.4-0.8-0.8-1.2-1.2c-0.1-0.2-0.2-0.3-0.3-0.4c-0.1-0.2-0.2-0.4-0.3-0.6
	c-2.3-5.4,4.7-13.5,15.6-18.3c0,0,0.5-19.6-10.2-37c-0.2-0.4-0.5-0.8-0.7-1.2c-0.3-0.4-0.5-0.8-0.8-1.2c-0.4-0.6-0.8-1.1-1.2-1.7
	c-0.4-0.5-0.7-1-1.1-1.5c-0.1-0.2-0.3-0.4-0.4-0.5c-0.3-0.4-0.6-0.7-0.8-1c-0.4-0.4-0.7-0.9-1.1-1.3c-0.2-0.3-0.5-0.6-0.7-0.8
	c-0.5-0.6-1-1.1-1.5-1.6c-0.4-0.4-0.7-0.8-1.1-1.1c-0.4-0.4-0.7-0.7-1.1-1.1c-0.7-0.7-1.5-1.4-2.2-2.1s-1.4-1.3-2.2-2
	c-0.3-0.3-0.7-0.7-1.1-1s-0.7-0.7-1.1-1c-2.4-2.9-4.4-5.7-6-8.1l-0.1-0.1c-2.9-3.9-5.2-7.8-7.1-11.6h19.8c0.4,0.7,0.8,1.3,1.3,2
	c2.7,4.2,6.1,8.7,10.3,13.1c2.5,2.6,5.6,5.2,8.9,7.6c0.6,0.5,1.3,0.9,1.9,1.4c1.2,0.9,2.5,1.7,3.7,2.5c0.6,0.4,1.2,0.8,1.8,1.2
	c4.3,2.8,8.5,5.1,11.7,6.9c0.4,0.2,0.8,0.4,1.2,0.6s0.8,0.4,1.2,0.6c0.3,0.2,0.6,0.3,0.8,0.4l0,0c0.3,0.2,0.6,0.3,0.8,0.4
	s0.3,0.2,0.5,0.3c0.8,0.4,1.3,0.7,1.6,0.8c0.1,0,0.1,0.1,0.2,0.1l0.1,0.1C135.6,309.4,135.7,309.5,135.8,309.6z"/>
<path class="st0" d="M117.3,179c0.3,0,0.7,0,1-0.1c-0.4,0-0.8,0.1-1.2,0.1C117.2,179,117.2,179,117.3,179z"/>
<path class="st0" d="M144.3,173.7c0.1,0,0.2-0.1,0.3-0.1c-0.3,0.1-0.6,0.2-0.9,0.3C143.9,173.9,144.1,173.8,144.3,173.7z"/>
<path class="st0" d="M287.2,301.6c-1.3-10.9-5.5-21-11.7-29.3c-1.3-1.7-2.6-3.3-4-4.8c-0.9-0.8-2.3-2.1-4-3.6
	c-7-6.2-12.4-10.5-13.5-11.4c-4.7-3.8-23.5-19.8-77-65.7c-0.7-0.6-1.3-1.1-2-1.7c-0.3-0.4-1.1-1.2-2.1-2.4c-0.6-0.7-1.3-1.5-2-2.3
	c0,0-0.1,0-0.1-0.1c-3.3-3.9-7.4-8.6-7.7-8.9c-1.4-1.5-2.8-2.9-4.1-4.3c11.3-6.4,20.5-14.9,26.9-24.9c0,0,0.1,0,0.1,0
	c0.4-0.6,0.8-1.2,1.1-1.8c0.3-0.4,0.5-0.9,0.8-1.4c0.2-0.4,0.4-0.8,0.6-1.2c0.2-0.3,0.4-0.7,0.6-1.1c0.1-0.3,0.3-0.7,0.5-1.1
	c0.3-0.8,0.7-1.5,1-2.3c0.2-0.4,0.4-0.8,0.5-1.2c0.8-2.1,1.5-4.2,2.1-6.3c0.1-0.3,0.2-0.7,0.3-1c0.1-0.4,0.2-0.7,0.3-1.1
	c0.1-0.4,0.2-0.8,0.3-1.2c0-0.1,0-0.1,0-0.2c0-0.4,0.1-0.9,0.2-1.3c0.1-0.6,0.2-1.2,0.3-1.8c0.1-0.4,0.1-0.8,0.2-1.2
	c0-0.4,0.1-0.9,0.1-1.3c0-0.4,0.1-0.7,0.1-1.1c0.1-0.4,0.1-0.8,0.1-1.2c0.1-0.6,0.1-1.1,0.1-1.7c0-0.6,0-1.2,0-1.8
	c0-0.5,0-1.1,0.2-1.5c0-0.8-0.1-1.5-0.1-2.2c0-0.3-0.1-0.7-0.1-1.1c0-0.2,0-0.4,0-0.6c0-0.3-0.1-0.7-0.1-1c0-0.4-0.1-0.7-0.1-1.1
	c0-0.1,0-0.1,0-0.2c-0.1-0.4-0.1-0.9-0.2-1.3c0-0.1-0.1-0.3-0.1-0.4c-0.1-0.4-0.1-0.7-0.2-1.1c-0.1-0.1-0.1-0.2-0.1-0.3
	c-0.1-0.4-0.2-0.9-0.3-1.3c-0.3-1-0.5-2.1-0.8-3.1c-0.2-0.5-0.3-1-0.5-1.6c-0.1-0.2-0.2-0.5-0.3-0.8c-0.1-0.3-0.2-0.5-0.3-0.8
	c-0.2-0.5-0.4-1.1-0.6-1.6c-0.2-0.5-0.4-0.9-0.6-1.4c0-0.2-0.1-0.3-0.1-0.4c-0.2-0.4-0.4-0.9-0.6-1.3c0,0,0,0,0,0
	c0-0.1-0.1-0.1-0.1-0.2c0,0,0,0-0.1,0c-0.2-0.3-0.3-0.6-0.4-1c-0.3-0.7-0.6-1.3-1-2c-0.4-0.7-0.8-1.5-1.2-2.2c0-0.1-0.1-0.1-0.1-0.2
	l-6.3-57.9C169.6,32.5,158,40.8,146.5,49c0,0,0,0,0,0c0,0,0,0-0.1,0c-0.4-0.1-0.7-0.3-1.1-0.4c-0.6-0.3-1.3-0.5-1.9-0.7
	c-1-0.4-2.1-0.7-3.1-1c-0.6-0.2-1.1-0.3-1.7-0.5c-0.5-0.1-1-0.3-1.5-0.4c-1.1-0.3-2.1-0.6-3.1-0.8c-0.4-0.1-0.8-0.2-1.3-0.3
	c-0.8-0.2-1.7-0.3-2.5-0.5c-0.6-0.1-1.2-0.2-1.7-0.3c-0.3-0.1-0.6-0.2-0.9-0.2c-0.5,0-1-0.1-1.5-0.2c-0.6,0-1.2-0.1-1.8-0.2
	c-0.7-0.1-1.3-0.1-1.9-0.2c-3.6-0.4-7.2-0.6-10.9-0.6c-2.7,0-5.3,0.1-7.9,0.3c-1,0-2.2,0-3.8,0.2c-2.5,0.2-12.7,1.1-25.9,6.5
	c-0.1,0-0.1,0.1-0.2,0.1C63,42.2,52.4,34.6,41.8,27l-0.1,1.1c0,0-0.1,0-0.1-0.1l-6,54.1c0,0.1-0.1,0.2-0.1,0.2
	c-0.2,0.5-0.5,1.1-0.8,1.6c-0.7,1.4-1.4,2.8-2,4.3c-0.4,1-0.8,2-1.2,3c-0.1,0.4-0.3,0.8-0.4,1.2c-0.1,0.2-0.2,0.3-0.2,0.5
	c-0.1,0.3-0.2,0.7-0.3,1c-0.1,0.2-0.1,0.5-0.2,0.7c-0.1,0.3-0.2,0.7-0.3,1c0,0.1-0.1,0.3-0.1,0.5c-0.1,0.4-0.2,0.8-0.3,1.2
	c0,0.1,0,0.1,0,0.2c-0.1,0.5-0.2,1-0.3,1.5c0,0.1,0,0.1,0,0.2c-0.1,0.5-0.2,0.9-0.3,1.4c0,0.1-0.1,0.2-0.1,0.4
	c-0.1,0.3-0.2,0.7-0.2,1c0,0.3-0.1,0.5-0.1,0.8c0,0.3-0.1,0.6-0.1,0.9c-0.2,1.6-0.4,3.2-0.4,4.9c0,0.2,0,0.3,0,0.5c0,0,0,0,0,0
	c0,0.6,0,1.2,0,1.8c0,0.6,0,1.2,0,1.8c0,0.5,0.1,0.9,0.1,1.4c0,0.3,0.1,0.6,0.1,1c0,0.1,0,0.2,0,0.3c0.1,0.6,0.1,1.2,0.2,1.8
	c0,0.3,0.1,0.7,0.1,1c0,0.3,0.1,0.7,0.1,1c0,0.5,0.1,1,0.2,1.5c0.1,0.4,0.2,0.9,0.3,1.4v0.1c0,0.3,0.1,0.7,0.2,1.1
	c0,0.3,0.1,0.6,0.2,0.9c0.3,1.3,0.6,2.6,1,3.8c0.1,0.5,0.3,1.1,0.5,1.6v0.1c0.2,0.5,0.4,1,0.6,1.5s0.4,1.1,0.6,1.6
	c0.2,0.6,0.5,1.1,0.7,1.6c0.1,0.4,0.3,0.8,0.5,1.2c0.7,1.6,1.5,3.1,2.4,4.6c0.2,0.4,0.5,0.7,0.7,1.1c0.1,0,0.1,0.1,0.1,0.1
	c13.7,22.4,42.1,37.8,74.8,37.8c3.7,0,7.4-0.2,11-0.6c-0.3,0.1-0.6,0.1-0.9,0.1c-0.5,0.1-1,0.2-1.6,0.2c-0.7,0.1-1.4,0.2-2.1,0.2
	c-0.3,0.1-0.7,0.1-1,0.1c-0.1,0-0.1,0-0.2,0h-0.1c-0.8,0-1.6,0.1-2.4,0.1c-0.1,0-0.3,0-0.4,0c-0.8,0-1.7,0-2.6,0c-0.6,0-1.2,0-1.8,0
	c-0.4,0-0.8,0-1.2,0c-0.6,0-1.1-0.1-1.7-0.1c-0.6,0-1.1-0.1-1.7-0.1c-1.1,0-2.1-0.1-3.2-0.2c-0.7,0-1.5-0.1-2.2-0.2
	c-0.4-0.1-0.8-0.1-1.2-0.2c-1.1-0.2-2.3-0.3-3.4-0.5c-4-0.6-7.8-1.5-11.6-2.6c-0.6,1.8-1.2,3.7-1.8,5.8c-1,3.5-2,7.4-2.8,11.6
	c0,0,0,0.1,0,0.2c-0.4,2-0.7,4-1,6.1c0,0.4-0.1,0.7-0.1,1c-0.1,0.8-0.2,1.6-0.3,2.5c-1.1,10-3,28.7,4.9,50.6
	c2.5,6.9,7.4,20.3,19.9,33.2c2.6,2.7,5.7,5.3,9,7.7c0.1,0.1,0.1,0.1,0.1,0.1c0.6,0.4,1.2,0.9,1.8,1.3c1.2,0.8,2.5,1.7,3.7,2.5
	c0.6,0.4,1.2,0.8,1.8,1.2c4.3,2.8,8.5,5.1,11.7,6.9c0.4,0.2,0.8,0.4,1.2,0.6c0.4,0.2,0.8,0.4,1.2,0.6c0.3,0.1,0.5,0.3,0.8,0.4
	c0.2,0.1,0.5,0.3,0.8,0.4c0.2,0.1,0.3,0.2,0.5,0.3c0.8,0.4,1.3,0.7,1.6,0.8c0.1,0,0.2,0.1,0.2,0.1v53.2
	c-10.9,4.8-17.8,12.9-15.5,18.3c2.4,5.5,13.4,6.2,24.7,1.4c3.4-1.4,9.3-3.2,13.2-9c2.2-3.3,3-6.6,3.3-8.7
	c-0.1-16.4-0.2-32.8-0.3-49.2c0.7,0.1,6.1,0.8,8.1,1c1.3,11.4,5.7,22,12.3,30.6c-1,0.3-2.5,0.7-4,1.6c-5.6,3.1-10.4,9.8-8.7,12.8
	c1.3,2.3,6.6,2.3,12.4,0.8c-4.8,4.6-7.1,9.1-5.7,12.4c2.8,6.7,19.7,6,37.7-1.6c2.5-1.1,4.9-2.2,7.2-3.4c2.5,0.3,5,0.5,7.6,0.5
	c32.7,0,59.2-27.2,59.2-60.8C288,306.6,287.8,304.1,287.2,301.6z M134.6,176.6c-0.9,0.2-1.8,0.4-2.8,0.6c-0.2,0-0.3,0.1-0.5,0.1
	c1.7-0.3,3.5-0.7,5.2-1.2C135.9,176.3,135.2,176.4,134.6,176.6z"/>
<path class="st0" d="M131.5,307.2c-3.7-2.2-5-3.2-5.7-3.8c0,0-0.9-0.9-2-1.9c-5.9-6.1-9.7-12.9-12.1-19c-3.1-7.9-3.9-14.6-4.2-17.2
	c-0.9-8.2,0.2-13.6-1.9-28.8c-0.6-4-1.1-7-2.2-10c-0.1-0.3-0.5-1.3-1.1-2.6c-2.1-4.6-5.9-13.1-14-18c-3.8-2.2-6.6-2.6-8.2-2.5
	c-0.7,0-1.2,0.1-1.4,0.2c-0.6,0.2-1.1,0.3-1.4,0.4h-0.1l0,0l0,0h-0.1c-0.1,0-0.2,0.1-0.2,0.1c-0.1,0-0.1,0-0.2,0.1h-0.1l0,0
	c-0.7,0.3-1.1,0.5-1.2,0.6c-0.9,0.5-3.8,2.2-6.7,6.3c-4.9,6.9-6.8,15.7-7.2,17.2c0,0-1.7,8.2-0.6,16.5c0.1,0.8,0.2,1.6,0.4,2.4
	c0.1,0.5,0.2,1,0.2,1c0.2,1.2,0.5,2.4,0.8,3.6c0.1,0.2,0.1,0.4,0.2,0.7c1.3,4.7,3,9,4.7,12.8c0,0,0,0.1,0.1,0.1
	c0.1,0.3,1.6,3.7,2.6,5.8c0.4,0.8,2,4.2,4.7,8.2c0.9,1.3,1.6,2.3,2.2,3.1c0,0,0,0.1,0.1,0.1c1.6,2.5,3.6,5.2,6,8.1
	c3.4,4.1,7.7,8.6,12.9,13.1l0,0c2.1,1.9,4.2,2.9,8,4c1.7,0.5,3.7,1.1,6.6,1.6c0,0,7.1,1.1,15.7,1c0.2,0,0.4,0,1.2,0s1.4-0.1,1.5-0.1
	c1.2,0,4.8-0.6,7.1-1C134,308.6,132.6,307.8,131.5,307.2z"/>
<ellipse transform="matrix(0.8932 -0.4497 0.4497 0.8932 -139.8015 119.8598)" class="st0" cx="182.4" cy="354.2" rx="14.3" ry="7"/>
<ellipse transform="matrix(0.8932 -0.4497 0.4497 0.8932 -119.8623 128.9959)" class="st0" cx="211.6" cy="316.8" rx="42.2" ry="38.1"/>
<circle class="st0" cx="228.4" cy="323.3" r="46.2"/>
<path class="st0" d="M195.3,138.5"/>
<ellipse class="st1" cx="143.7" cy="100" rx="14.6" ry="14.3"/>
<ellipse class="st1" cx="79.1" cy="100" rx="14.6" ry="14.3"/>
<ellipse class="st2" cx="79.1" cy="100" rx="9.6" ry="9.4"/>
<ellipse class="st2" cx="143.7" cy="100" rx="9.6" ry="9.4"/>
<path class="st3" d="M113.6,134.6l7.5-7.4c2.9-2.9,0.9-7.8-3.2-7.8h-15c-4.1,0-6.1,5-3.2,7.8l7.5,7.4
	C109,136.4,111.8,136.4,113.6,134.6z"/>
<path class="st3" d="M109.2,141.6L98.7,146c-3.1,1.3-2.1,5.8,1.2,5.8h21.1c3.3,0,4.2-4.5,1.2-5.8l-10.5-4.4
	C110.8,141.3,110,141.3,109.2,141.6z"/>
</svg>
